<svg width="1087" height="826" viewBox="0 0 1087 826" fill="none" xmlns="http://www.w3.org/2000/svg">
<path d="M235 292.5L178.5 253H116" stroke="white"/>
<path d="M418 754L361.5 793.5H299" stroke="white"/>
<path d="M790 679L846.5 718.5H909" stroke="white"/>
<path d="M1001 410.5L944.5 371H882" stroke="white"/>
<path d="M671 124.5L727.5 85H790" stroke="white"/>
<path d="M779 207.5L835.5 168H898" stroke="white"/>
<path d="M541 93L597.5 34H660" stroke="white"/>
<path d="M491 104.5L434.5 65H372" stroke="white"/>
<path d="M469.271 122.11C466.668 111.375 455.834 104.726 445.269 107.949C402.42 121.02 362.477 142.368 327.733 170.85C287.824 203.565 255.8 244.852 234.038 291.642C212.276 338.433 201.336 389.526 202.031 441.125C202.636 486.047 212.046 530.349 229.658 571.54C234 581.696 246.066 585.698 255.952 580.771L287.789 564.908C297.675 559.982 301.621 547.998 297.446 537.771C284.802 506.799 278.046 473.676 277.594 440.107C277.052 399.86 285.585 360.008 302.56 323.511C319.534 287.014 344.513 254.811 375.642 229.293C401.604 208.01 431.289 191.834 463.122 181.548C473.633 178.152 480.255 167.413 477.652 156.678L469.271 122.11Z" fill="url(#paint0_linear_2_373)"/>
<path d="M261.929 592.191C252.246 597.507 248.658 609.703 254.528 619.059C294.807 683.261 355.32 732.515 426.793 758.837C498.265 785.158 576.27 786.916 648.568 764.173C659.105 760.858 664.284 749.248 660.362 738.922L647.732 705.67C643.81 695.344 632.275 690.229 621.685 693.371C566.483 709.745 507.273 707.943 452.908 687.922C398.544 667.902 352.308 630.87 320.911 582.604C314.888 573.345 302.791 569.756 293.108 575.072L261.929 592.191Z" fill="url(#paint1_linear_2_373)"/>
<path d="M668.714 735.616C672.921 745.829 684.641 750.751 694.592 745.957C737.282 725.39 775.324 696.177 806.263 660.095C837.202 624.013 860.269 581.96 874.082 536.631C877.302 526.065 870.649 515.233 859.914 512.634L825.343 504.263C814.607 501.663 803.87 508.289 800.477 518.801C789.581 552.555 772.07 583.877 748.895 610.904C725.721 637.931 697.437 660.017 665.74 675.934C655.869 680.891 650.959 692.514 655.166 702.727L668.714 735.616Z" fill="url(#paint2_linear_2_373)"/>
<path d="M861.453 505.967C872.241 508.339 882.971 501.52 884.711 490.612C896.31 417.92 884.24 343.398 850.289 278.083C845.195 268.282 832.862 265.199 823.374 270.854L792.82 289.068C783.333 294.724 780.3 306.972 785.233 316.855C809.532 365.539 818.432 420.492 810.742 474.358C809.181 485.293 815.925 495.957 826.713 498.329L861.453 505.967Z" fill="url(#paint3_linear_2_373)"/>
<path d="M818.903 263.575C828.238 257.671 831.067 245.278 824.629 236.302C801.314 203.794 772.497 175.607 739.482 153.016C730.366 146.778 718.039 149.88 712.342 159.343L693.997 189.818C688.301 199.281 691.405 211.51 700.417 217.897C723.466 234.231 743.788 254.109 760.627 276.791C767.211 285.66 779.506 288.493 788.841 282.589L818.903 263.575Z" fill="url(#paint4_linear_2_373)"/>
<path d="M577.507 114.587C578.6 103.596 588.41 95.5117 599.319 97.2424C633.108 102.603 665.908 112.981 696.63 128.033C706.549 132.893 709.924 145.148 704.495 154.768L687.013 185.746C681.584 195.365 669.412 198.689 659.415 193.992C637.93 183.9 615.198 176.708 591.819 172.604C580.939 170.695 572.895 160.974 573.988 149.983L577.507 114.587Z" fill="url(#paint5_linear_2_373)"/>
<path d="M568.727 113.835C569.52 102.818 561.228 93.1825 550.184 93.0319C545.532 92.9685 540.879 92.9996 536.228 93.1252C525.186 93.4233 517.024 103.168 517.965 114.174L520.992 149.615C521.932 160.621 531.622 168.702 542.667 168.585C543.362 168.578 544.058 168.573 544.753 168.571C555.799 168.54 565.38 160.33 566.173 149.313L568.727 113.835Z" fill="url(#paint6_linear_2_373)"/>
<path d="M506.94 111.466C505.887 102.589 497.828 96.2066 489.01 97.6768C480.192 99.147 474.639 107.798 476.523 116.538L486.377 162.245C487.846 169.061 494.56 173.365 501.438 172.218C508.316 171.071 513.27 164.822 512.449 157.898L506.94 111.466Z" fill="url(#paint7_linear_2_373)"/>
<path d="M23.64 252.48C21.6933 252.48 19.76 252.227 17.84 251.72C15.92 251.187 14.2933 250.44 12.96 249.48L15.48 244.52C16.5467 245.293 17.7867 245.907 19.2 246.36C20.6133 246.813 22.04 247.04 23.48 247.04C25.1067 247.04 26.3867 246.72 27.32 246.08C28.2533 245.44 28.72 244.56 28.72 243.44C28.72 242.373 28.3067 241.533 27.48 240.92C26.6533 240.307 25.32 240 23.48 240H20.52V235.72L28.32 226.88L29.04 229.2H14.36V224H33.96V228.2L26.2 237.04L22.92 235.16H24.8C28.24 235.16 30.84 235.933 32.6 237.48C34.36 239.027 35.24 241.013 35.24 243.44C35.24 245.013 34.8267 246.493 34 247.88C33.1733 249.24 31.9067 250.347 30.2 251.2C28.4933 252.053 26.3067 252.48 23.64 252.48ZM50.2319 252.48C47.9385 252.48 45.8852 251.92 44.0719 250.8C42.2585 249.653 40.8319 248 39.7919 245.84C38.7519 243.68 38.2319 241.067 38.2319 238C38.2319 234.933 38.7519 232.32 39.7919 230.16C40.8319 228 42.2585 226.36 44.0719 225.24C45.8852 224.093 47.9385 223.52 50.2319 223.52C52.5519 223.52 54.6052 224.093 56.3919 225.24C58.2052 226.36 59.6319 228 60.6719 230.16C61.7119 232.32 62.2319 234.933 62.2319 238C62.2319 241.067 61.7119 243.68 60.6719 245.84C59.6319 248 58.2052 249.653 56.3919 250.8C54.6052 251.92 52.5519 252.48 50.2319 252.48ZM50.2319 247C51.3252 247 52.2719 246.693 53.0719 246.08C53.8985 245.467 54.5385 244.493 54.9919 243.16C55.4719 241.827 55.7119 240.107 55.7119 238C55.7119 235.893 55.4719 234.173 54.9919 232.84C54.5385 231.507 53.8985 230.533 53.0719 229.92C52.2719 229.307 51.3252 229 50.2319 229C49.1652 229 48.2185 229.307 47.3919 229.92C46.5919 230.533 45.9519 231.507 45.4719 232.84C45.0185 234.173 44.7919 235.893 44.7919 238C44.7919 240.107 45.0185 241.827 45.4719 243.16C45.9519 244.493 46.5919 245.467 47.3919 246.08C48.2185 246.693 49.1652 247 50.2319 247ZM69.4203 252L88.5403 224H93.3003L74.1803 252H69.4203ZM71.8603 239.12C70.5003 239.12 69.3003 238.813 68.2603 238.2C67.2203 237.56 66.3936 236.667 65.7803 235.52C65.1936 234.347 64.9003 232.973 64.9003 231.4C64.9003 229.827 65.1936 228.467 65.7803 227.32C66.3936 226.173 67.2203 225.28 68.2603 224.64C69.3003 224 70.5003 223.68 71.8603 223.68C73.2203 223.68 74.4203 224 75.4603 224.64C76.5003 225.28 77.3136 226.173 77.9003 227.32C78.487 228.467 78.7803 229.827 78.7803 231.4C78.7803 232.973 78.487 234.347 77.9003 235.52C77.3136 236.667 76.5003 237.56 75.4603 238.2C74.4203 238.813 73.2203 239.12 71.8603 239.12ZM71.8603 235.84C72.7403 235.84 73.447 235.48 73.9803 234.76C74.5136 234.013 74.7803 232.893 74.7803 231.4C74.7803 229.907 74.5136 228.8 73.9803 228.08C73.447 227.333 72.7403 226.96 71.8603 226.96C71.007 226.96 70.3003 227.333 69.7403 228.08C69.207 228.8 68.9403 229.907 68.9403 231.4C68.9403 232.867 69.207 233.973 69.7403 234.72C70.3003 235.467 71.007 235.84 71.8603 235.84ZM90.8603 252.32C89.527 252.32 88.327 252.013 87.2603 251.4C86.2203 250.76 85.407 249.867 84.8203 248.72C84.2336 247.547 83.9403 246.173 83.9403 244.6C83.9403 243.027 84.2336 241.667 84.8203 240.52C85.407 239.373 86.2203 238.48 87.2603 237.84C88.327 237.2 89.527 236.88 90.8603 236.88C92.247 236.88 93.4603 237.2 94.5003 237.84C95.5403 238.48 96.3536 239.373 96.9403 240.52C97.527 241.667 97.8203 243.027 97.8203 244.6C97.8203 246.173 97.527 247.547 96.9403 248.72C96.3536 249.867 95.5403 250.76 94.5003 251.4C93.4603 252.013 92.247 252.32 90.8603 252.32ZM90.8603 249.04C91.7403 249.04 92.447 248.68 92.9803 247.96C93.5136 247.213 93.7803 246.093 93.7803 244.6C93.7803 243.133 93.5136 242.027 92.9803 241.28C92.447 240.533 91.7403 240.16 90.8603 240.16C90.007 240.16 89.3003 240.533 88.7403 241.28C88.207 242 87.9403 243.107 87.9403 244.6C87.9403 246.093 88.207 247.213 88.7403 247.96C89.3003 248.68 90.007 249.04 90.8603 249.04Z" fill="white"/>
<path d="M4.28 264.82H11.24V266.96H4.28V264.82ZM4.48 270.82H12.38V273H1.88V259H12.1V261.18H4.48V270.82ZM19.8408 273.14C18.7208 273.14 17.7208 272.907 16.8408 272.44C15.9741 271.96 15.2941 271.307 14.8008 270.48C14.3074 269.653 14.0608 268.713 14.0608 267.66C14.0608 266.593 14.3074 265.653 14.8008 264.84C15.2941 264.013 15.9741 263.367 16.8408 262.9C17.7208 262.433 18.7208 262.2 19.8408 262.2C20.8808 262.2 21.7941 262.413 22.5808 262.84C23.3808 263.253 23.9874 263.867 24.4008 264.68L22.4808 265.8C22.1608 265.293 21.7674 264.92 21.3008 264.68C20.8474 264.44 20.3541 264.32 19.8208 264.32C19.2074 264.32 18.6541 264.453 18.1608 264.72C17.6674 264.987 17.2808 265.373 17.0008 265.88C16.7208 266.373 16.5808 266.967 16.5808 267.66C16.5808 268.353 16.7208 268.953 17.0008 269.46C17.2808 269.953 17.6674 270.333 18.1608 270.6C18.6541 270.867 19.2074 271 19.8208 271C20.3541 271 20.8474 270.88 21.3008 270.64C21.7674 270.4 22.1608 270.027 22.4808 269.52L24.4008 270.64C23.9874 271.44 23.3808 272.06 22.5808 272.5C21.7941 272.927 20.8808 273.14 19.8408 273.14ZM31.2056 273.14C30.1123 273.14 29.139 272.907 28.2856 272.44C27.4323 271.96 26.759 271.307 26.2656 270.48C25.7723 269.653 25.5256 268.713 25.5256 267.66C25.5256 266.593 25.7723 265.653 26.2656 264.84C26.759 264.013 27.4323 263.367 28.2856 262.9C29.139 262.433 30.1123 262.2 31.2056 262.2C32.3123 262.2 33.2923 262.433 34.1456 262.9C35.0123 263.367 35.6856 264.007 36.1656 264.82C36.659 265.633 36.9056 266.58 36.9056 267.66C36.9056 268.713 36.659 269.653 36.1656 270.48C35.6856 271.307 35.0123 271.96 34.1456 272.44C33.2923 272.907 32.3123 273.14 31.2056 273.14ZM31.2056 271C31.819 271 32.3656 270.867 32.8456 270.6C33.3256 270.333 33.699 269.947 33.9656 269.44C34.2456 268.933 34.3856 268.34 34.3856 267.66C34.3856 266.967 34.2456 266.373 33.9656 265.88C33.699 265.373 33.3256 264.987 32.8456 264.72C32.3656 264.453 31.8256 264.32 31.2256 264.32C30.6123 264.32 30.0656 264.453 29.5856 264.72C29.119 264.987 28.7456 265.373 28.4656 265.88C28.1856 266.373 28.0456 266.967 28.0456 267.66C28.0456 268.34 28.1856 268.933 28.4656 269.44C28.7456 269.947 29.119 270.333 29.5856 270.6C30.0656 270.867 30.6056 271 31.2056 271ZM42.5963 273.14C41.7029 273.14 40.8429 273.027 40.0163 272.8C39.2029 272.56 38.5563 272.273 38.0763 271.94L39.0363 270.04C39.5163 270.347 40.0896 270.6 40.7563 270.8C41.4229 271 42.0896 271.1 42.7563 271.1C43.5429 271.1 44.1096 270.993 44.4563 270.78C44.8163 270.567 44.9963 270.28 44.9963 269.92C44.9963 269.627 44.8763 269.407 44.6363 269.26C44.3963 269.1 44.0829 268.98 43.6963 268.9C43.3096 268.82 42.8763 268.747 42.3963 268.68C41.9296 268.613 41.4563 268.527 40.9763 268.42C40.5096 268.3 40.0829 268.133 39.6963 267.92C39.3096 267.693 38.9963 267.393 38.7563 267.02C38.5163 266.647 38.3963 266.153 38.3963 265.54C38.3963 264.86 38.5896 264.273 38.9762 263.78C39.3629 263.273 39.9029 262.887 40.5962 262.62C41.3029 262.34 42.1363 262.2 43.0963 262.2C43.8163 262.2 44.5429 262.28 45.2763 262.44C46.0096 262.6 46.6163 262.827 47.0963 263.12L46.1363 265.02C45.6296 264.713 45.1163 264.507 44.5963 264.4C44.0896 264.28 43.5829 264.22 43.0763 264.22C42.3163 264.22 41.7496 264.333 41.3763 264.56C41.0163 264.787 40.8363 265.073 40.8363 265.42C40.8363 265.74 40.9563 265.98 41.1963 266.14C41.4363 266.3 41.7496 266.427 42.1363 266.52C42.5229 266.613 42.9496 266.693 43.4163 266.76C43.8963 266.813 44.3696 266.9 44.8363 267.02C45.3029 267.14 45.7296 267.307 46.1163 267.52C46.5163 267.72 46.8363 268.007 47.0763 268.38C47.3163 268.753 47.4363 269.24 47.4363 269.84C47.4363 270.507 47.2363 271.087 46.8363 271.58C46.4496 272.073 45.8963 272.46 45.1763 272.74C44.4563 273.007 43.5963 273.14 42.5963 273.14ZM50.2739 277.02C49.7539 277.02 49.2339 276.933 48.7139 276.76C48.1939 276.587 47.7606 276.347 47.4139 276.04L48.4139 274.2C48.6672 274.427 48.9539 274.607 49.2739 274.74C49.5939 274.873 49.9206 274.94 50.2539 274.94C50.7072 274.94 51.0739 274.827 51.3539 274.6C51.6339 274.373 51.8939 273.993 52.1339 273.46L52.7539 272.06L52.9539 271.76L56.9939 262.32H59.3939L54.3939 273.86C54.0606 274.66 53.6872 275.293 53.2739 275.76C52.8739 276.227 52.4206 276.553 51.9139 276.74C51.4206 276.927 50.8739 277.02 50.2739 277.02ZM52.4739 273.38L47.6539 262.32H50.2539L54.1739 271.54L52.4739 273.38ZM64.1197 273.14C63.2264 273.14 62.3664 273.027 61.5397 272.8C60.7264 272.56 60.0797 272.273 59.5997 271.94L60.5597 270.04C61.0397 270.347 61.613 270.6 62.2797 270.8C62.9464 271 63.613 271.1 64.2797 271.1C65.0664 271.1 65.633 270.993 65.9797 270.78C66.3397 270.567 66.5197 270.28 66.5197 269.92C66.5197 269.627 66.3997 269.407 66.1597 269.26C65.9197 269.1 65.6064 268.98 65.2197 268.9C64.833 268.82 64.3997 268.747 63.9197 268.68C63.453 268.613 62.9797 268.527 62.4997 268.42C62.033 268.3 61.6064 268.133 61.2197 267.92C60.833 267.693 60.5197 267.393 60.2797 267.02C60.0397 266.647 59.9197 266.153 59.9197 265.54C59.9197 264.86 60.113 264.273 60.4997 263.78C60.8864 263.273 61.4264 262.887 62.1197 262.62C62.8264 262.34 63.6597 262.2 64.6197 262.2C65.3397 262.2 66.0664 262.28 66.7997 262.44C67.533 262.6 68.1397 262.827 68.6197 263.12L67.6597 265.02C67.153 264.713 66.6397 264.507 66.1197 264.4C65.613 264.28 65.1064 264.22 64.5997 264.22C63.8397 264.22 63.273 264.333 62.8997 264.56C62.5397 264.787 62.3597 265.073 62.3597 265.42C62.3597 265.74 62.4797 265.98 62.7197 266.14C62.9597 266.3 63.273 266.427 63.6597 266.52C64.0464 266.613 64.473 266.693 64.9397 266.76C65.4197 266.813 65.893 266.9 66.3597 267.02C66.8264 267.14 67.253 267.307 67.6397 267.52C68.0397 267.72 68.3597 268.007 68.5997 268.38C68.8397 268.753 68.9597 269.24 68.9597 269.84C68.9597 270.507 68.7597 271.087 68.3597 271.58C67.973 272.073 67.4197 272.46 66.6997 272.74C65.9797 273.007 65.1197 273.14 64.1197 273.14ZM75.1327 273.14C73.9593 273.14 73.0527 272.84 72.4127 272.24C71.7727 271.627 71.4527 270.727 71.4527 269.54V259.96H73.9527V269.48C73.9527 269.987 74.0793 270.38 74.3327 270.66C74.5993 270.94 74.966 271.08 75.4327 271.08C75.9927 271.08 76.4593 270.933 76.8327 270.64L77.5327 272.42C77.2393 272.66 76.8793 272.84 76.4527 272.96C76.026 273.08 75.586 273.14 75.1327 273.14ZM69.6927 264.4V262.4H76.8127V264.4H69.6927ZM84.2577 273.14C83.071 273.14 82.031 272.907 81.1377 272.44C80.2577 271.96 79.571 271.307 79.0777 270.48C78.5977 269.653 78.3577 268.713 78.3577 267.66C78.3577 266.593 78.591 265.653 79.0577 264.84C79.5377 264.013 80.191 263.367 81.0177 262.9C81.8577 262.433 82.811 262.2 83.8777 262.2C84.9177 262.2 85.8443 262.427 86.6577 262.88C87.471 263.333 88.111 263.973 88.5777 264.8C89.0443 265.627 89.2777 266.6 89.2777 267.72C89.2777 267.827 89.271 267.947 89.2577 268.08C89.2577 268.213 89.251 268.34 89.2377 268.46H80.3377V266.8H87.9177L86.9377 267.32C86.951 266.707 86.8243 266.167 86.5577 265.7C86.291 265.233 85.9243 264.867 85.4577 264.6C85.0043 264.333 84.4777 264.2 83.8777 264.2C83.2643 264.2 82.7243 264.333 82.2577 264.6C81.8043 264.867 81.4443 265.24 81.1777 265.72C80.9243 266.187 80.7977 266.74 80.7977 267.38V267.78C80.7977 268.42 80.9443 268.987 81.2377 269.48C81.531 269.973 81.9443 270.353 82.4777 270.62C83.011 270.887 83.6243 271.02 84.3177 271.02C84.9177 271.02 85.4577 270.927 85.9377 270.74C86.4177 270.553 86.8443 270.26 87.2177 269.86L88.5577 271.4C88.0777 271.96 87.471 272.393 86.7377 272.7C86.0177 272.993 85.191 273.14 84.2577 273.14ZM105.159 262.2C106.012 262.2 106.766 262.367 107.419 262.7C108.086 263.033 108.606 263.547 108.979 264.24C109.352 264.92 109.539 265.8 109.539 266.88V273H107.039V267.2C107.039 266.253 106.832 265.547 106.419 265.08C106.006 264.613 105.412 264.38 104.639 264.38C104.092 264.38 103.606 264.5 103.179 264.74C102.766 264.98 102.439 265.333 102.199 265.8C101.972 266.267 101.859 266.86 101.859 267.58V273H99.3591V267.2C99.3591 266.253 99.1524 265.547 98.7391 265.08C98.3257 264.613 97.7324 264.38 96.9591 264.38C96.4124 264.38 95.9257 264.5 95.4991 264.74C95.0857 264.98 94.7591 265.333 94.5191 265.8C94.2924 266.267 94.1791 266.86 94.1791 267.58V273H91.6791V262.32H94.0591V265.16L93.6391 264.32C93.9991 263.627 94.5191 263.1 95.1991 262.74C95.8924 262.38 96.6791 262.2 97.5591 262.2C98.5591 262.2 99.4257 262.447 100.159 262.94C100.906 263.433 101.399 264.18 101.639 265.18L100.659 264.84C101.006 264.04 101.579 263.4 102.379 262.92C103.179 262.44 104.106 262.2 105.159 262.2Z" fill="white"/>
<path d="M211.32 800V795.8L222.12 785.6C222.973 784.827 223.6 784.133 224 783.52C224.4 782.907 224.667 782.347 224.8 781.84C224.96 781.333 225.04 780.867 225.04 780.44C225.04 779.32 224.653 778.467 223.88 777.88C223.133 777.267 222.027 776.96 220.56 776.96C219.387 776.96 218.293 777.187 217.28 777.64C216.293 778.093 215.453 778.8 214.76 779.76L210.04 776.72C211.107 775.12 212.6 773.853 214.52 772.92C216.44 771.987 218.653 771.52 221.16 771.52C223.24 771.52 225.053 771.867 226.6 772.56C228.173 773.227 229.387 774.173 230.24 775.4C231.12 776.627 231.56 778.093 231.56 779.8C231.56 780.707 231.44 781.613 231.2 782.52C230.987 783.4 230.533 784.333 229.84 785.32C229.173 786.307 228.187 787.413 226.88 788.64L217.92 797.08L216.68 794.72H232.48V800H211.32ZM244.674 800.48C242.727 800.48 240.794 800.227 238.874 799.72C236.98 799.187 235.354 798.44 233.994 797.48L236.554 792.52C237.62 793.293 238.847 793.907 240.234 794.36C241.647 794.813 243.074 795.04 244.514 795.04C246.14 795.04 247.42 794.72 248.354 794.08C249.287 793.44 249.754 792.547 249.754 791.4C249.754 790.68 249.567 790.04 249.194 789.48C248.82 788.92 248.154 788.493 247.194 788.2C246.26 787.907 244.94 787.76 243.234 787.76H236.074L237.514 772H254.594V777.2H239.834L243.194 774.24L242.194 785.48L238.834 782.52H244.754C247.527 782.52 249.754 782.907 251.434 783.68C253.14 784.427 254.38 785.453 255.154 786.76C255.927 788.067 256.314 789.547 256.314 791.2C256.314 792.853 255.9 794.387 255.074 795.8C254.247 797.187 252.967 798.32 251.234 799.2C249.527 800.053 247.34 800.48 244.674 800.48ZM262.592 800L281.712 772H286.472L267.352 800H262.592ZM265.032 787.12C263.672 787.12 262.472 786.813 261.432 786.2C260.392 785.56 259.566 784.667 258.952 783.52C258.366 782.347 258.072 780.973 258.072 779.4C258.072 777.827 258.366 776.467 258.952 775.32C259.566 774.173 260.392 773.28 261.432 772.64C262.472 772 263.672 771.68 265.032 771.68C266.392 771.68 267.592 772 268.632 772.64C269.672 773.28 270.486 774.173 271.072 775.32C271.659 776.467 271.952 777.827 271.952 779.4C271.952 780.973 271.659 782.347 271.072 783.52C270.486 784.667 269.672 785.56 268.632 786.2C267.592 786.813 266.392 787.12 265.032 787.12ZM265.032 783.84C265.912 783.84 266.619 783.48 267.152 782.76C267.686 782.013 267.952 780.893 267.952 779.4C267.952 777.907 267.686 776.8 267.152 776.08C266.619 775.333 265.912 774.96 265.032 774.96C264.179 774.96 263.472 775.333 262.912 776.08C262.379 776.8 262.112 777.907 262.112 779.4C262.112 780.867 262.379 781.973 262.912 782.72C263.472 783.467 264.179 783.84 265.032 783.84ZM284.032 800.32C282.699 800.32 281.499 800.013 280.432 799.4C279.392 798.76 278.579 797.867 277.992 796.72C277.406 795.547 277.112 794.173 277.112 792.6C277.112 791.027 277.406 789.667 277.992 788.52C278.579 787.373 279.392 786.48 280.432 785.84C281.499 785.2 282.699 784.88 284.032 784.88C285.419 784.88 286.632 785.2 287.672 785.84C288.712 786.48 289.526 787.373 290.112 788.52C290.699 789.667 290.992 791.027 290.992 792.6C290.992 794.173 290.699 795.547 290.112 796.72C289.526 797.867 288.712 798.76 287.672 799.4C286.632 800.013 285.419 800.32 284.032 800.32ZM284.032 797.04C284.912 797.04 285.619 796.68 286.152 795.96C286.686 795.213 286.952 794.093 286.952 792.6C286.952 791.133 286.686 790.027 286.152 789.28C285.619 788.533 284.912 788.16 284.032 788.16C283.179 788.16 282.472 788.533 281.912 789.28C281.379 790 281.112 791.107 281.112 792.6C281.112 794.093 281.379 795.213 281.912 795.96C282.472 796.68 283.179 797.04 284.032 797.04Z" fill="white"/>
<path d="M204.88 821V807H210.64C211.88 807 212.94 807.2 213.82 807.6C214.713 808 215.4 808.573 215.88 809.32C216.36 810.067 216.6 810.953 216.6 811.98C216.6 813.007 216.36 813.893 215.88 814.64C215.4 815.373 214.713 815.94 213.82 816.34C212.94 816.727 211.88 816.92 210.64 816.92H206.32L207.48 815.74V821H204.88ZM214.04 821L210.5 815.92H213.28L216.84 821H214.04ZM207.48 816.02L206.32 814.78H210.52C211.667 814.78 212.527 814.533 213.1 814.04C213.687 813.547 213.98 812.86 213.98 811.98C213.98 811.087 213.687 810.4 213.1 809.92C212.527 809.44 211.667 809.2 210.52 809.2H206.32L207.48 807.92V816.02ZM224.289 821.14C223.102 821.14 222.062 820.907 221.169 820.44C220.289 819.96 219.602 819.307 219.109 818.48C218.629 817.653 218.389 816.713 218.389 815.66C218.389 814.593 218.622 813.653 219.089 812.84C219.569 812.013 220.222 811.367 221.049 810.9C221.889 810.433 222.842 810.2 223.909 810.2C224.949 810.2 225.876 810.427 226.689 810.88C227.502 811.333 228.142 811.973 228.609 812.8C229.076 813.627 229.309 814.6 229.309 815.72C229.309 815.827 229.302 815.947 229.289 816.08C229.289 816.213 229.282 816.34 229.269 816.46H220.369V814.8H227.949L226.969 815.32C226.982 814.707 226.856 814.167 226.589 813.7C226.322 813.233 225.956 812.867 225.489 812.6C225.036 812.333 224.509 812.2 223.909 812.2C223.296 812.2 222.756 812.333 222.289 812.6C221.836 812.867 221.476 813.24 221.209 813.72C220.956 814.187 220.829 814.74 220.829 815.38V815.78C220.829 816.42 220.976 816.987 221.269 817.48C221.562 817.973 221.976 818.353 222.509 818.62C223.042 818.887 223.656 819.02 224.349 819.02C224.949 819.02 225.489 818.927 225.969 818.74C226.449 818.553 226.876 818.26 227.249 817.86L228.589 819.4C228.109 819.96 227.502 820.393 226.769 820.7C226.049 820.993 225.222 821.14 224.289 821.14ZM235.01 821.14C234.117 821.14 233.257 821.027 232.43 820.8C231.617 820.56 230.97 820.273 230.49 819.94L231.45 818.04C231.93 818.347 232.504 818.6 233.17 818.8C233.837 819 234.504 819.1 235.17 819.1C235.957 819.1 236.524 818.993 236.87 818.78C237.23 818.567 237.41 818.28 237.41 817.92C237.41 817.627 237.29 817.407 237.05 817.26C236.81 817.1 236.497 816.98 236.11 816.9C235.724 816.82 235.29 816.747 234.81 816.68C234.344 816.613 233.87 816.527 233.39 816.42C232.924 816.3 232.497 816.133 232.11 815.92C231.724 815.693 231.41 815.393 231.17 815.02C230.93 814.647 230.81 814.153 230.81 813.54C230.81 812.86 231.004 812.273 231.39 811.78C231.777 811.273 232.317 810.887 233.01 810.62C233.717 810.34 234.55 810.2 235.51 810.2C236.23 810.2 236.957 810.28 237.69 810.44C238.424 810.6 239.03 810.827 239.51 811.12L238.55 813.02C238.044 812.713 237.53 812.507 237.01 812.4C236.504 812.28 235.997 812.22 235.49 812.22C234.73 812.22 234.164 812.333 233.79 812.56C233.43 812.787 233.25 813.073 233.25 813.42C233.25 813.74 233.37 813.98 233.61 814.14C233.85 814.3 234.164 814.427 234.55 814.52C234.937 814.613 235.364 814.693 235.83 814.76C236.31 814.813 236.784 814.9 237.25 815.02C237.717 815.14 238.144 815.307 238.53 815.52C238.93 815.72 239.25 816.007 239.49 816.38C239.73 816.753 239.85 817.24 239.85 817.84C239.85 818.507 239.65 819.087 239.25 819.58C238.864 820.073 238.31 820.46 237.59 820.74C236.87 821.007 236.01 821.14 235.01 821.14ZM247.023 821.14C245.837 821.14 244.797 820.907 243.903 820.44C243.023 819.96 242.337 819.307 241.843 818.48C241.363 817.653 241.123 816.713 241.123 815.66C241.123 814.593 241.357 813.653 241.823 812.84C242.303 812.013 242.957 811.367 243.783 810.9C244.623 810.433 245.577 810.2 246.643 810.2C247.683 810.2 248.61 810.427 249.423 810.88C250.237 811.333 250.877 811.973 251.343 812.8C251.81 813.627 252.043 814.6 252.043 815.72C252.043 815.827 252.037 815.947 252.023 816.08C252.023 816.213 252.017 816.34 252.003 816.46H243.103V814.8H250.683L249.703 815.32C249.717 814.707 249.59 814.167 249.323 813.7C249.057 813.233 248.69 812.867 248.223 812.6C247.77 812.333 247.243 812.2 246.643 812.2C246.03 812.2 245.49 812.333 245.023 812.6C244.57 812.867 244.21 813.24 243.943 813.72C243.69 814.187 243.563 814.74 243.563 815.38V815.78C243.563 816.42 243.71 816.987 244.003 817.48C244.297 817.973 244.71 818.353 245.243 818.62C245.777 818.887 246.39 819.02 247.083 819.02C247.683 819.02 248.223 818.927 248.703 818.74C249.183 818.553 249.61 818.26 249.983 817.86L251.323 819.4C250.843 819.96 250.237 820.393 249.503 820.7C248.783 820.993 247.957 821.14 247.023 821.14ZM254.445 821V810.32H256.825V813.26L256.545 812.4C256.865 811.68 257.365 811.133 258.045 810.76C258.738 810.387 259.598 810.2 260.625 810.2V812.58C260.518 812.553 260.418 812.54 260.325 812.54C260.231 812.527 260.138 812.52 260.045 812.52C259.098 812.52 258.345 812.8 257.785 813.36C257.225 813.907 256.945 814.727 256.945 815.82V821H254.445ZM265.976 821L261.396 810.32H263.996L267.936 819.74H266.656L270.736 810.32H273.136L268.556 821H265.976ZM279.426 821.14C278.239 821.14 277.199 820.907 276.306 820.44C275.426 819.96 274.739 819.307 274.246 818.48C273.766 817.653 273.526 816.713 273.526 815.66C273.526 814.593 273.759 813.653 274.226 812.84C274.706 812.013 275.359 811.367 276.186 810.9C277.026 810.433 277.979 810.2 279.046 810.2C280.086 810.2 281.012 810.427 281.826 810.88C282.639 811.333 283.279 811.973 283.746 812.8C284.212 813.627 284.446 814.6 284.446 815.72C284.446 815.827 284.439 815.947 284.426 816.08C284.426 816.213 284.419 816.34 284.406 816.46H275.506V814.8H283.086L282.106 815.32C282.119 814.707 281.992 814.167 281.726 813.7C281.459 813.233 281.092 812.867 280.626 812.6C280.172 812.333 279.646 812.2 279.046 812.2C278.432 812.2 277.892 812.333 277.426 812.6C276.972 812.867 276.612 813.24 276.346 813.72C276.092 814.187 275.966 814.74 275.966 815.38V815.78C275.966 816.42 276.112 816.987 276.406 817.48C276.699 817.973 277.112 818.353 277.646 818.62C278.179 818.887 278.792 819.02 279.486 819.02C280.086 819.02 280.626 818.927 281.106 818.74C281.586 818.553 282.012 818.26 282.386 817.86L283.726 819.4C283.246 819.96 282.639 820.393 281.906 820.7C281.186 820.993 280.359 821.14 279.426 821.14ZM291.367 821.14C290.34 821.14 289.414 820.913 288.587 820.46C287.774 819.993 287.134 819.353 286.667 818.54C286.2 817.727 285.967 816.767 285.967 815.66C285.967 814.553 286.2 813.593 286.667 812.78C287.134 811.967 287.774 811.333 288.587 810.88C289.414 810.427 290.34 810.2 291.367 810.2C292.26 810.2 293.06 810.4 293.767 810.8C294.474 811.187 295.034 811.78 295.447 812.58C295.86 813.38 296.067 814.407 296.067 815.66C296.067 816.9 295.867 817.927 295.467 818.74C295.067 819.54 294.514 820.14 293.807 820.54C293.1 820.94 292.287 821.14 291.367 821.14ZM291.667 819C292.267 819 292.8 818.867 293.267 818.6C293.747 818.333 294.127 817.947 294.407 817.44C294.7 816.933 294.847 816.34 294.847 815.66C294.847 814.967 294.7 814.373 294.407 813.88C294.127 813.373 293.747 812.987 293.267 812.72C292.8 812.453 292.267 812.32 291.667 812.32C291.067 812.32 290.527 812.453 290.047 812.72C289.58 812.987 289.2 813.373 288.907 813.88C288.627 814.373 288.487 814.967 288.487 815.66C288.487 816.34 288.627 816.933 288.907 817.44C289.2 817.947 289.58 818.333 290.047 818.6C290.527 818.867 291.067 819 291.667 819ZM294.907 821V818.48L295.007 815.64L294.807 812.8V806.16H297.287V821H294.907Z" fill="white"/>
<path d="M914.04 175L925.32 149.48L927 152.28H911.92L914.8 149.24V156.84H909.04V147H931.48V151.2L921.08 175H914.04ZM936.131 175.32C935.064 175.32 934.144 174.96 933.371 174.24C932.624 173.493 932.251 172.547 932.251 171.4C932.251 170.253 932.624 169.333 933.371 168.64C934.144 167.92 935.064 167.56 936.131 167.56C937.224 167.56 938.144 167.92 938.891 168.64C939.637 169.333 940.011 170.253 940.011 171.4C940.011 172.547 939.637 173.493 938.891 174.24C938.144 174.96 937.224 175.32 936.131 175.32ZM942.599 169.12V164.76L955.799 147H962.599L949.679 164.76L946.519 163.84H968.559V169.12H942.599ZM957.679 175V169.12L957.879 163.84V158.6H963.999V175H957.679ZM973.327 175L992.447 147H997.207L978.087 175H973.327ZM975.767 162.12C974.407 162.12 973.207 161.813 972.167 161.2C971.127 160.56 970.3 159.667 969.687 158.52C969.1 157.347 968.807 155.973 968.807 154.4C968.807 152.827 969.1 151.467 969.687 150.32C970.3 149.173 971.127 148.28 972.167 147.64C973.207 147 974.407 146.68 975.767 146.68C977.127 146.68 978.327 147 979.367 147.64C980.407 148.28 981.22 149.173 981.807 150.32C982.393 151.467 982.687 152.827 982.687 154.4C982.687 155.973 982.393 157.347 981.807 158.52C981.22 159.667 980.407 160.56 979.367 161.2C978.327 161.813 977.127 162.12 975.767 162.12ZM975.767 158.84C976.647 158.84 977.353 158.48 977.887 157.76C978.42 157.013 978.687 155.893 978.687 154.4C978.687 152.907 978.42 151.8 977.887 151.08C977.353 150.333 976.647 149.96 975.767 149.96C974.913 149.96 974.207 150.333 973.647 151.08C973.113 151.8 972.847 152.907 972.847 154.4C972.847 155.867 973.113 156.973 973.647 157.72C974.207 158.467 974.913 158.84 975.767 158.84ZM994.767 175.32C993.433 175.32 992.233 175.013 991.167 174.4C990.127 173.76 989.313 172.867 988.727 171.72C988.14 170.547 987.847 169.173 987.847 167.6C987.847 166.027 988.14 164.667 988.727 163.52C989.313 162.373 990.127 161.48 991.167 160.84C992.233 160.2 993.433 159.88 994.767 159.88C996.153 159.88 997.367 160.2 998.407 160.84C999.447 161.48 1000.26 162.373 1000.85 163.52C1001.43 164.667 1001.73 166.027 1001.73 167.6C1001.73 169.173 1001.43 170.547 1000.85 171.72C1000.26 172.867 999.447 173.76 998.407 174.4C997.367 175.013 996.153 175.32 994.767 175.32ZM994.767 172.04C995.647 172.04 996.353 171.68 996.887 170.96C997.42 170.213 997.687 169.093 997.687 167.6C997.687 166.133 997.42 165.027 996.887 164.28C996.353 163.533 995.647 163.16 994.767 163.16C993.913 163.16 993.207 163.533 992.647 164.28C992.113 165 991.847 166.107 991.847 167.6C991.847 169.093 992.113 170.213 992.647 170.96C993.207 171.68 993.913 172.04 994.767 172.04Z" fill="white"/>
<path d="M904.22 196.2C903.127 196.2 902.08 196.047 901.08 195.74C900.08 195.42 899.287 195.013 898.7 194.52L899.6 192.5C900.16 192.94 900.853 193.307 901.68 193.6C902.507 193.893 903.353 194.04 904.22 194.04C904.953 194.04 905.547 193.96 906 193.8C906.453 193.64 906.787 193.427 907 193.16C907.213 192.88 907.32 192.567 907.32 192.22C907.32 191.793 907.167 191.453 906.86 191.2C906.553 190.933 906.153 190.727 905.66 190.58C905.18 190.42 904.64 190.273 904.04 190.14C903.453 190.007 902.86 189.853 902.26 189.68C901.673 189.493 901.133 189.26 900.64 188.98C900.16 188.687 899.767 188.3 899.46 187.82C899.153 187.34 899 186.727 899 185.98C899 185.22 899.2 184.527 899.6 183.9C900.013 183.26 900.633 182.753 901.46 182.38C902.3 181.993 903.36 181.8 904.64 181.8C905.48 181.8 906.313 181.907 907.14 182.12C907.967 182.333 908.687 182.64 909.3 183.04L908.48 185.06C907.853 184.687 907.207 184.413 906.54 184.24C905.873 184.053 905.233 183.96 904.62 183.96C903.9 183.96 903.313 184.047 902.86 184.22C902.42 184.393 902.093 184.62 901.88 184.9C901.68 185.18 901.58 185.5 901.58 185.86C901.58 186.287 901.727 186.633 902.02 186.9C902.327 187.153 902.72 187.353 903.2 187.5C903.693 187.647 904.24 187.793 904.84 187.94C905.44 188.073 906.033 188.227 906.62 188.4C907.22 188.573 907.76 188.8 908.24 189.08C908.733 189.36 909.127 189.74 909.42 190.22C909.727 190.7 909.88 191.307 909.88 192.04C909.88 192.787 909.673 193.48 909.26 194.12C908.86 194.747 908.24 195.253 907.4 195.64C906.56 196.013 905.5 196.2 904.22 196.2ZM917.238 196.14C916.051 196.14 915.011 195.907 914.118 195.44C913.238 194.96 912.551 194.307 912.058 193.48C911.578 192.653 911.338 191.713 911.338 190.66C911.338 189.593 911.571 188.653 912.038 187.84C912.518 187.013 913.171 186.367 913.998 185.9C914.838 185.433 915.791 185.2 916.858 185.2C917.898 185.2 918.825 185.427 919.638 185.88C920.451 186.333 921.091 186.973 921.558 187.8C922.025 188.627 922.258 189.6 922.258 190.72C922.258 190.827 922.251 190.947 922.238 191.08C922.238 191.213 922.231 191.34 922.218 191.46H913.318V189.8H920.898L919.918 190.32C919.931 189.707 919.805 189.167 919.538 188.7C919.271 188.233 918.905 187.867 918.438 187.6C917.985 187.333 917.458 187.2 916.858 187.2C916.245 187.2 915.705 187.333 915.238 187.6C914.785 187.867 914.425 188.24 914.158 188.72C913.905 189.187 913.778 189.74 913.778 190.38V190.78C913.778 191.42 913.925 191.987 914.218 192.48C914.511 192.973 914.925 193.353 915.458 193.62C915.991 193.887 916.605 194.02 917.298 194.02C917.898 194.02 918.438 193.927 918.918 193.74C919.398 193.553 919.825 193.26 920.198 192.86L921.538 194.4C921.058 194.96 920.451 195.393 919.718 195.7C918.998 195.993 918.171 196.14 917.238 196.14ZM929.68 196.14C928.493 196.14 927.453 195.907 926.56 195.44C925.68 194.96 924.993 194.307 924.5 193.48C924.02 192.653 923.78 191.713 923.78 190.66C923.78 189.593 924.013 188.653 924.48 187.84C924.96 187.013 925.613 186.367 926.44 185.9C927.28 185.433 928.233 185.2 929.3 185.2C930.34 185.2 931.266 185.427 932.08 185.88C932.893 186.333 933.533 186.973 934 187.8C934.466 188.627 934.7 189.6 934.7 190.72C934.7 190.827 934.693 190.947 934.68 191.08C934.68 191.213 934.673 191.34 934.66 191.46H925.76V189.8H933.34L932.36 190.32C932.373 189.707 932.246 189.167 931.98 188.7C931.713 188.233 931.346 187.867 930.88 187.6C930.426 187.333 929.9 187.2 929.3 187.2C928.686 187.2 928.146 187.333 927.68 187.6C927.226 187.867 926.866 188.24 926.6 188.72C926.346 189.187 926.22 189.74 926.22 190.38V190.78C926.22 191.42 926.366 191.987 926.66 192.48C926.953 192.973 927.366 193.353 927.9 193.62C928.433 193.887 929.046 194.02 929.74 194.02C930.34 194.02 930.88 193.927 931.36 193.74C931.84 193.553 932.266 193.26 932.64 192.86L933.98 194.4C933.5 194.96 932.893 195.393 932.16 195.7C931.44 195.993 930.613 196.14 929.68 196.14ZM941.621 196.14C940.594 196.14 939.668 195.913 938.841 195.46C938.028 194.993 937.388 194.353 936.921 193.54C936.454 192.727 936.221 191.767 936.221 190.66C936.221 189.553 936.454 188.593 936.921 187.78C937.388 186.967 938.028 186.333 938.841 185.88C939.668 185.427 940.594 185.2 941.621 185.2C942.514 185.2 943.314 185.4 944.021 185.8C944.728 186.187 945.288 186.78 945.701 187.58C946.114 188.38 946.321 189.407 946.321 190.66C946.321 191.9 946.121 192.927 945.721 193.74C945.321 194.54 944.768 195.14 944.061 195.54C943.354 195.94 942.541 196.14 941.621 196.14ZM941.921 194C942.521 194 943.054 193.867 943.521 193.6C944.001 193.333 944.381 192.947 944.661 192.44C944.954 191.933 945.101 191.34 945.101 190.66C945.101 189.967 944.954 189.373 944.661 188.88C944.381 188.373 944.001 187.987 943.521 187.72C943.054 187.453 942.521 187.32 941.921 187.32C941.321 187.32 940.781 187.453 940.301 187.72C939.834 187.987 939.454 188.373 939.161 188.88C938.881 189.373 938.741 189.967 938.741 190.66C938.741 191.34 938.881 191.933 939.161 192.44C939.454 192.947 939.834 193.333 940.301 193.6C940.781 193.867 941.321 194 941.921 194ZM945.161 196V193.48L945.261 190.64L945.061 187.8V181.16H947.541V196H945.161ZM950.831 196V185.32H953.211V188.26L952.931 187.4C953.251 186.68 953.751 186.133 954.431 185.76C955.125 185.387 955.985 185.2 957.011 185.2V187.58C956.905 187.553 956.805 187.54 956.711 187.54C956.618 187.527 956.525 187.52 956.431 187.52C955.485 187.52 954.731 187.8 954.171 188.36C953.611 188.907 953.331 189.727 953.331 190.82V196H950.831ZM963.835 196.14C962.741 196.14 961.768 195.907 960.915 195.44C960.061 194.96 959.388 194.307 958.895 193.48C958.401 192.653 958.155 191.713 958.155 190.66C958.155 189.593 958.401 188.653 958.895 187.84C959.388 187.013 960.061 186.367 960.915 185.9C961.768 185.433 962.741 185.2 963.835 185.2C964.941 185.2 965.921 185.433 966.775 185.9C967.641 186.367 968.315 187.007 968.795 187.82C969.288 188.633 969.535 189.58 969.535 190.66C969.535 191.713 969.288 192.653 968.795 193.48C968.315 194.307 967.641 194.96 966.775 195.44C965.921 195.907 964.941 196.14 963.835 196.14ZM963.835 194C964.448 194 964.995 193.867 965.475 193.6C965.955 193.333 966.328 192.947 966.595 192.44C966.875 191.933 967.015 191.34 967.015 190.66C967.015 189.967 966.875 189.373 966.595 188.88C966.328 188.373 965.955 187.987 965.475 187.72C964.995 187.453 964.455 187.32 963.855 187.32C963.241 187.32 962.695 187.453 962.215 187.72C961.748 187.987 961.375 188.373 961.095 188.88C960.815 189.373 960.675 189.967 960.675 190.66C960.675 191.34 960.815 191.933 961.095 192.44C961.375 192.947 961.748 193.333 962.215 193.6C962.695 193.867 963.235 194 963.835 194ZM976.445 196.14C975.538 196.14 974.738 195.973 974.045 195.64C973.352 195.293 972.812 194.773 972.425 194.08C972.038 193.373 971.845 192.487 971.845 191.42V185.32H974.345V191.08C974.345 192.04 974.558 192.76 974.985 193.24C975.425 193.707 976.045 193.94 976.845 193.94C977.432 193.94 977.938 193.82 978.365 193.58C978.805 193.34 979.145 192.98 979.385 192.5C979.638 192.02 979.765 191.427 979.765 190.72V185.32H982.265V196H979.885V193.12L980.305 194C979.945 194.693 979.418 195.227 978.725 195.6C978.032 195.96 977.272 196.14 976.445 196.14ZM991.598 185.2C992.452 185.2 993.212 185.367 993.878 185.7C994.558 186.033 995.092 186.547 995.478 187.24C995.865 187.92 996.058 188.8 996.058 189.88V196H993.558V190.2C993.558 189.253 993.332 188.547 992.878 188.08C992.438 187.613 991.818 187.38 991.018 187.38C990.432 187.38 989.912 187.5 989.458 187.74C989.005 187.98 988.652 188.34 988.398 188.82C988.158 189.287 988.038 189.88 988.038 190.6V196H985.538V185.32H987.918V188.2L987.498 187.32C987.872 186.64 988.412 186.12 989.118 185.76C989.838 185.387 990.665 185.2 991.598 185.2ZM1003.77 196.14C1002.74 196.14 1001.82 195.913 1000.99 195.46C1000.18 194.993 999.536 194.353 999.069 193.54C998.603 192.727 998.369 191.767 998.369 190.66C998.369 189.553 998.603 188.593 999.069 187.78C999.536 186.967 1000.18 186.333 1000.99 185.88C1001.82 185.427 1002.74 185.2 1003.77 185.2C1004.66 185.2 1005.46 185.4 1006.17 185.8C1006.88 186.187 1007.44 186.78 1007.85 187.58C1008.26 188.38 1008.47 189.407 1008.47 190.66C1008.47 191.9 1008.27 192.927 1007.87 193.74C1007.47 194.54 1006.92 195.14 1006.21 195.54C1005.5 195.94 1004.69 196.14 1003.77 196.14ZM1004.07 194C1004.67 194 1005.2 193.867 1005.67 193.6C1006.15 193.333 1006.53 192.947 1006.81 192.44C1007.1 191.933 1007.25 191.34 1007.25 190.66C1007.25 189.967 1007.1 189.373 1006.81 188.88C1006.53 188.373 1006.15 187.987 1005.67 187.72C1005.2 187.453 1004.67 187.32 1004.07 187.32C1003.47 187.32 1002.93 187.453 1002.45 187.72C1001.98 187.987 1001.6 188.373 1001.31 188.88C1001.03 189.373 1000.89 189.967 1000.89 190.66C1000.89 191.34 1001.03 191.933 1001.31 192.44C1001.6 192.947 1001.98 193.333 1002.45 193.6C1002.93 193.867 1003.47 194 1004.07 194ZM1007.31 196V193.48L1007.41 190.64L1007.21 187.8V181.16H1009.69V196H1007.31Z" fill="white"/>
<path d="M814.08 92.48C811.52 92.48 809.293 91.9467 807.4 90.88C805.533 89.8133 804.093 88.2533 803.08 86.2C802.067 84.1467 801.56 81.6133 801.56 78.6C801.56 75.3733 802.16 72.64 803.36 70.4C804.587 68.16 806.267 66.4533 808.4 65.28C810.56 64.1067 813.04 63.52 815.84 63.52C817.333 63.52 818.76 63.68 820.12 64C821.48 64.32 822.653 64.8 823.64 65.44L821.24 70.2C820.467 69.6667 819.64 69.3067 818.76 69.12C817.88 68.9067 816.96 68.8 816 68.8C813.573 68.8 811.653 69.5333 810.24 71C808.827 72.4667 808.12 74.64 808.12 77.52C808.12 78 808.12 78.5333 808.12 79.12C808.147 79.7067 808.227 80.2933 808.36 80.88L806.56 79.2C807.067 78.16 807.72 77.2933 808.52 76.6C809.32 75.88 810.267 75.3467 811.36 75C812.48 74.6267 813.707 74.44 815.04 74.44C816.853 74.44 818.48 74.8 819.92 75.52C821.36 76.24 822.507 77.2533 823.36 78.56C824.24 79.8667 824.68 81.4 824.68 83.16C824.68 85.0533 824.2 86.7067 823.24 88.12C822.307 89.5067 821.04 90.5867 819.44 91.36C817.867 92.1067 816.08 92.48 814.08 92.48ZM813.72 87.64C814.627 87.64 815.427 87.48 816.12 87.16C816.84 86.8133 817.4 86.32 817.8 85.68C818.2 85.04 818.4 84.3067 818.4 83.48C818.4 82.2 817.96 81.1867 817.08 80.44C816.227 79.6667 815.08 79.28 813.64 79.28C812.68 79.28 811.84 79.4667 811.12 79.84C810.4 80.1867 809.827 80.68 809.4 81.32C809 81.9333 808.8 82.6533 808.8 83.48C808.8 84.28 809 85 809.4 85.64C809.8 86.2533 810.36 86.7467 811.08 87.12C811.8 87.4667 812.68 87.64 813.72 87.64ZM831.099 92.32C830.033 92.32 829.113 91.96 828.339 91.24C827.593 90.4933 827.219 89.5467 827.219 88.4C827.219 87.2533 827.593 86.3333 828.339 85.64C829.113 84.92 830.033 84.56 831.099 84.56C832.193 84.56 833.113 84.92 833.859 85.64C834.606 86.3333 834.979 87.2533 834.979 88.4C834.979 89.5467 834.606 90.4933 833.859 91.24C833.113 91.96 832.193 92.32 831.099 92.32ZM849.9 92.48C847.34 92.48 845.114 91.9467 843.22 90.88C841.354 89.8133 839.914 88.2533 838.9 86.2C837.887 84.1467 837.38 81.6133 837.38 78.6C837.38 75.3733 837.98 72.64 839.18 70.4C840.407 68.16 842.087 66.4533 844.22 65.28C846.38 64.1067 848.86 63.52 851.66 63.52C853.154 63.52 854.58 63.68 855.94 64C857.3 64.32 858.474 64.8 859.46 65.44L857.06 70.2C856.287 69.6667 855.46 69.3067 854.58 69.12C853.7 68.9067 852.78 68.8 851.82 68.8C849.394 68.8 847.474 69.5333 846.06 71C844.647 72.4667 843.94 74.64 843.94 77.52C843.94 78 843.94 78.5333 843.94 79.12C843.967 79.7067 844.047 80.2933 844.18 80.88L842.38 79.2C842.887 78.16 843.54 77.2933 844.34 76.6C845.14 75.88 846.087 75.3467 847.18 75C848.3 74.6267 849.527 74.44 850.86 74.44C852.674 74.44 854.3 74.8 855.74 75.52C857.18 76.24 858.327 77.2533 859.18 78.56C860.06 79.8667 860.5 81.4 860.5 83.16C860.5 85.0533 860.02 86.7067 859.06 88.12C858.127 89.5067 856.86 90.5867 855.26 91.36C853.687 92.1067 851.9 92.48 849.9 92.48ZM849.54 87.64C850.447 87.64 851.247 87.48 851.94 87.16C852.66 86.8133 853.22 86.32 853.62 85.68C854.02 85.04 854.22 84.3067 854.22 83.48C854.22 82.2 853.78 81.1867 852.9 80.44C852.047 79.6667 850.9 79.28 849.46 79.28C848.5 79.28 847.66 79.4667 846.94 79.84C846.22 80.1867 845.647 80.68 845.22 81.32C844.82 81.9333 844.62 82.6533 844.62 83.48C844.62 84.28 844.82 85 845.22 85.64C845.62 86.2533 846.18 86.7467 846.9 87.12C847.62 87.4667 848.5 87.64 849.54 87.64ZM866.108 92L885.228 64H889.988L870.868 92H866.108ZM868.548 79.12C867.188 79.12 865.988 78.8133 864.948 78.2C863.908 77.56 863.081 76.6667 862.468 75.52C861.881 74.3467 861.588 72.9733 861.588 71.4C861.588 69.8267 861.881 68.4667 862.468 67.32C863.081 66.1733 863.908 65.28 864.948 64.64C865.988 64 867.188 63.68 868.548 63.68C869.908 63.68 871.108 64 872.148 64.64C873.188 65.28 874.001 66.1733 874.588 67.32C875.174 68.4667 875.468 69.8267 875.468 71.4C875.468 72.9733 875.174 74.3467 874.588 75.52C874.001 76.6667 873.188 77.56 872.148 78.2C871.108 78.8133 869.908 79.12 868.548 79.12ZM868.548 75.84C869.428 75.84 870.134 75.48 870.668 74.76C871.201 74.0133 871.468 72.8933 871.468 71.4C871.468 69.9067 871.201 68.8 870.668 68.08C870.134 67.3333 869.428 66.96 868.548 66.96C867.694 66.96 866.988 67.3333 866.428 68.08C865.894 68.8 865.628 69.9067 865.628 71.4C865.628 72.8667 865.894 73.9733 866.428 74.72C866.988 75.4667 867.694 75.84 868.548 75.84ZM887.548 92.32C886.214 92.32 885.014 92.0133 883.948 91.4C882.908 90.76 882.094 89.8667 881.508 88.72C880.921 87.5467 880.628 86.1733 880.628 84.6C880.628 83.0267 880.921 81.6667 881.508 80.52C882.094 79.3733 882.908 78.48 883.948 77.84C885.014 77.2 886.214 76.88 887.548 76.88C888.934 76.88 890.148 77.2 891.188 77.84C892.228 78.48 893.041 79.3733 893.628 80.52C894.214 81.6667 894.508 83.0267 894.508 84.6C894.508 86.1733 894.214 87.5467 893.628 88.72C893.041 89.8667 892.228 90.76 891.188 91.4C890.148 92.0133 888.934 92.32 887.548 92.32ZM887.548 89.04C888.428 89.04 889.134 88.68 889.668 87.96C890.201 87.2133 890.468 86.0933 890.468 84.6C890.468 83.1333 890.201 82.0267 889.668 81.28C889.134 80.5333 888.428 80.16 887.548 80.16C886.694 80.16 885.988 80.5333 885.428 81.28C884.894 82 884.628 83.1067 884.628 84.6C884.628 86.0933 884.894 87.2133 885.428 87.96C885.988 88.68 886.694 89.04 887.548 89.04Z" fill="white"/>
<path d="M792.88 113V99H798.64C799.88 99 800.94 99.2 801.82 99.6C802.713 100 803.4 100.573 803.88 101.32C804.36 102.067 804.6 102.953 804.6 103.98C804.6 105.007 804.36 105.893 803.88 106.64C803.4 107.387 802.713 107.96 801.82 108.36C800.94 108.76 799.88 108.96 798.64 108.96H794.32L795.48 107.74V113H792.88ZM795.48 108.02L794.32 106.76H798.52C799.667 106.76 800.527 106.52 801.1 106.04C801.687 105.547 801.98 104.86 801.98 103.98C801.98 103.087 801.687 102.4 801.1 101.92C800.527 101.44 799.667 101.2 798.52 101.2H794.32L795.48 99.92V108.02ZM811.672 113.14C810.765 113.14 809.965 112.973 809.272 112.64C808.578 112.293 808.038 111.773 807.652 111.08C807.265 110.373 807.072 109.487 807.072 108.42V102.32H809.572V108.08C809.572 109.04 809.785 109.76 810.212 110.24C810.652 110.707 811.272 110.94 812.072 110.94C812.658 110.94 813.165 110.82 813.592 110.58C814.032 110.34 814.372 109.98 814.612 109.5C814.865 109.02 814.992 108.427 814.992 107.72V102.32H817.492V113H815.112V110.12L815.532 111C815.172 111.693 814.645 112.227 813.952 112.6C813.258 112.96 812.498 113.14 811.672 113.14ZM826.685 113.14C825.778 113.14 824.972 112.94 824.265 112.54C823.558 112.14 822.998 111.54 822.585 110.74C822.185 109.927 821.985 108.9 821.985 107.66C821.985 106.407 822.192 105.38 822.605 104.58C823.032 103.78 823.598 103.187 824.305 102.8C825.025 102.4 825.818 102.2 826.685 102.2C827.738 102.2 828.665 102.427 829.465 102.88C830.278 103.333 830.918 103.967 831.385 104.78C831.865 105.593 832.105 106.553 832.105 107.66C832.105 108.767 831.865 109.727 831.385 110.54C830.918 111.353 830.278 111.993 829.465 112.46C828.665 112.913 827.738 113.14 826.685 113.14ZM820.765 113V98.16H823.265V104.8L823.065 107.64L823.145 110.48V113H820.765ZM826.405 111C827.005 111 827.538 110.867 828.005 110.6C828.485 110.333 828.865 109.947 829.145 109.44C829.425 108.933 829.565 108.34 829.565 107.66C829.565 106.967 829.425 106.373 829.145 105.88C828.865 105.373 828.485 104.987 828.005 104.72C827.538 104.453 827.005 104.32 826.405 104.32C825.805 104.32 825.265 104.453 824.785 104.72C824.305 104.987 823.925 105.373 823.645 105.88C823.365 106.373 823.225 106.967 823.225 107.66C823.225 108.34 823.365 108.933 823.645 109.44C823.925 109.947 824.305 110.333 824.785 110.6C825.265 110.867 825.805 111 826.405 111ZM834.476 113V98.16H836.976V113H834.476ZM840.257 113V102.32H842.757V113H840.257ZM841.517 100.56C841.051 100.56 840.664 100.413 840.357 100.12C840.064 99.8267 839.917 99.4733 839.917 99.06C839.917 98.6333 840.064 98.28 840.357 98C840.664 97.7067 841.051 97.56 841.517 97.56C841.984 97.56 842.364 97.7 842.657 97.98C842.964 98.2467 843.117 98.5867 843.117 99C843.117 99.44 842.971 99.8133 842.677 100.12C842.384 100.413 841.997 100.56 841.517 100.56ZM850.938 113.14C849.818 113.14 848.818 112.907 847.938 112.44C847.072 111.96 846.392 111.307 845.898 110.48C845.405 109.653 845.158 108.713 845.158 107.66C845.158 106.593 845.405 105.653 845.898 104.84C846.392 104.013 847.072 103.367 847.938 102.9C848.818 102.433 849.818 102.2 850.938 102.2C851.978 102.2 852.892 102.413 853.678 102.84C854.478 103.253 855.085 103.867 855.498 104.68L853.578 105.8C853.258 105.293 852.865 104.92 852.398 104.68C851.945 104.44 851.452 104.32 850.918 104.32C850.305 104.32 849.752 104.453 849.258 104.72C848.765 104.987 848.378 105.373 848.098 105.88C847.818 106.373 847.678 106.967 847.678 107.66C847.678 108.353 847.818 108.953 848.098 109.46C848.378 109.953 848.765 110.333 849.258 110.6C849.752 110.867 850.305 111 850.918 111C851.452 111 851.945 110.88 852.398 110.64C852.865 110.4 853.258 110.027 853.578 109.52L855.498 110.64C855.085 111.44 854.478 112.06 853.678 112.5C852.892 112.927 851.978 113.14 850.938 113.14ZM867.767 113.2C866.674 113.2 865.627 113.047 864.627 112.74C863.627 112.42 862.834 112.013 862.247 111.52L863.147 109.5C863.707 109.94 864.4 110.307 865.227 110.6C866.054 110.893 866.9 111.04 867.767 111.04C868.5 111.04 869.094 110.96 869.547 110.8C870 110.64 870.334 110.427 870.547 110.16C870.76 109.88 870.867 109.567 870.867 109.22C870.867 108.793 870.714 108.453 870.407 108.2C870.1 107.933 869.7 107.727 869.207 107.58C868.727 107.42 868.187 107.273 867.587 107.14C867 107.007 866.407 106.853 865.807 106.68C865.22 106.493 864.68 106.26 864.187 105.98C863.707 105.687 863.314 105.3 863.007 104.82C862.7 104.34 862.547 103.727 862.547 102.98C862.547 102.22 862.747 101.527 863.147 100.9C863.56 100.26 864.18 99.7533 865.007 99.38C865.847 98.9933 866.907 98.8 868.187 98.8C869.027 98.8 869.86 98.9067 870.687 99.12C871.514 99.3333 872.234 99.64 872.847 100.04L872.027 102.06C871.4 101.687 870.754 101.413 870.087 101.24C869.42 101.053 868.78 100.96 868.167 100.96C867.447 100.96 866.86 101.047 866.407 101.22C865.967 101.393 865.64 101.62 865.427 101.9C865.227 102.18 865.127 102.5 865.127 102.86C865.127 103.287 865.274 103.633 865.567 103.9C865.874 104.153 866.267 104.353 866.747 104.5C867.24 104.647 867.787 104.793 868.387 104.94C868.987 105.073 869.58 105.227 870.167 105.4C870.767 105.573 871.307 105.8 871.787 106.08C872.28 106.36 872.674 106.74 872.967 107.22C873.274 107.7 873.427 108.307 873.427 109.04C873.427 109.787 873.22 110.48 872.807 111.12C872.407 111.747 871.787 112.253 870.947 112.64C870.107 113.013 869.047 113.2 867.767 113.2ZM882.345 113V110.84L882.205 110.38V106.6C882.205 105.867 881.985 105.3 881.545 104.9C881.105 104.487 880.438 104.28 879.545 104.28C878.945 104.28 878.352 104.373 877.765 104.56C877.192 104.747 876.705 105.007 876.305 105.34L875.325 103.52C875.898 103.08 876.578 102.753 877.365 102.54C878.165 102.313 878.992 102.2 879.845 102.2C881.392 102.2 882.585 102.573 883.425 103.32C884.278 104.053 884.705 105.193 884.705 106.74V113H882.345ZM878.985 113.14C878.185 113.14 877.485 113.007 876.885 112.74C876.285 112.46 875.818 112.08 875.485 111.6C875.165 111.107 875.005 110.553 875.005 109.94C875.005 109.34 875.145 108.8 875.425 108.32C875.718 107.84 876.192 107.46 876.845 107.18C877.498 106.9 878.365 106.76 879.445 106.76H882.545V108.42H879.625C878.772 108.42 878.198 108.56 877.905 108.84C877.612 109.107 877.465 109.44 877.465 109.84C877.465 110.293 877.645 110.653 878.005 110.92C878.365 111.187 878.865 111.32 879.505 111.32C880.118 111.32 880.665 111.18 881.145 110.9C881.638 110.62 881.992 110.207 882.205 109.66L882.625 111.16C882.385 111.787 881.952 112.273 881.325 112.62C880.712 112.967 879.932 113.14 878.985 113.14ZM887.913 113V98.16H890.413V113H887.913ZM898.715 113.14C897.528 113.14 896.488 112.907 895.595 112.44C894.715 111.96 894.028 111.307 893.535 110.48C893.055 109.653 892.815 108.713 892.815 107.66C892.815 106.593 893.048 105.653 893.515 104.84C893.995 104.013 894.648 103.367 895.475 102.9C896.315 102.433 897.268 102.2 898.335 102.2C899.375 102.2 900.301 102.427 901.115 102.88C901.928 103.333 902.568 103.973 903.035 104.8C903.501 105.627 903.735 106.6 903.735 107.72C903.735 107.827 903.728 107.947 903.715 108.08C903.715 108.213 903.708 108.34 903.695 108.46H894.795V106.8H902.375L901.395 107.32C901.408 106.707 901.281 106.167 901.015 105.7C900.748 105.233 900.381 104.867 899.915 104.6C899.461 104.333 898.935 104.2 898.335 104.2C897.721 104.2 897.181 104.333 896.715 104.6C896.261 104.867 895.901 105.24 895.635 105.72C895.381 106.187 895.255 106.74 895.255 107.38V107.78C895.255 108.42 895.401 108.987 895.695 109.48C895.988 109.973 896.401 110.353 896.935 110.62C897.468 110.887 898.081 111.02 898.775 111.02C899.375 111.02 899.915 110.927 900.395 110.74C900.875 110.553 901.301 110.26 901.675 109.86L903.015 111.4C902.535 111.96 901.928 112.393 901.195 112.7C900.475 112.993 899.648 113.14 898.715 113.14Z" fill="white"/>
<path d="M670.32 39V34.8L681.12 24.6C681.973 23.8267 682.6 23.1333 683 22.52C683.4 21.9067 683.667 21.3467 683.8 20.84C683.96 20.3333 684.04 19.8667 684.04 19.44C684.04 18.32 683.653 17.4667 682.88 16.88C682.133 16.2667 681.027 15.96 679.56 15.96C678.387 15.96 677.293 16.1867 676.28 16.64C675.293 17.0933 674.453 17.8 673.76 18.76L669.04 15.72C670.107 14.12 671.6 12.8533 673.52 11.92C675.44 10.9867 677.653 10.52 680.16 10.52C682.24 10.52 684.053 10.8667 685.6 11.56C687.173 12.2267 688.387 13.1733 689.24 14.4C690.12 15.6267 690.56 17.0933 690.56 18.8C690.56 19.7067 690.44 20.6133 690.2 21.52C689.987 22.4 689.533 23.3333 688.84 24.32C688.173 25.3067 687.187 26.4133 685.88 27.64L676.92 36.08L675.68 33.72H691.48V39H670.32ZM698.224 39.32C697.158 39.32 696.238 38.96 695.464 38.24C694.718 37.4933 694.344 36.5467 694.344 35.4C694.344 34.2533 694.718 33.3333 695.464 32.64C696.238 31.92 697.158 31.56 698.224 31.56C699.318 31.56 700.238 31.92 700.984 32.64C701.731 33.3333 702.104 34.2533 702.104 35.4C702.104 36.5467 701.731 37.4933 700.984 38.24C700.238 38.96 699.318 39.32 698.224 39.32ZM714.533 39.48C712.586 39.48 710.653 39.2267 708.733 38.72C706.84 38.1867 705.213 37.44 703.853 36.48L706.413 31.52C707.48 32.2933 708.706 32.9067 710.093 33.36C711.506 33.8133 712.933 34.04 714.373 34.04C716 34.04 717.28 33.72 718.213 33.08C719.146 32.44 719.613 31.5467 719.613 30.4C719.613 29.68 719.426 29.04 719.053 28.48C718.68 27.92 718.013 27.4933 717.053 27.2C716.12 26.9067 714.8 26.76 713.093 26.76H705.933L707.373 11H724.453V16.2H709.693L713.053 13.24L712.053 24.48L708.693 21.52H714.613C717.386 21.52 719.613 21.9067 721.293 22.68C723 23.4267 724.24 24.4533 725.013 25.76C725.786 27.0667 726.173 28.5467 726.173 30.2C726.173 31.8533 725.76 33.3867 724.933 34.8C724.106 36.1867 722.826 37.32 721.093 38.2C719.386 39.0533 717.2 39.48 714.533 39.48ZM732.452 39L751.572 11H756.332L737.212 39H732.452ZM734.892 26.12C733.532 26.12 732.332 25.8133 731.292 25.2C730.252 24.56 729.425 23.6667 728.812 22.52C728.225 21.3467 727.932 19.9733 727.932 18.4C727.932 16.8267 728.225 15.4667 728.812 14.32C729.425 13.1733 730.252 12.28 731.292 11.64C732.332 11 733.532 10.68 734.892 10.68C736.252 10.68 737.452 11 738.492 11.64C739.532 12.28 740.345 13.1733 740.932 14.32C741.518 15.4667 741.812 16.8267 741.812 18.4C741.812 19.9733 741.518 21.3467 740.932 22.52C740.345 23.6667 739.532 24.56 738.492 25.2C737.452 25.8133 736.252 26.12 734.892 26.12ZM734.892 22.84C735.772 22.84 736.478 22.48 737.012 21.76C737.545 21.0133 737.812 19.8933 737.812 18.4C737.812 16.9067 737.545 15.8 737.012 15.08C736.478 14.3333 735.772 13.96 734.892 13.96C734.038 13.96 733.332 14.3333 732.772 15.08C732.238 15.8 731.972 16.9067 731.972 18.4C731.972 19.8667 732.238 20.9733 732.772 21.72C733.332 22.4667 734.038 22.84 734.892 22.84ZM753.892 39.32C752.558 39.32 751.358 39.0133 750.292 38.4C749.252 37.76 748.438 36.8667 747.852 35.72C747.265 34.5467 746.972 33.1733 746.972 31.6C746.972 30.0267 747.265 28.6667 747.852 27.52C748.438 26.3733 749.252 25.48 750.292 24.84C751.358 24.2 752.558 23.88 753.892 23.88C755.278 23.88 756.492 24.2 757.532 24.84C758.572 25.48 759.385 26.3733 759.972 27.52C760.558 28.6667 760.852 30.0267 760.852 31.6C760.852 33.1733 760.558 34.5467 759.972 35.72C759.385 36.8667 758.572 37.76 757.532 38.4C756.492 39.0133 755.278 39.32 753.892 39.32ZM753.892 36.04C754.772 36.04 755.478 35.68 756.012 34.96C756.545 34.2133 756.812 33.0933 756.812 31.6C756.812 30.1333 756.545 29.0267 756.012 28.28C755.478 27.5333 754.772 27.16 753.892 27.16C753.038 27.16 752.332 27.5333 751.772 28.28C751.238 29 750.972 30.1067 750.972 31.6C750.972 33.0933 751.238 34.2133 751.772 34.96C752.332 35.68 753.038 36.04 753.892 36.04Z" fill="white"/>
<path d="M656.88 60V46H662.64C663.88 46 664.94 46.2 665.82 46.6C666.713 47 667.4 47.5733 667.88 48.32C668.36 49.0667 668.6 49.9533 668.6 50.98C668.6 52.0067 668.36 52.8933 667.88 53.64C667.4 54.3867 666.713 54.96 665.82 55.36C664.94 55.76 663.88 55.96 662.64 55.96H658.32L659.48 54.74V60H656.88ZM659.48 55.02L658.32 53.76H662.52C663.667 53.76 664.527 53.52 665.1 53.04C665.687 52.5467 665.98 51.86 665.98 50.98C665.98 50.0867 665.687 49.4 665.1 48.92C664.527 48.44 663.667 48.2 662.52 48.2H658.32L659.48 46.92V55.02ZM670.859 60V49.32H673.239V52.26L672.959 51.4C673.279 50.68 673.779 50.1333 674.459 49.76C675.152 49.3867 676.012 49.2 677.039 49.2V51.58C676.932 51.5533 676.832 51.54 676.739 51.54C676.645 51.5267 676.552 51.52 676.459 51.52C675.512 51.52 674.759 51.8 674.199 52.36C673.639 52.9067 673.359 53.7267 673.359 54.82V60H670.859ZM679.16 60V49.32H681.66V60H679.16ZM680.42 47.56C679.953 47.56 679.566 47.4133 679.26 47.12C678.966 46.8267 678.82 46.4733 678.82 46.06C678.82 45.6333 678.966 45.28 679.26 45C679.566 44.7067 679.953 44.56 680.42 44.56C680.886 44.56 681.266 44.7 681.56 44.98C681.866 45.2467 682.02 45.5867 682.02 46C682.02 46.44 681.873 46.8133 681.58 47.12C681.286 47.4133 680.9 47.56 680.42 47.56ZM687.781 60L683.201 49.32H685.801L689.741 58.74H688.461L692.541 49.32H694.941L690.361 60H687.781ZM702.751 60V57.84L702.611 57.38V53.6C702.611 52.8667 702.391 52.3 701.951 51.9C701.511 51.4867 700.845 51.28 699.951 51.28C699.351 51.28 698.758 51.3733 698.171 51.56C697.598 51.7467 697.111 52.0067 696.711 52.34L695.731 50.52C696.305 50.08 696.985 49.7533 697.771 49.54C698.571 49.3133 699.398 49.2 700.251 49.2C701.798 49.2 702.991 49.5733 703.831 50.32C704.685 51.0533 705.111 52.1933 705.111 53.74V60H702.751ZM699.391 60.14C698.591 60.14 697.891 60.0067 697.291 59.74C696.691 59.46 696.225 59.08 695.891 58.6C695.571 58.1067 695.411 57.5533 695.411 56.94C695.411 56.34 695.551 55.8 695.831 55.32C696.125 54.84 696.598 54.46 697.251 54.18C697.905 53.9 698.771 53.76 699.851 53.76H702.951V55.42H700.031C699.178 55.42 698.605 55.56 698.311 55.84C698.018 56.1067 697.871 56.44 697.871 56.84C697.871 57.2933 698.051 57.6533 698.411 57.92C698.771 58.1867 699.271 58.32 699.911 58.32C700.525 58.32 701.071 58.18 701.551 57.9C702.045 57.62 702.398 57.2067 702.611 56.66L703.031 58.16C702.791 58.7867 702.358 59.2733 701.731 59.62C701.118 59.9667 700.338 60.14 699.391 60.14ZM712.34 60.14C711.166 60.14 710.26 59.84 709.62 59.24C708.98 58.6267 708.66 57.7267 708.66 56.54V46.96H711.16V56.48C711.16 56.9867 711.286 57.38 711.54 57.66C711.806 57.94 712.173 58.08 712.64 58.08C713.2 58.08 713.666 57.9333 714.04 57.64L714.74 59.42C714.446 59.66 714.086 59.84 713.66 59.96C713.233 60.08 712.793 60.14 712.34 60.14ZM706.9 51.4V49.4H714.02V51.4H706.9ZM721.465 60.14C720.278 60.14 719.238 59.9067 718.345 59.44C717.465 58.96 716.778 58.3067 716.285 57.48C715.805 56.6533 715.565 55.7133 715.565 54.66C715.565 53.5933 715.798 52.6533 716.265 51.84C716.745 51.0133 717.398 50.3667 718.225 49.9C719.065 49.4333 720.018 49.2 721.085 49.2C722.125 49.2 723.051 49.4267 723.865 49.88C724.678 50.3333 725.318 50.9733 725.785 51.8C726.251 52.6267 726.485 53.6 726.485 54.72C726.485 54.8267 726.478 54.9467 726.465 55.08C726.465 55.2133 726.458 55.34 726.445 55.46H717.545V53.8H725.125L724.145 54.32C724.158 53.7067 724.031 53.1667 723.765 52.7C723.498 52.2333 723.131 51.8667 722.665 51.6C722.211 51.3333 721.685 51.2 721.085 51.2C720.471 51.2 719.931 51.3333 719.465 51.6C719.011 51.8667 718.651 52.24 718.385 52.72C718.131 53.1867 718.005 53.74 718.005 54.38V54.78C718.005 55.42 718.151 55.9867 718.445 56.48C718.738 56.9733 719.151 57.3533 719.685 57.62C720.218 57.8867 720.831 58.02 721.525 58.02C722.125 58.02 722.665 57.9267 723.145 57.74C723.625 57.5533 724.051 57.26 724.425 56.86L725.765 58.4C725.285 58.96 724.678 59.3933 723.945 59.7C723.225 59.9933 722.398 60.14 721.465 60.14ZM738.993 60.2C737.9 60.2 736.853 60.0467 735.853 59.74C734.853 59.42 734.06 59.0133 733.473 58.52L734.373 56.5C734.933 56.94 735.627 57.3067 736.453 57.6C737.28 57.8933 738.127 58.04 738.993 58.04C739.727 58.04 740.32 57.96 740.773 57.8C741.227 57.64 741.56 57.4267 741.773 57.16C741.987 56.88 742.093 56.5667 742.093 56.22C742.093 55.7933 741.94 55.4533 741.633 55.2C741.327 54.9333 740.927 54.7267 740.433 54.58C739.953 54.42 739.413 54.2733 738.813 54.14C738.227 54.0067 737.633 53.8533 737.033 53.68C736.447 53.4933 735.907 53.26 735.413 52.98C734.933 52.6867 734.54 52.3 734.233 51.82C733.927 51.34 733.773 50.7267 733.773 49.98C733.773 49.22 733.973 48.5267 734.373 47.9C734.787 47.26 735.407 46.7533 736.233 46.38C737.073 45.9933 738.133 45.8 739.413 45.8C740.253 45.8 741.087 45.9067 741.913 46.12C742.74 46.3333 743.46 46.64 744.073 47.04L743.253 49.06C742.627 48.6867 741.98 48.4133 741.313 48.24C740.647 48.0533 740.007 47.96 739.393 47.96C738.673 47.96 738.087 48.0467 737.633 48.22C737.193 48.3933 736.867 48.62 736.653 48.9C736.453 49.18 736.353 49.5 736.353 49.86C736.353 50.2867 736.5 50.6333 736.793 50.9C737.1 51.1533 737.493 51.3533 737.973 51.5C738.467 51.6467 739.013 51.7933 739.613 51.94C740.213 52.0733 740.807 52.2267 741.393 52.4C741.993 52.5733 742.533 52.8 743.013 53.08C743.507 53.36 743.9 53.74 744.193 54.22C744.5 54.7 744.653 55.3067 744.653 56.04C744.653 56.7867 744.447 57.48 744.033 58.12C743.633 58.7467 743.013 59.2533 742.173 59.64C741.333 60.0133 740.273 60.2 738.993 60.2ZM753.572 60V57.84L753.432 57.38V53.6C753.432 52.8667 753.212 52.3 752.772 51.9C752.332 51.4867 751.665 51.28 750.772 51.28C750.172 51.28 749.578 51.3733 748.992 51.56C748.418 51.7467 747.932 52.0067 747.532 52.34L746.552 50.52C747.125 50.08 747.805 49.7533 748.592 49.54C749.392 49.3133 750.218 49.2 751.072 49.2C752.618 49.2 753.812 49.5733 754.652 50.32C755.505 51.0533 755.932 52.1933 755.932 53.74V60H753.572ZM750.212 60.14C749.412 60.14 748.712 60.0067 748.112 59.74C747.512 59.46 747.045 59.08 746.712 58.6C746.392 58.1067 746.232 57.5533 746.232 56.94C746.232 56.34 746.372 55.8 746.652 55.32C746.945 54.84 747.418 54.46 748.072 54.18C748.725 53.9 749.592 53.76 750.672 53.76H753.772V55.42H750.852C749.998 55.42 749.425 55.56 749.132 55.84C748.838 56.1067 748.692 56.44 748.692 56.84C748.692 57.2933 748.872 57.6533 749.232 57.92C749.592 58.1867 750.092 58.32 750.732 58.32C751.345 58.32 751.892 58.18 752.372 57.9C752.865 57.62 753.218 57.2067 753.432 56.66L753.852 58.16C753.612 58.7867 753.178 59.2733 752.552 59.62C751.938 59.9667 751.158 60.14 750.212 60.14ZM759.14 60V45.16H761.64V60H759.14ZM769.941 60.14C768.755 60.14 767.715 59.9067 766.821 59.44C765.941 58.96 765.255 58.3067 764.761 57.48C764.281 56.6533 764.041 55.7133 764.041 54.66C764.041 53.5933 764.275 52.6533 764.741 51.84C765.221 51.0133 765.875 50.3667 766.701 49.9C767.541 49.4333 768.495 49.2 769.561 49.2C770.601 49.2 771.528 49.4267 772.341 49.88C773.155 50.3333 773.795 50.9733 774.261 51.8C774.728 52.6267 774.961 53.6 774.961 54.72C774.961 54.8267 774.955 54.9467 774.941 55.08C774.941 55.2133 774.935 55.34 774.921 55.46H766.021V53.8H773.601L772.621 54.32C772.635 53.7067 772.508 53.1667 772.241 52.7C771.975 52.2333 771.608 51.8667 771.141 51.6C770.688 51.3333 770.161 51.2 769.561 51.2C768.948 51.2 768.408 51.3333 767.941 51.6C767.488 51.8667 767.128 52.24 766.861 52.72C766.608 53.1867 766.481 53.74 766.481 54.38V54.78C766.481 55.42 766.628 55.9867 766.921 56.48C767.215 56.9733 767.628 57.3533 768.161 57.62C768.695 57.8867 769.308 58.02 770.001 58.02C770.601 58.02 771.141 57.9267 771.621 57.74C772.101 57.5533 772.528 57.26 772.901 56.86L774.241 58.4C773.761 58.96 773.155 59.3933 772.421 59.7C771.701 59.9933 770.875 60.14 769.941 60.14Z" fill="white"/>
<path d="M270.88 72V46.4L273.68 49.2H265.28V44H277.36V72H270.88ZM285.904 72.32C284.837 72.32 283.917 71.96 283.144 71.24C282.397 70.4933 282.024 69.5467 282.024 68.4C282.024 67.2533 282.397 66.3333 283.144 65.64C283.917 64.92 284.837 64.56 285.904 64.56C286.997 64.56 287.917 64.92 288.664 65.64C289.411 66.3333 289.784 67.2533 289.784 68.4C289.784 69.5467 289.411 70.4933 288.664 71.24C287.917 71.96 286.997 72.32 285.904 72.32ZM302.213 72.48C300.266 72.48 298.333 72.2267 296.413 71.72C294.519 71.1867 292.893 70.44 291.533 69.48L294.093 64.52C295.159 65.2933 296.386 65.9067 297.773 66.36C299.186 66.8133 300.613 67.04 302.053 67.04C303.679 67.04 304.959 66.72 305.893 66.08C306.826 65.44 307.293 64.5467 307.293 63.4C307.293 62.68 307.106 62.04 306.733 61.48C306.359 60.92 305.693 60.4933 304.733 60.2C303.799 59.9067 302.479 59.76 300.773 59.76H293.613L295.053 44H312.133V49.2H297.373L300.733 46.24L299.733 57.48L296.373 54.52H302.293C305.066 54.52 307.293 54.9067 308.973 55.68C310.679 56.4267 311.919 57.4533 312.693 58.76C313.466 60.0667 313.853 61.5467 313.853 63.2C313.853 64.8533 313.439 66.3867 312.613 67.8C311.786 69.1867 310.506 70.32 308.773 71.2C307.066 72.0533 304.879 72.48 302.213 72.48ZM320.131 72L339.251 44H344.011L324.891 72H320.131ZM322.571 59.12C321.211 59.12 320.011 58.8133 318.971 58.2C317.931 57.56 317.105 56.6667 316.491 55.52C315.905 54.3467 315.611 52.9733 315.611 51.4C315.611 49.8267 315.905 48.4667 316.491 47.32C317.105 46.1733 317.931 45.28 318.971 44.64C320.011 44 321.211 43.68 322.571 43.68C323.931 43.68 325.131 44 326.171 44.64C327.211 45.28 328.025 46.1733 328.611 47.32C329.198 48.4667 329.491 49.8267 329.491 51.4C329.491 52.9733 329.198 54.3467 328.611 55.52C328.025 56.6667 327.211 57.56 326.171 58.2C325.131 58.8133 323.931 59.12 322.571 59.12ZM322.571 55.84C323.451 55.84 324.158 55.48 324.691 54.76C325.225 54.0133 325.491 52.8933 325.491 51.4C325.491 49.9067 325.225 48.8 324.691 48.08C324.158 47.3333 323.451 46.96 322.571 46.96C321.718 46.96 321.011 47.3333 320.451 48.08C319.918 48.8 319.651 49.9067 319.651 51.4C319.651 52.8667 319.918 53.9733 320.451 54.72C321.011 55.4667 321.718 55.84 322.571 55.84ZM341.571 72.32C340.238 72.32 339.038 72.0133 337.971 71.4C336.931 70.76 336.118 69.8667 335.531 68.72C334.945 67.5467 334.651 66.1733 334.651 64.6C334.651 63.0267 334.945 61.6667 335.531 60.52C336.118 59.3733 336.931 58.48 337.971 57.84C339.038 57.2 340.238 56.88 341.571 56.88C342.958 56.88 344.171 57.2 345.211 57.84C346.251 58.48 347.065 59.3733 347.651 60.52C348.238 61.6667 348.531 63.0267 348.531 64.6C348.531 66.1733 348.238 67.5467 347.651 68.72C347.065 69.8667 346.251 70.76 345.211 71.4C344.171 72.0133 342.958 72.32 341.571 72.32ZM341.571 69.04C342.451 69.04 343.158 68.68 343.691 67.96C344.225 67.2133 344.491 66.0933 344.491 64.6C344.491 63.1333 344.225 62.0267 343.691 61.28C343.158 60.5333 342.451 60.16 341.571 60.16C340.718 60.16 340.011 60.5333 339.451 61.28C338.918 62 338.651 63.1067 338.651 64.6C338.651 66.0933 338.918 67.2133 339.451 67.96C340.011 68.68 340.718 69.04 341.571 69.04Z" fill="white"/>
<path d="M267.9 93L274.2 79H276.76L283.08 93H280.36L274.94 80.38H275.98L270.58 93H267.9ZM270.8 89.76L271.5 87.72H279.06L279.76 89.76H270.8ZM284.62 93V82.32H287.12V93H284.62ZM285.88 80.56C285.414 80.56 285.027 80.4133 284.72 80.12C284.427 79.8267 284.28 79.4733 284.28 79.06C284.28 78.6333 284.427 78.28 284.72 78C285.027 77.7067 285.414 77.56 285.88 77.56C286.347 77.56 286.727 77.7 287.02 77.98C287.327 78.2467 287.48 78.5867 287.48 79C287.48 79.44 287.334 79.8133 287.04 80.12C286.747 80.4133 286.36 80.56 285.88 80.56ZM290.402 93V82.32H292.782V85.26L292.502 84.4C292.822 83.68 293.322 83.1333 294.002 82.76C294.695 82.3867 295.555 82.2 296.582 82.2V84.58C296.475 84.5533 296.375 84.54 296.282 84.54C296.188 84.5267 296.095 84.52 296.002 84.52C295.055 84.52 294.302 84.8 293.742 85.36C293.182 85.9067 292.902 86.7267 292.902 87.82V93H290.402ZM303.125 93.14C302.098 93.14 301.172 92.9133 300.345 92.46C299.532 91.9933 298.892 91.3533 298.425 90.54C297.958 89.7267 297.725 88.7667 297.725 87.66C297.725 86.5533 297.958 85.5933 298.425 84.78C298.892 83.9667 299.532 83.3333 300.345 82.88C301.172 82.4267 302.098 82.2 303.125 82.2C304.018 82.2 304.818 82.4 305.525 82.8C306.232 83.1867 306.792 83.78 307.205 84.58C307.618 85.38 307.825 86.4067 307.825 87.66C307.825 88.9 307.625 89.9267 307.225 90.74C306.825 91.54 306.272 92.14 305.565 92.54C304.858 92.94 304.045 93.14 303.125 93.14ZM303.425 91C304.025 91 304.558 90.8667 305.025 90.6C305.505 90.3333 305.885 89.9467 306.165 89.44C306.458 88.9333 306.605 88.34 306.605 87.66C306.605 86.9667 306.458 86.3733 306.165 85.88C305.885 85.3733 305.505 84.9867 305.025 84.72C304.558 84.4533 304.025 84.32 303.425 84.32C302.825 84.32 302.285 84.4533 301.805 84.72C301.338 84.9867 300.958 85.3733 300.665 85.88C300.385 86.3733 300.245 86.9667 300.245 87.66C300.245 88.34 300.385 88.9333 300.665 89.44C300.958 89.9467 301.338 90.3333 301.805 90.6C302.285 90.8667 302.825 91 303.425 91ZM306.665 93V90.48L306.765 87.64L306.565 84.8V78.16H309.045V93H306.665ZM312.335 93V82.32H314.715V85.26L314.435 84.4C314.755 83.68 315.255 83.1333 315.935 82.76C316.629 82.3867 317.489 82.2 318.515 82.2V84.58C318.409 84.5533 318.309 84.54 318.215 84.54C318.122 84.5267 318.029 84.52 317.935 84.52C316.989 84.52 316.235 84.8 315.675 85.36C315.115 85.9067 314.835 86.7267 314.835 87.82V93H312.335ZM325.338 93.14C324.245 93.14 323.272 92.9067 322.418 92.44C321.565 91.96 320.892 91.3067 320.398 90.48C319.905 89.6533 319.658 88.7133 319.658 87.66C319.658 86.5933 319.905 85.6533 320.398 84.84C320.892 84.0133 321.565 83.3667 322.418 82.9C323.272 82.4333 324.245 82.2 325.338 82.2C326.445 82.2 327.425 82.4333 328.278 82.9C329.145 83.3667 329.818 84.0067 330.298 84.82C330.792 85.6333 331.038 86.58 331.038 87.66C331.038 88.7133 330.792 89.6533 330.298 90.48C329.818 91.3067 329.145 91.96 328.278 92.44C327.425 92.9067 326.445 93.14 325.338 93.14ZM325.338 91C325.952 91 326.498 90.8667 326.978 90.6C327.458 90.3333 327.832 89.9467 328.098 89.44C328.378 88.9333 328.518 88.34 328.518 87.66C328.518 86.9667 328.378 86.3733 328.098 85.88C327.832 85.3733 327.458 84.9867 326.978 84.72C326.498 84.4533 325.958 84.32 325.358 84.32C324.745 84.32 324.198 84.4533 323.718 84.72C323.252 84.9867 322.878 85.3733 322.598 85.88C322.318 86.3733 322.178 86.9667 322.178 87.66C322.178 88.34 322.318 88.9333 322.598 89.44C322.878 89.9467 323.252 90.3333 323.718 90.6C324.198 90.8667 324.738 91 325.338 91ZM339.349 93.14C338.482 93.14 337.689 92.94 336.969 92.54C336.262 92.14 335.696 91.54 335.269 90.74C334.856 89.9267 334.649 88.9 334.649 87.66C334.649 86.4067 334.849 85.38 335.249 84.58C335.662 83.78 336.222 83.1867 336.929 82.8C337.636 82.4 338.442 82.2 339.349 82.2C340.402 82.2 341.329 82.4267 342.129 82.88C342.942 83.3333 343.582 83.9667 344.049 84.78C344.529 85.5933 344.769 86.5533 344.769 87.66C344.769 88.7667 344.529 89.7333 344.049 90.56C343.582 91.3733 342.942 92.0067 342.129 92.46C341.329 92.9133 340.402 93.14 339.349 93.14ZM333.429 96.88V82.32H335.809V84.84L335.729 87.68L335.929 90.52V96.88H333.429ZM339.069 91C339.669 91 340.202 90.8667 340.669 90.6C341.149 90.3333 341.529 89.9467 341.809 89.44C342.089 88.9333 342.229 88.34 342.229 87.66C342.229 86.9667 342.089 86.3733 341.809 85.88C341.529 85.3733 341.149 84.9867 340.669 84.72C340.202 84.4533 339.669 84.32 339.069 84.32C338.469 84.32 337.929 84.4533 337.449 84.72C336.969 84.9867 336.589 85.3733 336.309 85.88C336.029 86.3733 335.889 86.9667 335.889 87.66C335.889 88.34 336.029 88.9333 336.309 89.44C336.589 89.9467 336.969 90.3333 337.449 90.6C337.929 90.8667 338.469 91 339.069 91Z" fill="white"/>
<path d="M1017.88 417V391.4L1020.68 394.2H1012.28V389H1024.36V417H1017.88ZM1028.98 417V412.8L1039.78 402.6C1040.64 401.827 1041.26 401.133 1041.66 400.52C1042.06 399.907 1042.33 399.347 1042.46 398.84C1042.62 398.333 1042.7 397.867 1042.7 397.44C1042.7 396.32 1042.32 395.467 1041.54 394.88C1040.8 394.267 1039.69 393.96 1038.22 393.96C1037.05 393.96 1035.96 394.187 1034.94 394.64C1033.96 395.093 1033.12 395.8 1032.42 396.76L1027.7 393.72C1028.77 392.12 1030.26 390.853 1032.18 389.92C1034.1 388.987 1036.32 388.52 1038.82 388.52C1040.9 388.52 1042.72 388.867 1044.26 389.56C1045.84 390.227 1047.05 391.173 1047.9 392.4C1048.78 393.627 1049.22 395.093 1049.22 396.8C1049.22 397.707 1049.1 398.613 1048.86 399.52C1048.65 400.4 1048.2 401.333 1047.5 402.32C1046.84 403.307 1045.85 404.413 1044.54 405.64L1035.58 414.08L1034.34 411.72H1050.14V417H1028.98ZM1057.25 417L1076.37 389H1081.13L1062.01 417H1057.25ZM1059.69 404.12C1058.33 404.12 1057.13 403.813 1056.09 403.2C1055.05 402.56 1054.22 401.667 1053.61 400.52C1053.02 399.347 1052.73 397.973 1052.73 396.4C1052.73 394.827 1053.02 393.467 1053.61 392.32C1054.22 391.173 1055.05 390.28 1056.09 389.64C1057.13 389 1058.33 388.68 1059.69 388.68C1061.05 388.68 1062.25 389 1063.29 389.64C1064.33 390.28 1065.14 391.173 1065.73 392.32C1066.32 393.467 1066.61 394.827 1066.61 396.4C1066.61 397.973 1066.32 399.347 1065.73 400.52C1065.14 401.667 1064.33 402.56 1063.29 403.2C1062.25 403.813 1061.05 404.12 1059.69 404.12ZM1059.69 400.84C1060.57 400.84 1061.28 400.48 1061.81 399.76C1062.34 399.013 1062.61 397.893 1062.61 396.4C1062.61 394.907 1062.34 393.8 1061.81 393.08C1061.28 392.333 1060.57 391.96 1059.69 391.96C1058.84 391.96 1058.13 392.333 1057.57 393.08C1057.04 393.8 1056.77 394.907 1056.77 396.4C1056.77 397.867 1057.04 398.973 1057.57 399.72C1058.13 400.467 1058.84 400.84 1059.69 400.84ZM1078.69 417.32C1077.36 417.32 1076.16 417.013 1075.09 416.4C1074.05 415.76 1073.24 414.867 1072.65 413.72C1072.06 412.547 1071.77 411.173 1071.77 409.6C1071.77 408.027 1072.06 406.667 1072.65 405.52C1073.24 404.373 1074.05 403.48 1075.09 402.84C1076.16 402.2 1077.36 401.88 1078.69 401.88C1080.08 401.88 1081.29 402.2 1082.33 402.84C1083.37 403.48 1084.18 404.373 1084.77 405.52C1085.36 406.667 1085.65 408.027 1085.65 409.6C1085.65 411.173 1085.36 412.547 1084.77 413.72C1084.18 414.867 1083.37 415.76 1082.33 416.4C1081.29 417.013 1080.08 417.32 1078.69 417.32ZM1078.69 414.04C1079.57 414.04 1080.28 413.68 1080.81 412.96C1081.34 412.213 1081.61 411.093 1081.61 409.6C1081.61 408.133 1081.34 407.027 1080.81 406.28C1080.28 405.533 1079.57 405.16 1078.69 405.16C1077.84 405.16 1077.13 405.533 1076.57 406.28C1076.04 407 1075.77 408.107 1075.77 409.6C1075.77 411.093 1076.04 412.213 1076.57 412.96C1077.13 413.68 1077.84 414.04 1078.69 414.04Z" fill="white"/>
<path d="M1025.72 438V426.2H1021.08V424H1032.96V426.2H1028.32V438H1025.72ZM1038.6 438.14C1037.41 438.14 1036.37 437.907 1035.48 437.44C1034.6 436.96 1033.91 436.307 1033.42 435.48C1032.94 434.653 1032.7 433.713 1032.7 432.66C1032.7 431.593 1032.93 430.653 1033.4 429.84C1033.88 429.013 1034.53 428.367 1035.36 427.9C1036.2 427.433 1037.15 427.2 1038.22 427.2C1039.26 427.2 1040.18 427.427 1041 427.88C1041.81 428.333 1042.45 428.973 1042.92 429.8C1043.38 430.627 1043.62 431.6 1043.62 432.72C1043.62 432.827 1043.61 432.947 1043.6 433.08C1043.6 433.213 1043.59 433.34 1043.58 433.46H1034.68V431.8H1042.26L1041.28 432.32C1041.29 431.707 1041.16 431.167 1040.9 430.7C1040.63 430.233 1040.26 429.867 1039.8 429.6C1039.34 429.333 1038.82 429.2 1038.22 429.2C1037.6 429.2 1037.06 429.333 1036.6 429.6C1036.14 429.867 1035.78 430.24 1035.52 430.72C1035.26 431.187 1035.14 431.74 1035.14 432.38V432.78C1035.14 433.42 1035.28 433.987 1035.58 434.48C1035.87 434.973 1036.28 435.353 1036.82 435.62C1037.35 435.887 1037.96 436.02 1038.66 436.02C1039.26 436.02 1039.8 435.927 1040.28 435.74C1040.76 435.553 1041.18 435.26 1041.56 434.86L1042.9 436.4C1042.42 436.96 1041.81 437.393 1041.08 437.7C1040.36 437.993 1039.53 438.14 1038.6 438.14ZM1052.31 438V435.84L1052.17 435.38V431.6C1052.17 430.867 1051.95 430.3 1051.51 429.9C1051.07 429.487 1050.4 429.28 1049.51 429.28C1048.91 429.28 1048.31 429.373 1047.73 429.56C1047.15 429.747 1046.67 430.007 1046.27 430.34L1045.29 428.52C1045.86 428.08 1046.54 427.753 1047.33 427.54C1048.13 427.313 1048.95 427.2 1049.81 427.2C1051.35 427.2 1052.55 427.573 1053.39 428.32C1054.24 429.053 1054.67 430.193 1054.67 431.74V438H1052.31ZM1048.95 438.14C1048.15 438.14 1047.45 438.007 1046.85 437.74C1046.25 437.46 1045.78 437.08 1045.45 436.6C1045.13 436.107 1044.97 435.553 1044.97 434.94C1044.97 434.34 1045.11 433.8 1045.39 433.32C1045.68 432.84 1046.15 432.46 1046.81 432.18C1047.46 431.9 1048.33 431.76 1049.41 431.76H1052.51V433.42H1049.59C1048.73 433.42 1048.16 433.56 1047.87 433.84C1047.57 434.107 1047.43 434.44 1047.43 434.84C1047.43 435.293 1047.61 435.653 1047.97 435.92C1048.33 436.187 1048.83 436.32 1049.47 436.32C1050.08 436.32 1050.63 436.18 1051.11 435.9C1051.6 435.62 1051.95 435.207 1052.17 434.66L1052.59 436.16C1052.35 436.787 1051.91 437.273 1051.29 437.62C1050.67 437.967 1049.89 438.14 1048.95 438.14ZM1071.35 427.2C1072.21 427.2 1072.96 427.367 1073.61 427.7C1074.28 428.033 1074.8 428.547 1075.17 429.24C1075.55 429.92 1075.73 430.8 1075.73 431.88V438H1073.23V432.2C1073.23 431.253 1073.03 430.547 1072.61 430.08C1072.2 429.613 1071.61 429.38 1070.83 429.38C1070.29 429.38 1069.8 429.5 1069.37 429.74C1068.96 429.98 1068.63 430.333 1068.39 430.8C1068.17 431.267 1068.05 431.86 1068.05 432.58V438H1065.55V432.2C1065.55 431.253 1065.35 430.547 1064.93 430.08C1064.52 429.613 1063.93 429.38 1063.15 429.38C1062.61 429.38 1062.12 429.5 1061.69 429.74C1061.28 429.98 1060.95 430.333 1060.71 430.8C1060.49 431.267 1060.37 431.86 1060.37 432.58V438H1057.87V427.32H1060.25V430.16L1059.83 429.32C1060.19 428.627 1060.71 428.1 1061.39 427.74C1062.09 427.38 1062.87 427.2 1063.75 427.2C1064.75 427.2 1065.62 427.447 1066.35 427.94C1067.1 428.433 1067.59 429.18 1067.83 430.18L1066.85 429.84C1067.2 429.04 1067.77 428.4 1068.57 427.92C1069.37 427.44 1070.3 427.2 1071.35 427.2Z" fill="white"/>
<path d="M921.88 718V692.4L924.68 695.2H916.28V690H928.36V718H921.88ZM942.744 718.48C940.797 718.48 938.864 718.227 936.944 717.72C935.051 717.187 933.424 716.44 932.064 715.48L934.624 710.52C935.691 711.293 936.917 711.907 938.304 712.36C939.717 712.813 941.144 713.04 942.584 713.04C944.211 713.04 945.491 712.72 946.424 712.08C947.357 711.44 947.824 710.547 947.824 709.4C947.824 708.68 947.637 708.04 947.264 707.48C946.891 706.92 946.224 706.493 945.264 706.2C944.331 705.907 943.011 705.76 941.304 705.76H934.144L935.584 690H952.664V695.2H937.904L941.264 692.24L940.264 703.48L936.904 700.52H942.824C945.597 700.52 947.824 700.907 949.504 701.68C951.211 702.427 952.451 703.453 953.224 704.76C953.997 706.067 954.384 707.547 954.384 709.2C954.384 710.853 953.971 712.387 953.144 713.8C952.317 715.187 951.037 716.32 949.304 717.2C947.597 718.053 945.411 718.48 942.744 718.48ZM960.663 718L979.783 690H984.543L965.423 718H960.663ZM963.103 705.12C961.743 705.12 960.543 704.813 959.503 704.2C958.463 703.56 957.636 702.667 957.023 701.52C956.436 700.347 956.143 698.973 956.143 697.4C956.143 695.827 956.436 694.467 957.023 693.32C957.636 692.173 958.463 691.28 959.503 690.64C960.543 690 961.743 689.68 963.103 689.68C964.463 689.68 965.663 690 966.703 690.64C967.743 691.28 968.556 692.173 969.143 693.32C969.729 694.467 970.023 695.827 970.023 697.4C970.023 698.973 969.729 700.347 969.143 701.52C968.556 702.667 967.743 703.56 966.703 704.2C965.663 704.813 964.463 705.12 963.103 705.12ZM963.103 701.84C963.983 701.84 964.689 701.48 965.223 700.76C965.756 700.013 966.023 698.893 966.023 697.4C966.023 695.907 965.756 694.8 965.223 694.08C964.689 693.333 963.983 692.96 963.103 692.96C962.249 692.96 961.543 693.333 960.983 694.08C960.449 694.8 960.183 695.907 960.183 697.4C960.183 698.867 960.449 699.973 960.983 700.72C961.543 701.467 962.249 701.84 963.103 701.84ZM982.103 718.32C980.769 718.32 979.569 718.013 978.503 717.4C977.463 716.76 976.649 715.867 976.063 714.72C975.476 713.547 975.183 712.173 975.183 710.6C975.183 709.027 975.476 707.667 976.063 706.52C976.649 705.373 977.463 704.48 978.503 703.84C979.569 703.2 980.769 702.88 982.103 702.88C983.489 702.88 984.703 703.2 985.743 703.84C986.783 704.48 987.596 705.373 988.183 706.52C988.769 707.667 989.063 709.027 989.063 710.6C989.063 712.173 988.769 713.547 988.183 714.72C987.596 715.867 986.783 716.76 985.743 717.4C984.703 718.013 983.489 718.32 982.103 718.32ZM982.103 715.04C982.983 715.04 983.689 714.68 984.223 713.96C984.756 713.213 985.023 712.093 985.023 710.6C985.023 709.133 984.756 708.027 984.223 707.28C983.689 706.533 982.983 706.16 982.103 706.16C981.249 706.16 980.543 706.533 979.983 707.28C979.449 708 979.183 709.107 979.183 710.6C979.183 712.093 979.449 713.213 979.983 713.96C980.543 714.68 981.249 715.04 982.103 715.04Z" fill="white"/>
<path d="M930.26 731.44H937.24V733.64H930.26V731.44ZM930.48 739H927.88V725H938.1V727.18H930.48V739ZM944.601 739.14C943.695 739.14 942.895 738.973 942.201 738.64C941.508 738.293 940.968 737.773 940.581 737.08C940.195 736.373 940.001 735.487 940.001 734.42V728.32H942.501V734.08C942.501 735.04 942.715 735.76 943.141 736.24C943.581 736.707 944.201 736.94 945.001 736.94C945.588 736.94 946.095 736.82 946.521 736.58C946.961 736.34 947.301 735.98 947.541 735.5C947.795 735.02 947.921 734.427 947.921 733.72V728.32H950.421V739H948.041V736.12L948.461 737C948.101 737.693 947.575 738.227 946.881 738.6C946.188 738.96 945.428 739.14 944.601 739.14ZM959.755 728.2C960.608 728.2 961.368 728.367 962.035 728.7C962.715 729.033 963.248 729.547 963.635 730.24C964.021 730.92 964.215 731.8 964.215 732.88V739H961.715V733.2C961.715 732.253 961.488 731.547 961.035 731.08C960.595 730.613 959.975 730.38 959.175 730.38C958.588 730.38 958.068 730.5 957.615 730.74C957.161 730.98 956.808 731.34 956.555 731.82C956.315 732.287 956.195 732.88 956.195 733.6V739H953.695V728.32H956.075V731.2L955.655 730.32C956.028 729.64 956.568 729.12 957.275 728.76C957.995 728.387 958.821 728.2 959.755 728.2ZM971.926 739.14C970.899 739.14 969.972 738.913 969.146 738.46C968.332 737.993 967.692 737.353 967.226 736.54C966.759 735.727 966.526 734.767 966.526 733.66C966.526 732.553 966.759 731.593 967.226 730.78C967.692 729.967 968.332 729.333 969.146 728.88C969.972 728.427 970.899 728.2 971.926 728.2C972.819 728.2 973.619 728.4 974.326 728.8C975.032 729.187 975.592 729.78 976.006 730.58C976.419 731.38 976.626 732.407 976.626 733.66C976.626 734.9 976.426 735.927 976.026 736.74C975.626 737.54 975.072 738.14 974.366 738.54C973.659 738.94 972.846 739.14 971.926 739.14ZM972.226 737C972.826 737 973.359 736.867 973.826 736.6C974.306 736.333 974.686 735.947 974.966 735.44C975.259 734.933 975.406 734.34 975.406 733.66C975.406 732.967 975.259 732.373 974.966 731.88C974.686 731.373 974.306 730.987 973.826 730.72C973.359 730.453 972.826 730.32 972.226 730.32C971.626 730.32 971.086 730.453 970.606 730.72C970.139 730.987 969.759 731.373 969.466 731.88C969.186 732.373 969.046 732.967 969.046 733.66C969.046 734.34 969.186 734.933 969.466 735.44C969.759 735.947 970.139 736.333 970.606 736.6C971.086 736.867 971.626 737 972.226 737ZM975.466 739V736.48L975.566 733.64L975.366 730.8V724.16H977.846V739H975.466Z" fill="white"/>
<defs>
<linearGradient id="paint0_linear_2_373" x1="438.5" y1="125.5" x2="543.45" y2="479.722" gradientUnits="userSpaceOnUse">
<stop stop-color="#E200E8"/>
<stop offset="1" stop-color="#FA5454"/>
</linearGradient>
<linearGradient id="paint1_linear_2_373" x1="250" y1="590" x2="530.71" y2="543.884" gradientUnits="userSpaceOnUse">
<stop stop-color="#54D6FF"/>
<stop offset="0.546875" stop-color="#C275FF"/>
<stop offset="1" stop-color="#F36AFF"/>
</linearGradient>
<linearGradient id="paint2_linear_2_373" x1="838.5" y1="510.5" x2="701" y2="726" gradientUnits="userSpaceOnUse">
<stop stop-color="#B2FF0F"/>
<stop offset="1" stop-color="#76FFEF"/>
</linearGradient>
<linearGradient id="paint3_linear_2_373" x1="840" y1="265.5" x2="874" y2="502.5" gradientUnits="userSpaceOnUse">
<stop stop-color="#FF6C56"/>
<stop offset="1" stop-color="#FF9344"/>
</linearGradient>
<linearGradient id="paint4_linear_2_373" x1="300.463" y1="161.252" x2="718.928" y2="734.125" gradientUnits="userSpaceOnUse">
<stop stop-color="#FFB78F"/>
<stop offset="1" stop-color="#DB73FF"/>
</linearGradient>
<linearGradient id="paint5_linear_2_373" x1="579.5" y1="171" x2="641.023" y2="93.7508" gradientUnits="userSpaceOnUse">
<stop stop-color="#FE8686"/>
<stop offset="1" stop-color="#905BFF"/>
</linearGradient>
<linearGradient id="paint6_linear_2_373" x1="520.5" y1="93" x2="563" y2="156" gradientUnits="userSpaceOnUse">
<stop stop-color="#7673FF"/>
<stop offset="1" stop-color="#42F4FF"/>
</linearGradient>
<linearGradient id="paint7_linear_2_373" x1="473" y1="93" x2="507" y2="148" gradientUnits="userSpaceOnUse">
<stop stop-color="#FB2000"/>
<stop offset="1" stop-color="#FF7C1E"/>
</linearGradient>
</defs>
</svg>
