<?xml version="1.0" encoding="utf-8"?><svg xmlns="http://www.w3.org/2000/svg" xmlns:xlink="http://www.w3.org/1999/xlink"><symbol fill="none" viewBox="0 0 19 19" id="Instagram" xmlns="http://www.w3.org/2000/svg"><path fill-rule="evenodd" clip-rule="evenodd" d="M4.936.036C3.08.243 1.43 1.406.577 3.11A5.668 5.668 0 0 0 .04 4.977c-.053.492-.053 8.548 0 9.04a5.559 5.559 0 0 0 4.94 4.943c.493.053 8.547.053 9.04 0a5.463 5.463 0 0 0 3.305-1.568 5.488 5.488 0 0 0 1.635-3.374c.053-.493.053-8.549 0-9.041a5.466 5.466 0 0 0-1.567-3.307A5.485 5.485 0 0 0 14.019.035c-.433-.047-8.66-.046-9.083.001zm9.424.79c.754.18 1.365.453 1.934.863.756.545 1.434 1.484 1.715 2.375.242.767.23.467.23 5.433 0 4.209-.005 4.53-.068 4.82-.099.46-.238.877-.405 1.212-.695 1.394-1.883 2.305-3.447 2.642-.29.063-.612.067-4.819.067s-4.53-.004-4.82-.067c-1.034-.223-1.897-.69-2.576-1.397C1.457 16.102 1.04 15.3.83 14.318c-.063-.29-.067-.612-.067-4.82 0-4.21.004-4.531.067-4.821.211-.982.628-1.784 1.275-2.457A4.914 4.914 0 0 1 4.96.78C5.1.76 7.19.75 9.648.752c4.117.007 4.454.012 4.712.074zm-9.43.858A3.896 3.896 0 0 0 2.866 2.72a3.888 3.888 0 0 0-1.178 2.23c-.08.496-.08 8.596 0 9.093a3.938 3.938 0 0 0 2.603 3.101c.57.194.856.22 2.323.22H7.94l.12-.107c.163-.145.17-.362.02-.514l-.103-.102-1.474-.02-1.474-.021-.334-.102c-1.08-.33-1.857-1.106-2.196-2.195l-.105-.334V5.025L2.5 4.69c.339-1.088 1.108-1.858 2.196-2.197l.334-.105h8.942l.334.105c1.088.34 1.857 1.109 2.197 2.197l.104.334v8.945l-.105.334c-.34 1.088-1.115 1.864-2.196 2.195l-.334.102-1.391.012c-.765.006-1.43.02-1.478.031a.431.431 0 0 0-.177.116c-.16.173-.1.451.122.564.13.067 2.577.056 2.998-.013a3.935 3.935 0 0 0 3.267-3.267c.08-.497.08-8.597 0-9.094a3.935 3.935 0 0 0-3.267-3.267c-.462-.075-8.668-.074-9.116.001zm8.997 1.608c-.987.35-1.278 1.59-.545 2.322.692.692 1.847.477 2.273-.422.084-.176.097-.254.097-.557 0-.317-.011-.377-.115-.594a1.373 1.373 0 0 0-1.22-.807 1.236 1.236 0 0 0-.49.058zm.704.726c.592.253.49 1.134-.146 1.265-.408.084-.856-.364-.772-.772a.76.76 0 0 1 .342-.467.73.73 0 0 1 .576-.026zm-5.576.383c-.73.058-1.92.454-2.041.68a.366.366 0 0 0 .071.453c.15.133.239.13.608-.022.729-.299 1.075-.37 1.807-.373.541-.002.923.052 1.332.188a4.432 4.432 0 0 1 2.96 3.317c.091.43.092 1.274 0 1.703-.375 1.757-1.685 3.069-3.439 3.443-.433.092-1.273.092-1.706 0a4.432 4.432 0 0 1-3.316-2.96c-.137-.411-.19-.79-.188-1.333.003-.763.107-1.205.471-2.017.11-.241.126-.31.098-.407a.348.348 0 0 0-.316-.273c-.202-.027-.3.062-.49.444-.964 1.949-.565 4.322.99 5.87a5.082 5.082 0 0 0 7.208 0 5.089 5.089 0 0 0 0-7.233 5.078 5.078 0 0 0-4.05-1.48zM6.06 5.72a.4.4 0 0 0-.141.166c-.142.299.127.6.443.495.374-.123.302-.71-.086-.703a.632.632 0 0 0-.216.042zm2.836.494a3.381 3.381 0 0 0-2.385 1.818c-.258.528-.325.83-.325 1.466 0 .438.015.594.08.835.254.93.916 1.737 1.768 2.155.528.258.83.325 1.466.325s.938-.067 1.466-.325a3.434 3.434 0 0 0 1.767-2.155c.066-.241.081-.397.081-.835 0-.636-.067-.938-.325-1.466a3.418 3.418 0 0 0-2.154-1.764c-.393-.103-1.05-.128-1.439-.054zm1.116.744c.162.033.438.131.638.227.3.144.4.218.674.494.268.27.35.382.49.672.374.778.374 1.517 0 2.294-.14.29-.222.403-.49.673-.273.275-.374.35-.674.493-.783.377-1.517.377-2.3 0-.3-.144-.4-.218-.674-.493-.268-.27-.35-.382-.49-.673a2.718 2.718 0 0 1-.283-1.147c0-.36.1-.767.284-1.147.14-.29.221-.402.489-.672.273-.276.374-.35.674-.494.568-.273 1.085-.344 1.662-.227zm-.642 9.7a.362.362 0 0 0-.12.587.303.303 0 0 0 .25.102c.431 0 .482-.631.056-.702a.4.4 0 0 0-.186.013z" fill="#fff"/></symbol><symbol fill="none" viewBox="0 0 19 19" id="LinkedIn" xmlns="http://www.w3.org/2000/svg"><path fill-rule="evenodd" clip-rule="evenodd" d="M.751.07a1.078 1.078 0 0 0-.719.8c-.029.135-.037 2.633-.03 8.742l.012 8.553.078.169c.115.247.29.427.529.544l.21.103 6.707.01c5.005.008 6.733 0 6.81-.033a.397.397 0 0 0 .212-.33.405.405 0 0 0-.203-.326c-.075-.034-1.663-.044-6.711-.044-7.193 0-6.764.013-6.863-.203C.72 17.914.72 1.088.783.947.86.781.987.744 1.478.744c.492 0 .612-.033.694-.19.1-.193.03-.425-.15-.508C1.862-.026.984-.01.752.071zM3.158.055c-.322.178-.187.69.182.69.188 0 .371-.181.371-.367a.374.374 0 0 0-.553-.323zm1.486 0c-.249.138-.24.53.013.646.075.034 1.662.044 6.708.044 5.045 0 6.633.01 6.707.044.217.1.204-.496.204 8.713s.013 8.614-.204 8.713c-.058.026-.277.044-.543.044-.491 0-.62.037-.695.203a.353.353 0 0 0 .01.35c.087.169.214.198.807.183.493-.012.547-.02.743-.116a1.1 1.1 0 0 0 .528-.544l.078-.169V.837l-.104-.211a1.099 1.099 0 0 0-.544-.527l-.17-.079-6.724-.008c-5.54-.006-6.74 0-6.814.041zM4.166 2.69a1.992 1.992 0 0 0-1.473 1.391c-.077.262-.077.782 0 1.044.315 1.072 1.457 1.687 2.48 1.335.34-.116.519-.228.772-.48.62-.62.759-1.492.362-2.277-.137-.271-.532-.683-.774-.806-.445-.227-.945-.302-1.367-.207zm.946.838c.252.124.445.32.577.59.118.24.117.726-.003.972a1.23 1.23 0 0 1-.59.596 1.165 1.165 0 0 1-1.38-.237c-.227-.23-.317-.44-.333-.78-.017-.338.046-.556.225-.79a1.185 1.185 0 0 1 1.504-.35zm6.996 3.282c-.527.118-.924.282-1.31.543a1.79 1.79 0 0 1-.232.144c-.01 0-.019-.051-.019-.115 0-.16-.098-.35-.207-.4-.123-.055-2.849-.059-2.953-.003-.19.102-.183-.085-.183 4.69v4.436l.108.12.108.122 1.47.01c1.589.012 1.629.008 1.74-.187.037-.064.052-.69.066-2.81l.019-2.727.11-.198c.13-.236.265-.357.536-.481.527-.242 1.162-.01 1.446.528l.1.188.018 2.736.019 2.735.103.103.103.103 1.466.01c1.584.012 1.625.008 1.736-.187.037-.065.047-.725.047-3.144 0-2.826-.005-3.085-.068-3.376a3.647 3.647 0 0 0-2.57-2.767c-.42-.124-1.258-.161-1.653-.073zm-9.149.239-.121.108v4.465c0 3.56.01 4.482.048 4.548.11.194.15.199 1.739.187l1.47-.01.108-.121.109-.121v-4.436c0-4.775.007-4.588-.184-4.69-.045-.025-.61-.038-1.56-.038H3.082l-.122.108zm10.69.576c.777.263 1.348.752 1.693 1.45.303.61.296.517.296 3.716v2.832h-1.97v-2.42c0-2.659-.003-2.692-.225-3.107a1.953 1.953 0 0 0-1.075-.895c-.33-.104-.829-.103-1.13.002-.6.207-1.02.629-1.22 1.223-.08.24-.081.286-.094 2.72l-.013 2.477H7.947v-7.94h1.857v.428c0 .502.042.619.24.685a.424.424 0 0 0 .212.017c.045-.014.25-.195.456-.403.383-.385.625-.553 1.028-.716.387-.156.642-.197 1.148-.183.386.01.515.03.762.114zm-8.08 4.028v3.97H3.6v-7.94h1.969v3.97zm9.924 6.657c-.322.178-.187.69.182.69.188 0 .371-.181.371-.367a.374.374 0 0 0-.553-.323z" fill="#fff"/></symbol><symbol fill="none" viewBox="0 0 19 19" id="Telegram" xmlns="http://www.w3.org/2000/svg"><path fill-rule="evenodd" clip-rule="evenodd" d="M17.808.072C17.17.312.416 7.73.329 7.81c-.487.447-.423 1.333.12 1.65.076.045 1.038.465 2.138.933 1.099.468 2.003.856 2.009.863.005.006.363 1.309.795 2.894.431 1.585.815 2.95.852 3.033.215.484.722.682 1.135.443.1-.058.719-.605 1.373-1.214.655-.61 1.23-1.126 1.28-1.147.065-.029.125-.019.223.037.074.042 1.046.833 2.16 1.756 1.116.924 2.097 1.732 2.182 1.796a.85.85 0 0 0 .705.114c.198-.06.473-.339.549-.554.033-.093.763-4.033 1.624-8.755C19.206.157 19.106.816 18.87.425c-.237-.393-.62-.52-1.063-.353zm.437.916c.014.165-3.06 17.029-3.117 17.108-.025.034-.057.061-.072.061-.015 0-1.018-.821-2.23-1.825-2.39-1.98-2.402-1.988-2.81-1.94a1.172 1.172 0 0 0-.356.112c-.09.05-.717.606-1.392 1.235a55.781 55.781 0 0 1-1.246 1.144c-.08-.002-.204-.413-.925-3.057a202.89 202.89 0 0 0-.859-3.1.415.415 0 0 0-.112-.156c-.037-.027-1.02-.453-2.182-.947C1.781 9.129.81 8.694.784 8.657c-.039-.055-.037-.08.01-.133C.862 8.446 18.098.841 18.179.853c.033.005.06.06.066.135zM14.347 3.8c-.377.222-7.923 5.56-8.044 5.691a1.38 1.38 0 0 0-.35.855c-.017.255.017.418.44 2.12.49 1.972.516 2.043.779 2.167.149.07.412.033.549-.078.179-.146.227-.33.346-1.332.145-1.227.172-1.33.416-1.62.107-.126 1.622-1.742 3.367-3.59 1.745-1.85 3.188-3.409 3.207-3.467.175-.525-.277-1-.71-.746zM12.47 6.182c-.061.068-1.09 1.158-2.287 2.423-1.196 1.264-2.249 2.398-2.34 2.52-.252.34-.364.664-.44 1.28-.035.292-.074.531-.085.531-.011 0-.16-.554-.328-1.232-.33-1.318-.337-1.393-.168-1.574.079-.084 5.69-4.06 5.74-4.068.01 0-.031.053-.092.12zm3.118 3.247c-.121.117-.198.365-.198.643 0 .345.401.543.612.302.18-.205.227-.71.085-.897a.327.327 0 0 0-.499-.048zm-.398 2.032c-.116.135-.13.195-.554 2.43-.24 1.261-.436 2.365-.436 2.455 0 .359.388.55.607.3a.604.604 0 0 0 .115-.18c.01-.039.213-1.103.453-2.365.479-2.527.48-2.544.264-2.695-.177-.123-.31-.106-.45.055z" fill="#fff"/></symbol><symbol fill="none" viewBox="0 0 21 19" id="Twitter" xmlns="http://www.w3.org/2000/svg"><path fill-rule="evenodd" clip-rule="evenodd" d="M13.83.043c-.973.122-1.987.683-2.7 1.495-.376.426-.568.73-.817 1.287-.314.705-.43 1.232-.458 2.077l-.023.67-.23-.029a24.826 24.826 0 0 1-1.546-.31c-.396-.095-.591.036-.603.404-.01.272.147.394.692.537.642.17 1.478.302 1.974.313.428.01.43.01.534-.123.094-.12.101-.157.078-.408-.062-.68-.072-1.246-.027-1.567a4.43 4.43 0 0 1 .925-2.118c.806-.973 2.042-1.492 3.17-1.33.844.12 1.456.426 2.092 1.045.158.153.33.302.38.329.13.069.532-.022 1.243-.28.316-.115.576-.196.576-.18 0 .07-.509.63-.74.812-.427.337-.489.405-.516.563-.03.173.06.404.185.478.122.072.391.055.896-.058l.463-.103-.175.199c-.096.11-.355.361-.575.559-.22.198-.419.398-.442.446-.023.047-.042.337-.042.644-.007 5.662-3.216 10.59-7.92 12.164-1.652.553-3.46.693-5.216.405-.817-.133-2.024-.512-2.66-.833l-.25-.126.246-.032a8.507 8.507 0 0 0 3.862-1.545c.646-.475.72-.556.72-.792 0-.148-.026-.218-.116-.318-.097-.107-.162-.133-.4-.157-.718-.073-1.465-.364-1.968-.766a4.6 4.6 0 0 1-.935-1.072l-.206-.34.426-.029c.888-.059 1.197-.21 1.197-.583 0-.274-.11-.366-.675-.564-.646-.226-1.058-.507-1.535-1.046A4.037 4.037 0 0 1 1.9 8.424c-.101-.272-.246-.818-.223-.843.006-.006.176.04.38.1.203.06.549.123.767.139l.398.028.126-.14a.402.402 0 0 0 .126-.33c0-.207-.008-.217-.493-.641-.517-.453-1.007-1.304-1.2-2.084-.08-.318-.094-.488-.093-1.08 0-.6.014-.757.097-1.078l.097-.376.457.491c.529.568 1.05 1.054 1.545 1.439.43.333.595.359.786.123.236-.29.15-.501-.378-.92-.66-.523-1.327-1.196-2.01-2.025-.288-.35-.318-.374-.472-.373a.44.44 0 0 0-.253.08c-.1.088-.355.632-.474 1.007-.315.999-.318 2.318-.008 3.272.13.395.35.892.517 1.16.066.106.109.192.095.192-.013 0-.096-.04-.185-.09-.237-.134-.432-.12-.578.041-.11.121-.12.16-.12.446 0 .697.215 1.606.54 2.278.245.504.53.905.971 1.36.355.368.383.408.282.408-.132 0-.3.167-.338.338-.054.237.339 1.18.717 1.725.544.78 1.375 1.449 2.142 1.722.124.044.242.09.26.102.114.072-1.156.687-1.854.898-.835.253-1.261.31-2.36.312-.958.003-.976.005-1.068.106-.11.12-.13.447-.037.57.032.043.254.207.493.365 1.449.96 3.084 1.558 4.915 1.8.539.071 2.15.072 2.671.001 2.097-.283 3.758-.926 5.309-2.053 3.294-2.394 5.351-6.503 5.507-10.997l.025-.737.141-.119c.479-.402 1.183-1.22 1.637-1.898.208-.311.243-.391.243-.56 0-.16-.021-.217-.115-.306-.16-.152-.339-.14-.777.053-.202.09-.374.156-.382.147-.008-.008.061-.138.153-.287.252-.408.536-1.096.558-1.35.017-.193.006-.234-.096-.352-.171-.197-.35-.181-.769.067a7.2 7.2 0 0 1-1.5.686l-.506.168-.193-.18C16.658.566 15.789.152 14.884.04a3.377 3.377 0 0 0-1.054.003zM5.91 4.468c-.138.027-.299.266-.299.443 0 .109.036.19.127.29.373.413.944-.157.582-.58-.116-.136-.249-.186-.41-.153zm9.067 6.627a.393.393 0 0 0-.12.294c0 .384.437.592.68.324.237-.261.048-.75-.29-.75-.11 0-.18.034-.27.132zm-.798 1.266a1.49 1.49 0 0 0-.273.283c-.454.607-1.245 1.363-1.971 1.883-.53.38-.57.426-.57.655 0 .245.173.45.38.45.315 0 1.454-.903 2.275-1.806.824-.903.924-1.13.631-1.424-.145-.146-.297-.16-.472-.041z" fill="#fff"/></symbol><symbol viewBox="0 0 14 8" fill="none" id="arrow-down" xmlns="http://www.w3.org/2000/svg"><path d="m1 .5 5.74 6L13 .5" stroke="#959595"/></symbol><symbol fill="none" viewBox="0 0 17 13" id="arrow-down-white" xmlns="http://www.w3.org/2000/svg"><path d="m1 1.5 7.273 10L16 1.5" stroke="#fff" stroke-width="2"/></symbol><symbol fill="none" viewBox="0 0 32 32" id="copy" xmlns="http://www.w3.org/2000/svg"><path fill-rule="evenodd" clip-rule="evenodd" d="M2.8.113A3.837 3.837 0 0 0 .1 2.837c-.088.346-.1 1.57-.1 9.398 0 9.917-.024 9.34.417 10.227.287.578 1.004 1.295 1.582 1.582.663.329 1.109.417 2.113.417h.886v-2.465h-.683c-.376 0-.803-.034-.949-.074-.34-.095-.732-.488-.827-.827-.103-.374-.103-17.346 0-17.72.095-.34.488-.733.827-.827.375-.104 17.35-.104 17.725 0 .34.094.733.487.827.827.04.145.074.557.074.914v.65h2.466v-.852c0-.543-.036-.997-.1-1.25A3.818 3.818 0 0 0 21.628.11C21.047-.039 3.366-.035 2.8.113zm7.82 7.43c-1.514.256-2.736 1.44-3.055 2.96-.147.698-.147 17.757 0 18.456a3.8 3.8 0 0 0 2.932 2.931c.698.147 17.762.147 18.46 0a3.792 3.792 0 0 0 2.933-2.931c.147-.699.147-17.758 0-18.457-.28-1.329-1.243-2.4-2.566-2.85l-.433-.148-8.964-.01c-4.93-.005-9.118.017-9.307.049zm18.157 2.586c.283.144.42.284.573.587.098.193.108 1.032.108 9.014 0 7.983-.01 8.822-.108 9.015-.154.303-.29.443-.573.587-.239.122-.543.126-9.05.126-7.984 0-8.823-.01-9.017-.108-.303-.153-.442-.29-.587-.572-.122-.239-.126-.543-.126-9.047 0-8.505.004-8.81.126-9.048.142-.277.28-.414.574-.57.18-.094 1.1-.105 9.016-.108 8.523-.002 8.825.002 9.064.124z" fill="#fff"/></symbol><symbol fill="none" viewBox="0 0 50 50" id="discord-big" xmlns="http://www.w3.org/2000/svg"><path fill-rule="evenodd" clip-rule="evenodd" d="M4.348.114c-.268.05-.841.262-1.274.471C1.59 1.302.394 2.855.11 4.441c-.147.813-.147 40.354 0 41.167.34 1.895 1.82 3.534 3.8 4.209.517.176 1.26.183 21.08.183 19.82 0 20.563-.007 21.081-.183 1.338-.456 2.293-1.185 3.014-2.303.632-.98.806-1.616.864-3.16l.022-.562a.753.753 0 0 0-.753-.781.806.806 0 0 0-.806.781l-.014.477c-.039 1.217-.051 1.281-.401 1.99-.436.883-1.003 1.438-1.908 1.868-.43.203-.899.309-1.374.309H5.265c-.475 0-.944-.106-1.373-.31-.908-.43-1.473-.984-1.912-1.874a3.53 3.53 0 0 1-.364-1.562V5.268c0-.476.105-.946.309-1.376.428-.906.983-1.474 1.864-1.91.708-.351.772-.364 1.987-.402l.486-.015a.795.795 0 0 0 .77-.795.763.763 0 0 0-.77-.762L5.934.01c-.603.006-1.317.052-1.586.103zm4.246.668a.782.782 0 1 0 1.564 0 .782.782 0 0 0-1.564 0zm3.123-.001c0 .431.35.781.78.782l16.031.024 16.19.025c.409 0 .812.095 1.179.275 1.304.642 2.134 2.294 2.416 4.809.063.559.1 7.054.1 17.815v16.152a.783.783 0 0 0 1.566 0l-.03-16.787c-.032-17.461-.034-17.577-.239-18.5C49.018 2.253 47.67.565 45.505.11 45.136.031 40.21 0 28.352 0H12.498a.78.78 0 0 0-.781.78zm8.393 7.89c-3.247.198-7.327.923-8.586 1.527-.81.388-1.99 1.544-2.377 2.328-.243.49-.957 2.82-.89 2.902.037.044 1.447.404 1.474.376.013-.012.158-.521.324-1.13.165-.61.35-1.203.41-1.318a4.44 4.44 0 0 1 1.345-1.51c.634-.424 1.761-.745 3.845-1.095 1.896-.318 1.904-.31.58.582-1.432.964-2.835 2.173-2.92 2.517a.814.814 0 0 0 .374.905c.307.172.38.155 2.273-.53 3.44-1.243 7.41-1.867 10.321-1.621 2.77.234 5.453.802 7.979 1.69.778.273 1.565.497 1.747.498.41.002.693-.31.693-.764 0-.268-.107-.42-.66-.942-.789-.743-1.921-1.607-2.77-2.113-.787-.468-.625-.501 1.059-.219 2.96.496 4.008.925 4.758 1.948.486.664.572.904 1.172 3.303a93.684 93.684 0 0 1 2.34 13.16c.078.746.155 1.365.171 1.376.056.04 1.43-.092 1.477-.14.073-.077-.202-2.563-.569-5.132-.704-4.927-2.113-11.209-2.844-12.679-.49-.986-1.354-1.854-2.317-2.33-1.686-.832-6.952-1.653-10.63-1.657-.782 0-.88.02-1.098.24a.76.76 0 0 0-.069 1.02c.112.137.476.29 1.05.443a20.3 20.3 0 0 1 1.561.49c.79.297 2.212.95 2.166.997-.017.017-.577-.075-1.245-.204-2.142-.415-3.656-.576-5.459-.58-2.095-.004-3.42.163-6.149.774-.385.086.633-.432 1.656-.843a19.498 19.498 0 0 1 1.858-.62c.614-.165.985-.318 1.098-.456a.76.76 0 0 0-.069-1.022c-.23-.23-.287-.24-1.39-.222a51.17 51.17 0 0 0-1.689.051zM7.677 17.739c-.095.401-.147.77-.117.82.047.076 1.187.34 1.393.322.072-.006.43-1.407.373-1.464-.024-.025-.602-.184-1.47-.407-.004 0-.085.327-.18.729zm-.547 2.52c0 .013-.129.728-.286 1.588a89.226 89.226 0 0 0-1.288 10.509c-.136 2.186-.053 2.817.525 3.996.366.747 1.338 1.791 2.057 2.209.887.516 4.353 1.56 6.8 2.047 2.128.425 5.496.839 6.826.839.703 0 .758-.112 1.235-2.491.236-1.178.43-2.216.43-2.307 0-.091-.08-.265-.178-.386-.153-.189-.343-.24-1.328-.352-1.114-.129-2.941-.502-2.859-.585.023-.023.344.022.715.098 1.67.346 3.227.494 5.211.494 1.984 0 3.542-.148 5.212-.494.37-.076.691-.12.714-.098.083.083-1.745.456-2.86.584-.983.114-1.174.164-1.326.353-.098.121-.178.295-.178.386 0 .09.193 1.129.43 2.307.477 2.38.532 2.49 1.234 2.49 2.263 0 6.924-.74 9.873-1.57 2.869-.806 3.822-1.218 4.68-2.021 1.338-1.254 1.878-2.85 1.698-5.018l-.006-.075a.765.765 0 0 0-.812-.7.802.802 0 0 0-.75.8v.57c0 1.615-.171 2.142-.976 3.013-.684.74-1.15.98-3.046 1.566-3.04.94-6.93 1.666-9.593 1.79a.632.632 0 0 1-.647-.501l-.105-.497c-.12-.562-.218-1.09-.22-1.173-.003-.116.188-.18.809-.27 2.871-.415 5.823-1.819 7.9-3.757.366-.34.462-.495.462-.745 0-.377-.372-.796-.704-.793-.123 0-.838.2-1.59.441-3.62 1.166-7.567 1.903-10.185 1.902-2.666 0-6.61-.735-10.256-1.91-.741-.24-1.443-.435-1.56-.435-.322 0-.69.425-.69.796 0 .259.102.411.56.842.776.726 2.532 1.886 3.64 2.404 1.206.565 2.613 1 3.92 1.212.624.1 1.054.216 1.054.282 0 .127-.373 1.985-.43 2.141-.042.117-1.255.038-3.181-.207-3.113-.395-7.916-1.624-9.127-2.334-.944-.554-1.716-1.726-1.868-2.837-.11-.808.255-5.2.703-8.446.217-1.566.738-4.659.884-5.248.045-.18-.016-.214-.577-.318-.599-.11-.946-.144-.946-.091zm8.892 1.01c-2.474.667-4.005 3.233-3.375 5.658.604 2.323 2.839 3.841 5.161 3.506A4.694 4.694 0 0 0 21.8 26.45c.468-3.252-2.628-6.03-5.777-5.181zm15.616 0c-2.475.667-4.006 3.233-3.375 5.658.604 2.323 2.838 3.841 5.16 3.506a4.694 4.694 0 0 0 3.992-3.983c.468-3.252-2.629-6.03-5.777-5.181zM18.46 22.963c.675.319 1.097.72 1.46 1.394.303.564.332.692.334 1.45 0 .77-.024.876-.348 1.466-1.5 2.733-5.573 1.865-5.825-1.241-.114-1.408.739-2.691 2.125-3.197.582-.212 1.66-.15 2.254.128zm15.615 0c.676.319 1.097.72 1.46 1.394.303.564.333.692.334 1.45.002.77-.024.876-.347 1.466-1.501 2.733-5.573 1.865-5.825-1.241-.114-1.408.739-2.691 2.125-3.197.581-.212 1.66-.15 2.253.128z" fill="#fff"/></symbol><symbol fill="none" viewBox="0 0 50 50" id="instagram-big" xmlns="http://www.w3.org/2000/svg"><path fill-rule="evenodd" clip-rule="evenodd" d="M12.99.095C8.104.64 3.762 3.701 1.52 8.181.8 9.617.291 11.383.105 13.097c-.141 1.296-.141 22.496 0 23.791a14.628 14.628 0 0 0 13.002 13.006c1.295.141 22.489.141 23.784 0 3.352-.364 6.281-1.753 8.7-4.125 2.453-2.405 3.93-5.453 4.302-8.88.141-1.297.141-22.496 0-23.792-.364-3.353-1.753-6.283-4.123-8.702-2.405-2.453-5.453-3.93-8.879-4.304-1.14-.124-22.788-.12-23.903.004zm24.8 2.08c1.984.475 3.59 1.191 5.088 2.27 1.99 1.433 3.775 3.904 4.515 6.25.636 2.018.603 1.23.603 14.298 0 11.075-.012 11.922-.177 12.685-.26 1.21-.628 2.307-1.066 3.187-1.83 3.67-4.956 6.066-9.071 6.954-.763.164-1.61.176-12.682.176-11.072 0-11.919-.012-12.682-.176-2.723-.588-4.993-1.818-6.78-3.676-1.704-1.77-2.8-3.882-3.357-6.465-.165-.763-.177-1.61-.177-12.685 0-11.075.012-11.922.177-12.686.556-2.582 1.653-4.694 3.356-6.464a12.932 12.932 0 0 1 7.515-3.792c.371-.049 5.871-.08 12.339-.07 10.831.018 11.72.032 12.399.194zM12.972 4.432a10.252 10.252 0 0 0-5.426 2.722 10.232 10.232 0 0 0-3.103 5.874c-.213 1.307-.213 22.623 0 23.93.618 3.793 3.264 6.945 6.849 8.16 1.502.51 2.253.581 6.114.581h3.49l.316-.282c.428-.382.448-.954.049-1.353l-.269-.269-3.879-.055-3.88-.054-.878-.269c-2.842-.868-4.886-2.91-5.78-5.775l-.274-.88V13.224l.274-.88c.893-2.861 2.918-4.887 5.78-5.78l.879-.275h23.532l.88.274c2.86.894 4.886 2.92 5.779 5.782l.274.879v23.54l-.274.879c-.894 2.864-2.936 4.905-5.78 5.776l-.879.269-3.661.031c-2.014.017-3.765.055-3.89.083-.126.028-.334.165-.464.305-.42.454-.262 1.187.32 1.485.34.174 6.782.145 7.89-.035a10.354 10.354 0 0 0 8.596-8.598c.213-1.307.213-22.623 0-23.93a10.354 10.354 0 0 0-8.595-8.598c-1.216-.198-22.811-.196-23.99.002zm23.677 4.23c-2.597.923-3.362 4.183-1.433 6.112 1.82 1.82 4.86 1.256 5.983-1.111.219-.462.254-.668.254-1.466 0-.835-.03-.99-.302-1.562-.617-1.298-1.794-2.076-3.213-2.125-.567-.02-.92.022-1.289.153zm1.854 1.912c1.558.667 1.29 2.985-.386 3.33-1.072.22-2.252-.96-2.031-2.032.098-.475.494-1.016.9-1.23.431-.228 1.076-.257 1.517-.068zm-14.675 1.008c-1.921.151-5.053 1.194-5.371 1.789-.221.413-.146.894.188 1.192.392.35.628.342 1.6-.057 1.918-.787 2.83-.976 4.755-.982 1.425-.005 2.43.137 3.504.496 4.003 1.337 6.907 4.59 7.789 8.726.242 1.135.243 3.354.002 4.482-.986 4.625-4.434 8.076-9.05 9.06-1.139.244-3.351.244-4.49 0-4.136-.881-7.388-3.785-8.725-7.79-.36-1.08-.502-2.08-.496-3.505.009-2.01.28-3.172 1.24-5.308.287-.636.33-.817.258-1.07-.124-.43-.39-.661-.832-.72-.531-.071-.789.163-1.287 1.169-2.54 5.128-1.488 11.374 2.602 15.444a13.374 13.374 0 0 0 18.97 0 13.392 13.392 0 0 0 0-19.03c-2.85-2.836-6.617-4.213-10.657-3.896zm-7.88 3.467c-.118.057-.285.254-.373.438-.373.786.336 1.578 1.167 1.303.985-.325.796-1.87-.226-1.851-.194.004-.45.053-.567.11zm7.464 1.301a8.898 8.898 0 0 0-6.277 4.785c-.68 1.39-.857 2.183-.857 3.858 0 1.152.04 1.562.213 2.197.668 2.448 2.41 4.57 4.652 5.67 1.389.68 2.182.857 3.857.857 1.675 0 2.468-.176 3.857-.857 2.243-1.1 3.984-3.222 4.652-5.67.173-.635.213-1.045.213-2.197 0-1.675-.176-2.468-.857-3.858-1.098-2.245-3.259-4.015-5.668-4.644-1.034-.27-2.765-.334-3.785-.141zm2.935 1.958c.428.087 1.152.345 1.68.598.79.379 1.054.573 1.773 1.298.704.71.919 1.006 1.288 1.77.987 2.047.987 3.99 0 6.037-.37.765-.584 1.06-1.288 1.77-.72.726-.984.92-1.773 1.299-2.063.99-3.992.99-6.054 0-.79-.38-1.054-.573-1.773-1.299-.704-.71-.919-1.005-1.288-1.77-.482-1-.747-2.072-.747-3.018 0-.947.265-2.019.747-3.018.37-.765.584-1.06 1.288-1.77.719-.725.985-.92 1.773-1.3 1.495-.719 2.855-.905 4.374-.597zm-1.689 25.527c-.622.266-.787 1.073-.315 1.545.201.201.362.267.657.267 1.136 0 1.267-1.66.146-1.847a1.052 1.052 0 0 0-.488.035z" fill="#fff"/></symbol><symbol fill="none" viewBox="0 0 50 50" id="linkedin-big" xmlns="http://www.w3.org/2000/svg"><path fill-rule="evenodd" clip-rule="evenodd" d="M1.977.186C.995.525.297 1.3.085 2.288c-.076.357-.099 6.93-.077 23.007l.03 22.508.205.444c.301.65.76 1.123 1.39 1.432l.555.272 17.649.026c13.171.02 17.717-.003 17.921-.087.293-.12.558-.532.558-.867 0-.322-.255-.732-.535-.86-.196-.088-4.375-.116-17.66-.116-18.93 0-17.801.034-18.06-.534-.17-.372-.17-44.65 0-45.02.199-.436.536-.535 1.829-.535 1.294 0 1.61-.087 1.826-.502C5.977.95 5.796.338 5.32.122 4.9-.07 2.588-.025 1.977.186zM8.31.14c-.847.47-.493 1.817.478 1.817.496 0 .978-.477.978-.967 0-.733-.811-1.207-1.456-.85zm3.911 0c-.655.364-.634 1.396.036 1.7.195.09 4.373.117 17.65.117 13.278 0 17.456.028 17.651.117.572.26.535-1.307.535 22.928 0 24.234.037 22.667-.535 22.927-.153.07-.728.117-1.43.117-1.292 0-1.63.099-1.829.534-.154.338-.147.588.026.922.23.443.564.52 2.124.482 1.298-.031 1.44-.054 1.956-.306a2.892 2.892 0 0 0 1.39-1.432l.205-.444v-45.6l-.273-.555A2.893 2.893 0 0 0 48.294.26l-.445-.205L30.152.032C15.574.015 12.414.034 12.222.141zm-1.257 6.94a5.243 5.243 0 0 0-3.878 3.66c-.202.688-.202 2.058 0 2.747.83 2.82 3.835 4.438 6.525 3.514.895-.307 1.367-.601 2.033-1.266 1.633-1.63 1.998-3.924.954-5.99-.361-.715-1.4-1.797-2.036-2.121-1.171-.597-2.489-.796-3.598-.544zm2.489 2.205c.663.325 1.17.843 1.518 1.551.311.635.307 1.911-.009 2.56-.353.725-.842 1.218-1.553 1.568-1.252.615-2.635.377-3.628-.625-.6-.605-.836-1.156-.88-2.052-.042-.89.122-1.464.595-2.082.958-1.252 2.53-1.617 3.957-.92zm18.41 8.637c-1.388.31-2.43.742-3.445 1.428-.31.209-.584.38-.612.38-.027 0-.05-.137-.05-.303 0-.424-.257-.92-.547-1.05-.322-.148-7.496-.157-7.769-.012-.503.27-.483-.222-.483 12.344V42.38l.285.32.285.318 3.869.028c4.18.03 4.285.019 4.578-.492.097-.17.136-1.818.174-7.396l.048-7.177.29-.521c.343-.62.7-.94 1.41-1.266 1.388-.637 3.059-.027 3.808 1.39l.261.494.049 7.2.049 7.199.27.27.272.271 3.858.028c4.169.03 4.275.018 4.568-.492.099-.173.125-1.91.125-8.275 0-7.436-.014-8.12-.179-8.884-.763-3.538-3.282-6.248-6.766-7.281-1.104-.327-3.308-.425-4.348-.192zm-24.075.628-.32.285v11.75c0 9.366.026 11.794.125 11.968.293.512.398.523 4.578.493l3.869-.028.285-.319.285-.319V30.708c0-12.565.02-12.074-.483-12.343-.12-.064-1.605-.1-4.104-.1H8.107l-.32.285zm28.132 1.515c2.044.693 3.545 1.98 4.454 3.814.797 1.608.777 1.363.777 9.78v7.455H35.97l-.001-6.371c-.002-6.995-.008-7.082-.591-8.174-.568-1.065-1.691-2-2.83-2.356-.87-.272-2.18-.27-2.974.004-1.578.546-2.684 1.656-3.208 3.22-.21.63-.215.752-.249 7.16l-.034 6.517h-5.17V20.218h4.888v1.128c0 1.319.108 1.628.632 1.8.189.062.439.082.556.045.118-.037.657-.513 1.2-1.058 1.008-1.014 1.645-1.457 2.705-1.885 1.018-.41 1.691-.518 3.022-.482 1.015.028 1.355.078 2.005.299zM14.655 30.666v10.448H9.473V20.218h5.182v10.448zM40.77 48.183c-.848.47-.493 1.817.478 1.817.496 0 .978-.477.978-.967 0-.733-.811-1.206-1.456-.85z" fill="#fff"/></symbol><symbol fill="none" viewBox="0 0 23 23" id="plus-color" xmlns="http://www.w3.org/2000/svg"><path d="M10.5 0v21M0 10h21" stroke="url(#ka)" stroke-width="3"/><defs><linearGradient id="ka" x1="3.45" y1="0" x2="22.843" y2="4.688" gradientUnits="userSpaceOnUse"><stop stop-color="#FC84FF"/><stop offset="1" stop-color="#54D1FA"/></linearGradient></defs></symbol><symbol fill="none" viewBox="0 0 58 50" id="reddit-big" xmlns="http://www.w3.org/2000/svg"><path fill-rule="evenodd" clip-rule="evenodd" d="M46.396.208c-1.048.315-1.635.68-2.439 1.52-1.793 1.873-2.18 4.419-1.029 6.77.381.777 1.36 1.854 2.083 2.291.96.58 1.753.796 2.916.796 1.662 0 2.863-.52 4.039-1.753 2.176-2.28 2.145-5.79-.07-8.105-.407-.425-.998-.907-1.314-1.072-1.279-.669-2.88-.84-4.186-.447zm2.949 2.449c1.256.612 1.92 1.708 1.923 3.174.002.703-.053.988-.276 1.438-1.318 2.664-4.812 2.664-6.13 0-.372-.75-.39-2.057-.038-2.847.81-1.824 2.804-2.603 4.52-1.765zm-10.647.728c-.524.643-.319 1.482.443 1.81 1.136.49 2.068-.932 1.2-1.828-.268-.276-.43-.341-.84-.341-.43 0-.555.056-.803.36zm-4.091.31c-.409.103-1.708 1.064-2.37 1.75-1.263 1.314-1.774 2.34-2.674 5.37-.328 1.102-.633 2.065-.678 2.14-.053.089-.736.176-1.916.245-5.39.316-10.144 1.695-14.297 4.15l-.85.502-.988-.5c-1.24-.628-2.106-.829-3.547-.82-2.784.014-5.235 1.636-6.526 4.318-1.472 3.059-.764 6.781 1.733 9.11.382.357.737.649.788.649.052 0 .095.407.095.906.006 8.443 7.827 15.776 19.104 17.912 3.514.666 8.28.761 11.673.234 3.489-.542 7.935-1.92 8.755-2.715.371-.36.356-1.125-.03-1.523-.407-.42-.744-.446-1.613-.122-2.936 1.093-4.433 1.525-6.566 1.895-6.658 1.153-13.645.244-19.137-2.49-2.664-1.325-4.44-2.605-6.123-4.41-1.948-2.09-3.068-4.152-3.58-6.59-.212-1.012-.19-3.44.04-4.445 1.13-4.927 5.232-9.108 11.39-11.608 7.159-2.906 16.252-2.906 23.411 0 6.159 2.5 10.262 6.681 11.39 11.608.288 1.257.258 3.58-.063 4.906-.462 1.908-1.586 4.022-3.008 5.657-.4.46-.755.98-.789 1.157-.084.435.243 1.103.635 1.295.527.258.95.071 1.71-.757 2.518-2.742 4.036-6.497 4.038-9.995 0-.89.003-.898.381-1.139.993-.632 2.14-2.286 2.616-3.767.626-1.954.495-3.95-.381-5.768-1.293-2.684-3.74-4.304-6.526-4.319-1.442-.008-2.308.193-3.546.822l-.988.502-.737-.447c-3.687-2.23-8.474-3.728-13.292-4.156-.483-.043-.878-.11-.878-.15 0-.257 1.218-3.945 1.48-4.478.43-.878 1.306-1.845 2.262-2.494.431-.293.837-.634.901-.759.299-.574-.002-1.425-.576-1.631-.198-.072-.39-.124-.428-.116-.038.007-.17.039-.295.07zM9.121 19.105l.587.197-1.448 1.475c-2.116 2.156-3.258 3.886-4.024 6.098-.202.583-.404 1.06-.45 1.06-.148-.003-.736-.838-1.028-1.46-.941-2.004-.445-4.647 1.158-6.16.718-.677 1.767-1.24 2.602-1.396.734-.137 1.89-.055 2.603.185zm42.25-.187c3.836.648 5.658 5.462 3.25 8.586-.182.236-.369.43-.415.43-.046 0-.249-.476-.45-1.059-.767-2.212-1.908-3.942-4.026-6.1L48.281 19.3l.588-.182c1.099-.341 1.479-.372 2.502-.199zM19.615 23.66c-.892.248-1.477.597-2.133 1.273-1.683 1.735-1.874 4.364-.46 6.343 1.727 2.42 5.155 2.655 7.156.491 1.067-1.153 1.539-2.629 1.31-4.095-.453-2.903-3.174-4.761-5.873-4.012zm16.638.007c-2.308.64-3.818 3.055-3.428 5.483.426 2.65 2.927 4.513 5.418 4.038 2.602-.495 4.344-2.966 3.926-5.568-.463-2.879-3.197-4.707-5.916-3.953zm-14.45 2.37c.254.119.645.438.87.71 1.854 2.232-.86 5.358-3.24 3.732-1.107-.756-1.426-2.425-.677-3.54.651-.97 2.032-1.377 3.048-.902zm16.793.076c.81.416 1.396 1.34 1.395 2.195-.002 1.384-1.197 2.651-2.5 2.651-.528 0-1.28-.344-1.721-.787a2.53 2.53 0 0 1 .58-4.029c.787-.423 1.463-.432 2.246-.03zM19.53 37.903c-.603.622-.482 1.317.339 1.96 1.322 1.034 3.704 2.101 5.739 2.571 1.012.234 1.487.272 3.388.272 2.438 0 3.649-.196 5.446-.879 1.643-.624 3.746-1.84 4.189-2.42.318-.417.291-.987-.066-1.426-.45-.552-1.016-.503-2.03.177-2.3 1.538-4.797 2.297-7.548 2.292-2.758-.004-5.238-.759-7.53-2.292-.947-.634-1.49-.706-1.927-.254zm25.495 5.492c-.424.438-.487.814-.224 1.34.287.572.971.752 1.54.406 1-.61.55-2.143-.63-2.143-.19 0-.442.145-.686.397z" fill="#fff"/></symbol><symbol fill="none" viewBox="0 0 21 24" id="right-arrow" xmlns="http://www.w3.org/2000/svg"><path fill-rule="evenodd" clip-rule="evenodd" d="m8.776 2.645.069.955 4.075-.42 4.075-.42-8.438 10.055L.12 22.871l.738.62.74.62 8.437-10.056L18.473 4l.293 4.087.294 4.086.953-.1.952-.099-.411-5.732L20.142.51l-5.717.59-5.717.59.068.956z" fill="#fff"/></symbol><symbol fill="none" viewBox="0 0 52 48" id="telegram-big" xmlns="http://www.w3.org/2000/svg"><path fill-rule="evenodd" clip-rule="evenodd" d="M48.736.182C46.993.79 1.14 19.529.901 19.732-.43 20.86-.256 23.098 1.228 23.9c.21.114 2.843 1.174 5.851 2.356 3.008 1.183 5.483 2.164 5.498 2.18.016.017.995 3.307 2.176 7.312 1.182 4.004 2.23 7.453 2.332 7.662.59 1.222 1.978 1.722 3.106 1.12.277-.148 1.97-1.53 3.76-3.07 1.791-1.54 3.367-2.843 3.501-2.897.18-.072.344-.046.612.095.201.107 2.863 2.103 5.914 4.437 3.05 2.334 5.737 4.375 5.968 4.535.498.344 1.313.466 1.931.29.542-.154 1.295-.857 1.502-1.4.089-.235 2.089-10.189 4.445-22.119C52.563.397 52.29 2.061 51.645 1.075c-.65-.995-1.697-1.316-2.909-.893zm1.199 2.314c.036.417-8.374 43.02-8.533 43.221-.066.085-.154.154-.196.154-.04 0-2.788-2.075-6.104-4.611-6.54-5-6.575-5.023-7.689-4.902a3.41 3.41 0 0 0-.974.285c-.248.125-1.963 1.528-3.81 3.118-1.848 1.59-3.382 2.891-3.41 2.89-.219-.004-.56-1.044-2.532-7.723-1.227-4.155-2.285-7.678-2.35-7.829a1.056 1.056 0 0 0-.307-.397c-.103-.067-2.79-1.144-5.972-2.392-3.183-1.247-5.844-2.346-5.914-2.44-.105-.139-.1-.201.028-.336.186-.196 47.36-19.41 47.582-19.38.09.012.164.153.18.342zM39.266 9.603c-1.033.56-21.685 14.048-22.015 14.378a3.351 3.351 0 0 0-.96 2.159c-.044.644.049 1.055 1.207 5.356 1.34 4.982 1.41 5.161 2.13 5.475.407.178 1.128.083 1.503-.199.49-.367.62-.832.946-3.364.398-3.099.47-3.36 1.14-4.091.292-.32 4.439-4.403 9.214-9.073 4.775-4.67 8.726-8.61 8.779-8.757.478-1.325-.76-2.526-1.944-1.884zm-5.138 6.016c-.167.17-2.983 2.923-6.258 6.119-3.274 3.195-6.156 6.06-6.403 6.366-.692.858-.998 1.678-1.205 3.234-.098.739-.203 1.343-.234 1.343s-.435-1.401-.898-3.114c-.9-3.33-.922-3.517-.46-3.974.217-.215 15.574-10.259 15.713-10.277.027-.004-.088.132-.255.303zm8.534 8.203c-.332.294-.542.921-.542 1.623 0 .87 1.099 1.37 1.676.762.49-.516.62-1.79.233-2.266a.944.944 0 0 0-1.367-.12zm-1.09 5.133c-.317.34-.355.492-1.517 6.139-.656 3.185-1.192 5.975-1.192 6.2 0 .908 1.062 1.392 1.662.76.146-.154.287-.36.313-.457.027-.097.584-2.786 1.24-5.974 1.312-6.383 1.316-6.427.724-6.807-.484-.31-.85-.27-1.23.139z" fill="#fff"/></symbol><symbol fill="none" viewBox="0 0 54 48" id="twitter-big" xmlns="http://www.w3.org/2000/svg"><path fill-rule="evenodd" clip-rule="evenodd" d="M35.562.107c-2.502.31-5.108 1.728-6.943 3.778-.965 1.077-1.46 1.843-2.1 3.252-.808 1.78-1.107 3.111-1.178 5.246l-.057 1.696-.593-.075c-.608-.078-2.841-.518-3.975-.784-1.019-.24-1.52.09-1.552 1.02-.024.687.38.995 1.78 1.358 1.65.428 3.8.763 5.077.791 1.101.025 1.104.024 1.371-.31.244-.306.262-.399.203-1.031-.161-1.721-.187-3.149-.07-3.959.272-1.906 1.164-3.912 2.378-5.351 2.074-2.46 5.25-3.77 8.153-3.362 2.169.304 3.744 1.077 5.378 2.64.407.389.847.763.978.831.333.175 1.368-.054 3.195-.705.814-.29 1.48-.496 1.48-.457 0 .18-1.307 1.591-1.902 2.053-1.097.852-1.257 1.023-1.326 1.423-.075.436.155 1.02.475 1.206.315.183 1.007.139 2.305-.146l1.19-.261-.45.503c-.248.277-.913.913-1.478 1.413-.566.5-1.077 1.006-1.136 1.126-.06.12-.108.852-.11 1.627-.016 14.305-8.268 26.756-20.364 30.731-4.249 1.396-8.896 1.75-13.413 1.024-2.101-.338-5.206-1.294-6.841-2.105l-.643-.32.634-.08c3.524-.449 7.08-1.847 9.93-3.903 1.661-1.2 1.852-1.406 1.852-2.002 0-.372-.066-.55-.298-.801-.25-.271-.418-.336-1.03-.397-1.846-.185-3.765-.92-5.059-1.936-.832-.654-1.83-1.776-2.404-2.708l-.532-.86 1.095-.071c2.286-.15 3.08-.53 3.08-1.475 0-.691-.284-.923-1.736-1.424-1.66-.572-2.72-1.281-3.947-2.642-.981-1.089-1.6-2.089-2.092-3.378-.262-.687-.634-2.066-.575-2.13.014-.014.454.1.977.253.523.153 1.411.311 1.974.35l1.023.071.324-.351c.26-.282.324-.449.324-.835 0-.523-.02-.55-1.268-1.621-1.33-1.143-2.59-3.293-3.088-5.263-.202-.803-.24-1.234-.238-2.729.001-1.515.038-1.914.25-2.725l.249-.95 1.176 1.242c1.36 1.436 2.701 2.663 3.973 3.634 1.103.842 1.53.908 2.021.312.606-.735.384-1.267-.972-2.323C9.34 6.894 7.623 5.195 5.869 3.1c-.742-.887-.818-.945-1.214-.943-.239.002-.522.09-.65.201-.257.224-.915 1.597-1.22 2.546-.81 2.523-.818 5.856-.02 8.265.331.999.9 2.255 1.328 2.93.17.268.28.487.246.487-.034 0-.249-.103-.477-.23-.61-.337-1.111-.3-1.487.107-.282.305-.309.404-.309 1.125 0 1.761.555 4.058 1.392 5.755.628 1.274 1.362 2.285 2.495 3.437.913.929.984 1.03.724 1.03-.339 0-.768.422-.868.853-.139.598.871 2.983 1.845 4.358 1.397 1.973 3.533 3.66 5.507 4.35.32.112.621.229.67.26.292.18-2.974 1.734-4.77 2.268-2.147.639-3.242.78-6.067.788-2.464.007-2.511.011-2.748.268-.28.304-.334 1.128-.094 1.442.081.105.652.52 1.268.92 3.725 2.422 7.93 3.935 12.64 4.547 1.383.18 5.525.182 6.867.003 5.391-.717 9.663-2.34 13.65-5.187 8.47-6.048 13.761-16.429 14.161-27.784l.066-1.86.362-.3c1.23-1.017 3.042-3.082 4.21-4.797.533-.785.623-.987.624-1.413 0-.403-.055-.549-.295-.773-.413-.385-.871-.354-1.998.134-.52.226-.963.393-.983.371-.02-.021.158-.348.394-.725.647-1.031 1.379-2.77 1.435-3.41.044-.488.015-.593-.248-.89-.44-.498-.898-.459-1.977.17a18.635 18.635 0 0 1-3.86 1.733l-1.297.423-.499-.454C42.834 1.431 40.602.383 38.274.102c-1.135-.137-1.568-.136-2.712.005zM15.2 11.287c-.356.07-.77.671-.77 1.119 0 .275.092.482.325.735.96 1.04 2.427-.397 1.498-1.467-.298-.343-.64-.469-1.053-.388zM38.513 28.03c-.226.244-.31.444-.31.742 0 .97 1.124 1.496 1.75.818.608-.66.123-1.895-.745-1.895-.286 0-.467.087-.695.335zm-2.053 3.197c-.174.116-.49.438-.701.715-1.167 1.534-3.203 3.445-5.07 4.758-1.362.958-1.467 1.076-1.467 1.655 0 .618.447 1.136.979 1.136.81 0 3.738-2.282 5.852-4.561 2.117-2.283 2.374-2.855 1.621-3.599-.373-.368-.764-.402-1.214-.104z" fill="#fff"/></symbol></svg>