<svg width="78" height="88" viewBox="0 0 78 88" fill="none" xmlns="http://www.w3.org/2000/svg">
<mask id="path-1-inside-1_881_155" fill="white">
<path fill-rule="evenodd" clip-rule="evenodd" d="M37.0393 0.591915C36.7141 0.777065 35.2405 1.65653 33.7641 2.54667C32.2882 3.43682 30.9486 4.16515 30.7874 4.16515C30.6261 4.16515 29.4025 4.87727 28.0676 5.74763C26.7328 6.618 25.4969 7.33011 25.3211 7.33011C25.1453 7.33011 24.3426 7.77954 23.5368 8.32866C22.7314 8.87817 21.0493 9.88424 19.7988 10.5651C18.5483 11.2456 17.0215 12.1551 16.4057 12.5859C15.3224 13.3435 15.3098 13.3914 16.0115 14.0648C16.4105 14.4473 17.89 15.375 19.2993 16.1267C20.7087 16.878 22.394 17.8089 23.0444 18.1954C24.3612 18.9772 23.5774 19.296 30.4361 15.1907C31.5746 14.509 33.4807 13.4195 34.6724 12.7691C35.8642 12.1187 37.2577 11.2558 37.7698 10.8515C38.8007 10.0377 38.9675 10.0876 41.9297 12.0934C42.8805 12.7374 43.8125 13.2644 44.0005 13.2644C44.1889 13.2644 45.2277 13.8563 46.3087 14.5798C47.39 15.303 49.5484 16.5801 51.1052 17.4172L53.9353 18.9396L55.2445 17.9513C55.9644 17.4081 57.5846 16.4444 58.8449 15.8098C60.1053 15.1753 61.4058 14.3579 61.7346 13.9931C62.2814 13.3871 62.1371 13.2035 60.0655 11.8738C58.8185 11.0735 57.518 10.3194 57.1758 10.1988C56.8332 10.0781 56.2872 9.75922 55.962 9.4902C55.6368 9.22118 54.395 8.50431 53.2024 7.89743C52.0099 7.29016 50.5375 6.45105 49.9308 6.03208C48.9255 5.33817 45.9129 3.601 41.4534 1.1438C39.7248 0.191151 38.1006 -0.0118015 37.0393 0.591915ZM7.86768 17.5173C7.33785 17.8979 5.56858 18.9313 3.9361 19.8131L0.968005 21.4162L0.8592 26.9548L0.75 32.4935L2.18221 33.2638C5.00169 34.781 6.50762 35.6403 7.8389 36.4917C8.58241 36.9672 9.33655 37.2659 9.51435 37.1555C9.69254 37.0451 9.838 34.7319 9.838 32.0144V27.0743L11.0621 26.4002C12.1418 25.806 16.0817 23.4338 17.7225 22.3898C18.231 22.0666 18.2034 21.9285 17.5253 21.4047C17.0917 21.0696 15.9386 20.3994 14.9629 19.9156C13.9872 19.4313 12.4537 18.538 11.5548 17.93C9.64444 16.6379 9.16546 16.5845 7.86768 17.5173ZM36.448 18.0886C35.3639 18.775 33.5899 19.8048 32.5058 20.3765C31.4217 20.9481 30.5347 21.6492 30.5347 21.934C30.5347 22.2185 31.6878 23.13 33.0971 23.9592C34.5065 24.7884 36.2485 25.8368 36.968 26.289C38.5074 27.2559 39.519 27.3331 40.1805 26.5331C40.4434 26.215 41.0415 25.8392 41.5098 25.698C42.5159 25.3945 47.6833 22.2758 47.6833 21.972C47.6833 21.701 46.667 21.0712 43.4218 19.3301C41.9715 18.5519 40.5046 17.67 40.162 17.3702C39.2568 16.5773 38.6486 16.6948 36.448 18.0886ZM66.1905 17.9367C65.2266 18.5483 63.9056 19.3225 63.2551 19.6572C61.2426 20.6934 59.5151 21.7611 59.5155 21.9681C59.5163 22.192 61.5836 23.4678 65.3902 25.5927L67.9858 27.0419L68.0958 32.2194C68.1561 35.0674 68.3079 37.3972 68.4328 37.3972C68.5578 37.3972 69.4483 36.8631 70.4122 36.2104C71.3761 35.5576 72.2655 35.0235 72.3888 35.0235C72.5122 35.0235 73.6567 34.3874 74.9316 33.6104L77.25 32.1968V26.9398V21.6828L74.7861 20.3773C73.4312 19.6592 71.5807 18.5665 70.6744 17.9486C68.6351 16.5583 68.3646 16.5576 66.1905 17.9367ZM21.5093 26.759C20.4485 27.4276 18.6745 28.4653 17.5671 29.0651L15.5542 30.1558L15.445 35.4666L15.3362 40.777L18.0075 42.3373C19.4767 43.1954 21.3 44.2395 22.0589 44.6569C22.8178 45.0746 24.0564 45.8374 24.8114 46.3521C25.5663 46.8668 26.3551 47.2877 26.5641 47.2877C26.7734 47.2877 27.619 47.7569 28.4437 48.3306L29.9433 49.3734V57.7843V66.1952L31.8506 67.4232C32.8992 68.0985 33.8595 68.6512 33.9841 68.6512C34.1091 68.6512 35.1538 69.2743 36.3061 70.0359C38.7195 71.631 39.1007 71.6892 40.5266 70.6795C41.1022 70.2717 42.6373 69.3863 43.9382 68.7113C48.0023 66.6031 47.6814 67.5233 47.6979 57.9259L47.7121 49.4636L49.4242 48.3757C50.366 47.7771 51.255 47.2877 51.4001 47.2877C51.5451 47.2877 52.7321 46.5756 54.0378 45.7052C55.3435 44.8349 56.5218 44.1228 56.6562 44.1228C56.7903 44.1228 58.1081 43.3901 59.5849 42.4948L62.2696 40.8672V35.6003C62.2696 30.3817 62.2601 30.3259 61.2308 29.5137C60.6595 29.0627 60.0343 28.6936 59.8415 28.6936C59.6484 28.6936 58.3671 27.9815 56.9937 27.1111C55.6206 26.2407 54.1986 25.5286 53.834 25.5286C53.0708 25.5286 51.5238 26.346 47.092 29.09C45.3574 30.1641 43.3173 31.3359 42.5584 31.694C41.7996 32.0516 40.6823 32.6984 40.076 33.1309L38.9734 33.917L37.4233 32.888C36.571 32.3218 35.755 31.8585 35.6103 31.8585C35.4656 31.8585 34.415 31.2378 33.2765 30.4794C32.1376 29.7206 30.7885 28.9401 30.2788 28.7442C29.7691 28.5484 28.3802 27.7449 27.1929 26.9584C26.0051 26.1719 24.6746 25.5322 24.2362 25.5361C23.7974 25.5401 22.5706 26.0908 21.5093 26.759ZM0.864324 52.8956L0.968005 66.8116L4.31889 68.6971C6.16188 69.7344 8.55678 71.0586 9.64089 71.6393C10.725 72.2205 12.1442 73.0956 12.7947 73.5838C13.4451 74.072 14.4208 74.6104 14.9629 74.7797C15.5049 74.9491 16.0371 75.2165 16.1456 75.374C16.254 75.5314 17.5845 76.3294 19.1022 77.1467C20.62 77.9645 22.3325 78.969 22.908 79.3788C23.4836 79.7887 24.0604 80.1242 24.1893 80.1242C24.3186 80.1242 24.4242 77.6512 24.4242 74.6282V69.1327L23.3441 68.8605C22.75 68.7109 22.1736 68.4605 22.0628 68.3042C21.8555 68.0107 18.6741 66.0745 16.934 65.1824C16.3919 64.9043 14.6179 63.9073 12.9918 62.9665L10.0351 61.2559L9.92907 52.5613L9.82342 43.8668L8.54929 43.1982C6.79224 42.2756 4.19866 40.7968 2.60403 39.8077C1.86999 39.3524 1.15487 38.9797 1.01492 38.9797C0.875363 38.9797 0.807556 45.242 0.864324 52.8956ZM75.1192 39.9688C74.3205 40.5127 73.5538 40.9578 73.4158 40.9578C73.2774 40.9578 72.049 41.6256 70.6862 42.4414L68.2081 43.925L68.0969 52.5685L67.9858 61.212L65.529 62.5238C64.1776 63.2451 62.6015 64.2068 62.0263 64.661C61.4511 65.1148 60.8239 65.4862 60.6324 65.4862C60.4408 65.4862 59.1765 66.1541 57.8227 66.9698C56.469 67.786 54.8755 68.7062 54.2818 69.0148L53.2024 69.5762V74.629C53.2024 77.4082 53.3578 79.7784 53.5478 79.8959C53.7378 80.0138 54.669 79.5826 55.6175 78.9373C56.5659 78.2925 57.4723 77.7615 57.6315 77.7576C57.7908 77.7536 58.8378 77.1843 59.9582 76.4928C61.9463 75.2652 62.7659 74.8003 67.0743 72.4579C68.2259 71.8316 69.6723 70.9624 70.2876 70.5264C70.9034 70.0905 72.6774 69.0603 74.2299 68.2374L77.0529 66.7408L77.1566 52.8604C77.2141 45.134 77.1073 38.9797 76.9157 38.9797C76.7265 38.9797 75.9179 39.4248 75.1192 39.9688ZM15.4446 52.7275L15.5542 58.1673L17.3818 59.1563C18.3867 59.7003 20.1824 60.7242 21.3718 61.4311C22.5615 62.1381 23.7347 62.7169 23.9795 62.7169C24.2866 62.7169 24.4242 61.1328 24.4242 57.5905V52.464L22.5517 51.3966C21.522 50.8091 19.5749 49.6444 18.2251 48.8081C16.8749 47.9721 15.6725 47.2877 15.5526 47.2877C15.4328 47.2877 15.3843 49.7358 15.4446 52.7275ZM60.1013 48.5486C59.0172 49.2579 57.0658 50.3997 55.7649 51.0861L53.3996 52.3339L53.2896 57.5252C53.1603 63.6268 53.1212 63.5889 56.9937 61.1344C58.3671 60.2641 59.6283 59.5512 59.7958 59.55C59.9638 59.5488 60.5957 59.1484 61.2004 58.6598L62.2991 57.7717L62.186 52.5154L62.0724 47.2592L60.1013 48.5486ZM29.9437 78.245L29.9441 83.4869L31.9712 84.6738C33.0865 85.3266 34.8159 86.3386 35.8145 86.9225C37.7119 88.0314 39.3341 88.291 40.4943 87.6706C40.8708 87.4693 42.6424 86.4648 44.431 85.4382L47.6833 83.572V78.2786V72.9856L44.6281 74.6247C42.9475 75.5263 41.3068 76.4865 40.9816 76.7586C39.5009 77.9969 38.7317 78.1528 37.7714 77.4094C37.2605 77.0142 35.7956 76.1189 34.5159 75.4206C33.2363 74.7224 31.8222 73.8928 31.3728 73.5771C30.9238 73.2614 30.4184 73.003 30.2496 73.003C30.0813 73.003 29.9433 75.3621 29.9437 78.245Z"/>
</mask>
<path fill-rule="evenodd" clip-rule="evenodd" d="M37.0393 0.591915C36.7141 0.777065 35.2405 1.65653 33.7641 2.54667C32.2882 3.43682 30.9486 4.16515 30.7874 4.16515C30.6261 4.16515 29.4025 4.87727 28.0676 5.74763C26.7328 6.618 25.4969 7.33011 25.3211 7.33011C25.1453 7.33011 24.3426 7.77954 23.5368 8.32866C22.7314 8.87817 21.0493 9.88424 19.7988 10.5651C18.5483 11.2456 17.0215 12.1551 16.4057 12.5859C15.3224 13.3435 15.3098 13.3914 16.0115 14.0648C16.4105 14.4473 17.89 15.375 19.2993 16.1267C20.7087 16.878 22.394 17.8089 23.0444 18.1954C24.3612 18.9772 23.5774 19.296 30.4361 15.1907C31.5746 14.509 33.4807 13.4195 34.6724 12.7691C35.8642 12.1187 37.2577 11.2558 37.7698 10.8515C38.8007 10.0377 38.9675 10.0876 41.9297 12.0934C42.8805 12.7374 43.8125 13.2644 44.0005 13.2644C44.1889 13.2644 45.2277 13.8563 46.3087 14.5798C47.39 15.303 49.5484 16.5801 51.1052 17.4172L53.9353 18.9396L55.2445 17.9513C55.9644 17.4081 57.5846 16.4444 58.8449 15.8098C60.1053 15.1753 61.4058 14.3579 61.7346 13.9931C62.2814 13.3871 62.1371 13.2035 60.0655 11.8738C58.8185 11.0735 57.518 10.3194 57.1758 10.1988C56.8332 10.0781 56.2872 9.75922 55.962 9.4902C55.6368 9.22118 54.395 8.50431 53.2024 7.89743C52.0099 7.29016 50.5375 6.45105 49.9308 6.03208C48.9255 5.33817 45.9129 3.601 41.4534 1.1438C39.7248 0.191151 38.1006 -0.0118015 37.0393 0.591915ZM7.86768 17.5173C7.33785 17.8979 5.56858 18.9313 3.9361 19.8131L0.968005 21.4162L0.8592 26.9548L0.75 32.4935L2.18221 33.2638C5.00169 34.781 6.50762 35.6403 7.8389 36.4917C8.58241 36.9672 9.33655 37.2659 9.51435 37.1555C9.69254 37.0451 9.838 34.7319 9.838 32.0144V27.0743L11.0621 26.4002C12.1418 25.806 16.0817 23.4338 17.7225 22.3898C18.231 22.0666 18.2034 21.9285 17.5253 21.4047C17.0917 21.0696 15.9386 20.3994 14.9629 19.9156C13.9872 19.4313 12.4537 18.538 11.5548 17.93C9.64444 16.6379 9.16546 16.5845 7.86768 17.5173ZM36.448 18.0886C35.3639 18.775 33.5899 19.8048 32.5058 20.3765C31.4217 20.9481 30.5347 21.6492 30.5347 21.934C30.5347 22.2185 31.6878 23.13 33.0971 23.9592C34.5065 24.7884 36.2485 25.8368 36.968 26.289C38.5074 27.2559 39.519 27.3331 40.1805 26.5331C40.4434 26.215 41.0415 25.8392 41.5098 25.698C42.5159 25.3945 47.6833 22.2758 47.6833 21.972C47.6833 21.701 46.667 21.0712 43.4218 19.3301C41.9715 18.5519 40.5046 17.67 40.162 17.3702C39.2568 16.5773 38.6486 16.6948 36.448 18.0886ZM66.1905 17.9367C65.2266 18.5483 63.9056 19.3225 63.2551 19.6572C61.2426 20.6934 59.5151 21.7611 59.5155 21.9681C59.5163 22.192 61.5836 23.4678 65.3902 25.5927L67.9858 27.0419L68.0958 32.2194C68.1561 35.0674 68.3079 37.3972 68.4328 37.3972C68.5578 37.3972 69.4483 36.8631 70.4122 36.2104C71.3761 35.5576 72.2655 35.0235 72.3888 35.0235C72.5122 35.0235 73.6567 34.3874 74.9316 33.6104L77.25 32.1968V26.9398V21.6828L74.7861 20.3773C73.4312 19.6592 71.5807 18.5665 70.6744 17.9486C68.6351 16.5583 68.3646 16.5576 66.1905 17.9367ZM21.5093 26.759C20.4485 27.4276 18.6745 28.4653 17.5671 29.0651L15.5542 30.1558L15.445 35.4666L15.3362 40.777L18.0075 42.3373C19.4767 43.1954 21.3 44.2395 22.0589 44.6569C22.8178 45.0746 24.0564 45.8374 24.8114 46.3521C25.5663 46.8668 26.3551 47.2877 26.5641 47.2877C26.7734 47.2877 27.619 47.7569 28.4437 48.3306L29.9433 49.3734V57.7843V66.1952L31.8506 67.4232C32.8992 68.0985 33.8595 68.6512 33.9841 68.6512C34.1091 68.6512 35.1538 69.2743 36.3061 70.0359C38.7195 71.631 39.1007 71.6892 40.5266 70.6795C41.1022 70.2717 42.6373 69.3863 43.9382 68.7113C48.0023 66.6031 47.6814 67.5233 47.6979 57.9259L47.7121 49.4636L49.4242 48.3757C50.366 47.7771 51.255 47.2877 51.4001 47.2877C51.5451 47.2877 52.7321 46.5756 54.0378 45.7052C55.3435 44.8349 56.5218 44.1228 56.6562 44.1228C56.7903 44.1228 58.1081 43.3901 59.5849 42.4948L62.2696 40.8672V35.6003C62.2696 30.3817 62.2601 30.3259 61.2308 29.5137C60.6595 29.0627 60.0343 28.6936 59.8415 28.6936C59.6484 28.6936 58.3671 27.9815 56.9937 27.1111C55.6206 26.2407 54.1986 25.5286 53.834 25.5286C53.0708 25.5286 51.5238 26.346 47.092 29.09C45.3574 30.1641 43.3173 31.3359 42.5584 31.694C41.7996 32.0516 40.6823 32.6984 40.076 33.1309L38.9734 33.917L37.4233 32.888C36.571 32.3218 35.755 31.8585 35.6103 31.8585C35.4656 31.8585 34.415 31.2378 33.2765 30.4794C32.1376 29.7206 30.7885 28.9401 30.2788 28.7442C29.7691 28.5484 28.3802 27.7449 27.1929 26.9584C26.0051 26.1719 24.6746 25.5322 24.2362 25.5361C23.7974 25.5401 22.5706 26.0908 21.5093 26.759ZM0.864324 52.8956L0.968005 66.8116L4.31889 68.6971C6.16188 69.7344 8.55678 71.0586 9.64089 71.6393C10.725 72.2205 12.1442 73.0956 12.7947 73.5838C13.4451 74.072 14.4208 74.6104 14.9629 74.7797C15.5049 74.9491 16.0371 75.2165 16.1456 75.374C16.254 75.5314 17.5845 76.3294 19.1022 77.1467C20.62 77.9645 22.3325 78.969 22.908 79.3788C23.4836 79.7887 24.0604 80.1242 24.1893 80.1242C24.3186 80.1242 24.4242 77.6512 24.4242 74.6282V69.1327L23.3441 68.8605C22.75 68.7109 22.1736 68.4605 22.0628 68.3042C21.8555 68.0107 18.6741 66.0745 16.934 65.1824C16.3919 64.9043 14.6179 63.9073 12.9918 62.9665L10.0351 61.2559L9.92907 52.5613L9.82342 43.8668L8.54929 43.1982C6.79224 42.2756 4.19866 40.7968 2.60403 39.8077C1.86999 39.3524 1.15487 38.9797 1.01492 38.9797C0.875363 38.9797 0.807556 45.242 0.864324 52.8956ZM75.1192 39.9688C74.3205 40.5127 73.5538 40.9578 73.4158 40.9578C73.2774 40.9578 72.049 41.6256 70.6862 42.4414L68.2081 43.925L68.0969 52.5685L67.9858 61.212L65.529 62.5238C64.1776 63.2451 62.6015 64.2068 62.0263 64.661C61.4511 65.1148 60.8239 65.4862 60.6324 65.4862C60.4408 65.4862 59.1765 66.1541 57.8227 66.9698C56.469 67.786 54.8755 68.7062 54.2818 69.0148L53.2024 69.5762V74.629C53.2024 77.4082 53.3578 79.7784 53.5478 79.8959C53.7378 80.0138 54.669 79.5826 55.6175 78.9373C56.5659 78.2925 57.4723 77.7615 57.6315 77.7576C57.7908 77.7536 58.8378 77.1843 59.9582 76.4928C61.9463 75.2652 62.7659 74.8003 67.0743 72.4579C68.2259 71.8316 69.6723 70.9624 70.2876 70.5264C70.9034 70.0905 72.6774 69.0603 74.2299 68.2374L77.0529 66.7408L77.1566 52.8604C77.2141 45.134 77.1073 38.9797 76.9157 38.9797C76.7265 38.9797 75.9179 39.4248 75.1192 39.9688ZM15.4446 52.7275L15.5542 58.1673L17.3818 59.1563C18.3867 59.7003 20.1824 60.7242 21.3718 61.4311C22.5615 62.1381 23.7347 62.7169 23.9795 62.7169C24.2866 62.7169 24.4242 61.1328 24.4242 57.5905V52.464L22.5517 51.3966C21.522 50.8091 19.5749 49.6444 18.2251 48.8081C16.8749 47.9721 15.6725 47.2877 15.5526 47.2877C15.4328 47.2877 15.3843 49.7358 15.4446 52.7275ZM60.1013 48.5486C59.0172 49.2579 57.0658 50.3997 55.7649 51.0861L53.3996 52.3339L53.2896 57.5252C53.1603 63.6268 53.1212 63.5889 56.9937 61.1344C58.3671 60.2641 59.6283 59.5512 59.7958 59.55C59.9638 59.5488 60.5957 59.1484 61.2004 58.6598L62.2991 57.7717L62.186 52.5154L62.0724 47.2592L60.1013 48.5486ZM29.9437 78.245L29.9441 83.4869L31.9712 84.6738C33.0865 85.3266 34.8159 86.3386 35.8145 86.9225C37.7119 88.0314 39.3341 88.291 40.4943 87.6706C40.8708 87.4693 42.6424 86.4648 44.431 85.4382L47.6833 83.572V78.2786V72.9856L44.6281 74.6247C42.9475 75.5263 41.3068 76.4865 40.9816 76.7586C39.5009 77.9969 38.7317 78.1528 37.7714 77.4094C37.2605 77.0142 35.7956 76.1189 34.5159 75.4206C33.2363 74.7224 31.8222 73.8928 31.3728 73.5771C30.9238 73.2614 30.4184 73.003 30.2496 73.003C30.0813 73.003 29.9433 75.3621 29.9437 78.245Z" stroke="white" stroke-width="6" mask="url(#path-1-inside-1_881_155)"/>
</svg>
