<svg width="289" height="63" viewBox="0 0 289 63" fill="none" xmlns="http://www.w3.org/2000/svg">
<path fill-rule="evenodd" clip-rule="evenodd" d="M2.53373 2.55828L5.06747 5.11657H34.3752H63.683L65.8415 2.55828L68 0H34H0L2.53373 2.55828ZM8.94151 9.63904L11.427 12.456L18.1435 12.4816L24.86 12.5072L25.0287 16.5134L25.1973 20.5191L29.7874 14.9654C32.312 11.9102 34.848 8.82835 35.4235 8.11658L36.4689 6.82209H21.4627H6.45597L8.94151 9.63904ZM37.8201 15.0282C33.8302 19.8952 34.0975 18.2033 34.1033 38.5115C34.1061 48.6736 34.2978 57.2632 34.5296 57.5992C34.7614 57.9352 36.5653 59.2882 38.5373 60.6049L42.1233 63V40.8066V18.6138H50.0126L57.9018 18.6132L60.3718 15.7712L62.8424 12.9287H51.1916H39.5414L37.8201 15.0282ZM29.0576 19.5009L25.459 23.8119L25.615 34.7796L25.7711 52.26L29.0639 54.5016C30.8747 55.7347 32.4922 56.6091 32.6585 56.4448C32.8244 56.2799 32.8921 41.8831 32.8083 32.4112L32.6562 15.1899L29.0576 19.5009Z" fill="white"/>
<path d="M85.52 18.8H102.728V22.364H89.696V30.068H101V33.632H89.696V44H85.52V18.8ZM105.621 22.22V20.132L107.097 18.692H109.293L110.769 20.132V22.22L109.293 23.66H107.097L105.621 22.22ZM106.161 26.072H110.229V44H106.161V26.072ZM115.258 26.072H119.038V29.348L122.314 26.072H128.002L131.782 29.852V44H127.714V30.968L126.31 29.564H123.07L119.326 33.344V44H115.258V26.072ZM136.101 22.22V20.132L137.577 18.692H139.773L141.249 20.132V22.22L139.773 23.66H137.577L136.101 22.22ZM136.641 26.072H140.709V44H136.641V26.072ZM147.358 40.436V29.528H144.118V26.072H147.43V20.24H151.426V26.072H156.934V29.528H151.426V39.14L152.83 40.544H156.934V44H150.922L147.358 40.436ZM176.568 26.072V48.248L172.86 51.92H163.716L160.548 48.788V46.412H164.616V47.6L165.48 48.5H171.096L172.5 47.06V40.94L169.476 44H163.68L160.008 40.292V26.072H164.076V39.104L165.48 40.508H168.756L172.5 36.62V26.072H176.568ZM196.643 22.364H189.083V18.8H208.379V22.364H200.819V44H196.643V22.364ZM207.851 40.4V29.672L211.415 26.072H221.351L224.951 29.672V40.4L221.351 44H211.415L207.851 40.4ZM219.443 40.58L220.883 39.14V30.932L219.443 29.492H213.359L211.919 30.932V39.14L213.359 40.58H219.443ZM229.09 40.364V26.072H233.158V39.104L234.562 40.508H237.694L241.51 36.692V26.072H245.578V44H241.798V40.688L238.45 44H232.726L229.09 40.364ZM249.898 40.436V29.636L253.426 26.072H262.894L266.458 29.672V32.624H262.39V30.968L260.95 29.564H255.406L253.966 30.968V39.104L255.406 40.508H260.95L262.39 39.104V37.448H266.458V40.4L262.894 44H253.426L249.898 40.436ZM270.051 18.296H274.119V29.168L277.215 26.072H282.867L286.647 29.852V44H282.579V30.968L281.175 29.564H277.863L274.119 33.344V44H270.051V18.296Z" fill="white"/>
</svg>
