<svg width="90" height="78" viewBox="0 0 90 78" fill="none" xmlns="http://www.w3.org/2000/svg">
<mask id="path-1-inside-1_900_126" fill="white">
<path fill-rule="evenodd" clip-rule="evenodd" d="M26.8405 23.4186V46.8372H32.2691H37.6977L38.0224 47.5585C38.201 47.9552 38.5736 48.5929 38.8505 48.9757L39.3538 49.6719L38.4311 51.545C37.9237 52.5753 37.5434 53.4508 37.5862 53.4907C37.7367 53.631 41.903 55.6842 42.0376 55.6842C42.1126 55.6842 42.5808 54.8646 43.0782 53.8628L43.9825 52.0413H44.9831H45.9836L46.8879 53.8628C47.3853 54.8646 47.8719 55.6842 47.9691 55.6842C48.1313 55.6842 52.2829 53.6567 52.461 53.4907C52.5037 53.4508 52.1233 52.5749 51.6157 51.5443L50.6927 49.6707L51.2891 48.8023C51.6169 48.3247 51.9873 47.6872 52.112 47.3855L52.3389 46.8372H57.7727H63.2066V23.4186V0H45.0236H26.8405V23.4186ZM58.0115 23.4186V41.6331L55.1974 41.6324L52.3834 41.6318L51.8017 40.505C51.1449 39.2324 49.7931 37.8876 48.5788 37.2989C46.2171 36.1536 43.8164 36.1604 41.4452 37.3194C40.3216 37.8686 38.6188 39.5975 38.0938 40.7223L37.6686 41.6331H34.8522H32.0357V23.4186V5.20413H45.0236H58.0115V23.4186ZM37.2308 13.0103V15.6124H45.0236H52.8163V13.0103V10.4083H45.0236H37.2308V13.0103ZM3.02281 11.5785C2.43957 12.9767 1.56193 15.7701 1.26494 17.1736C0.804303 19.3504 0.843094 22.7306 1.3491 24.5099C1.75952 25.953 2.62936 27.8036 3.36413 28.7962C4.79176 30.7252 7.47506 32.8932 9.99956 34.1573C10.9906 34.6536 11.0822 34.7464 11.0853 35.2604C11.0885 35.7951 11.4371 38.5994 11.7025 40.2272C11.8246 40.9753 11.8186 40.9879 11.3969 40.8818C10.0432 40.5414 7.48787 40.4071 5.74299 40.5844C3.98391 40.7633 0.946997 41.3194 0.771747 41.495C0.605328 41.6617 1.43257 45.9338 1.94083 47.5311C3.87152 53.6003 7.68131 57.0897 13.5063 58.1243C14.1254 58.2342 15.7347 58.3201 17.0823 58.3153L19.5328 58.3064L20.9494 59.9304C21.7285 60.8236 22.8345 61.9628 23.4076 62.4619L24.4492 63.3695L22.9173 64.1682C22.0748 64.6074 21.09 65.171 20.7288 65.4206C19.5633 66.2259 17.4276 68.1315 16.479 69.2129L15.5553 70.2657L16.9107 71.6609C24.0005 78.959 31.3797 79.9643 38.712 74.6311L40.1067 73.6166L42.5614 74.9666L45.0163 76.3165L47.1413 75.1673C48.31 74.5351 49.4166 73.9268 49.6005 73.8152C49.8881 73.6406 50.1292 73.753 51.3322 74.6222C53.0922 75.8939 55.4409 77.0678 57.2322 77.5709C59.0202 78.0731 62.0059 78.108 63.8127 77.6477C65.4393 77.2335 68.2146 75.858 69.6936 74.7332C71.0245 73.721 74.0442 70.8884 74.2972 70.415C74.4276 70.1708 74.1383 69.7902 72.7623 68.3962C70.8163 66.425 69.3199 65.3002 67.1357 64.1673L65.598 63.3695L66.6396 62.4619C67.2126 61.9628 68.3187 60.8236 69.0978 59.9304L70.5143 58.3064L72.9649 58.3153C74.3125 58.3201 75.9218 58.2342 76.5409 58.1243C83.5836 56.8735 87.5252 52.2713 89.0203 43.553C89.2816 42.0294 89.3121 41.5399 89.1516 41.4405C89.0366 41.3694 88.0419 41.1373 86.941 40.9248C84.6682 40.4859 81.1294 40.3973 79.4122 40.736C78.8484 40.8472 78.3548 40.906 78.3155 40.8667C78.2762 40.8271 78.364 40.0272 78.5109 39.0889C78.6575 38.1506 78.8311 36.7734 78.8962 36.0286L79.0148 34.6741L80.0724 34.1447C83.2819 32.538 86.278 29.806 87.5802 27.2986C89.3677 23.8571 89.6183 20.2517 88.3893 15.6578C87.943 13.9901 86.9871 11.3023 86.7448 11.0341C86.5497 10.8184 83.2488 11.9882 81.3292 12.9538C78.328 14.4632 76.1672 16.2683 74.7203 18.4747C72.4088 21.9998 71.9577 26.844 73.4605 32.0054C74.0534 34.0416 73.7213 37.6644 72.524 42.2187C72.059 43.9872 71.8841 44.3925 71.2877 45.081C69.5755 47.0577 68.2232 49.7121 67.441 52.6311C67.2136 53.4803 66.8107 54.4951 66.5457 54.8862C65.7408 56.0747 61.8451 59.8642 59.947 61.3054C58.5892 62.3363 57.923 62.7233 57.1763 62.9154C55.7921 63.2713 52.9507 64.6738 51.5175 65.7088C50.8508 66.1901 49.7148 67.1224 48.9928 67.7805C48.2319 68.4741 47.1222 69.2639 46.352 69.6597L45.0236 70.3425L43.6898 69.657C42.9019 69.2519 41.8209 68.4801 41.0489 67.7713C40.3301 67.1115 39.1963 66.1806 38.5296 65.7029C37.0509 64.6435 34.1773 63.2245 32.9495 62.9474C32.2631 62.7925 31.595 62.4076 30.1788 61.3508C28.2467 59.9093 24.3455 56.1323 23.5014 54.8862C23.2365 54.4951 22.8335 53.4803 22.6061 52.6311C21.8326 49.744 20.3902 46.9017 18.8086 45.1483C18.0697 44.3288 17.9513 44.0327 17.3065 41.3899C16.3267 37.3745 16.0356 33.8452 16.5468 32.1789C17.3703 29.4948 17.6712 26.3067 17.3259 23.9262C16.6346 19.158 13.8033 15.5116 8.84935 13.0093C7.35141 12.2528 3.97837 10.9287 3.5489 10.9287C3.40864 10.9287 3.17191 11.2212 3.02281 11.5785ZM8.24082 18.6606C10.4164 20.2007 11.6966 22.0421 12.1292 24.254C12.3535 25.4003 12.2738 28.2031 11.9959 28.9397C11.8444 29.3414 11.8373 29.3392 10.5255 28.4604C8.03388 26.7909 6.64175 24.8045 6.22372 22.3223C6.02838 21.1617 6.07514 19.3826 6.33524 18.0894C6.4672 17.4332 6.5356 17.4536 8.24082 18.6606ZM83.914 19.9492C84.1748 23.566 82.7733 26.2817 79.5217 28.4604C78.2099 29.3392 78.2028 29.3414 78.0513 28.9397C77.7733 28.2031 77.6937 25.4003 77.9179 24.254C78.3744 21.9205 79.7664 20.0199 82.2256 18.3721L83.5441 17.4888L83.6759 17.9818C83.7485 18.2528 83.8556 19.1382 83.914 19.9492ZM37.2308 23.4186V26.0207H45.0236H52.8163V23.4186V20.8165H45.0236H37.2308V23.4186ZM46.2008 41.9621C46.952 42.346 47.6212 43.4167 47.6212 44.2351C47.6212 45.0334 46.9958 46.0415 46.2351 46.4698C45.8761 46.6719 45.331 46.8372 45.0236 46.8372C43.7478 46.8372 42.4173 45.4886 42.4333 44.2115C42.4437 43.3738 42.9599 42.5186 43.7409 42.0451C44.5597 41.5488 45.3401 41.5224 46.2008 41.9621ZM9.12019 45.7995C11.8624 46.144 13.7595 47.1106 15.157 48.8757C15.9529 49.8807 17.0165 51.8816 17.2409 52.7956L17.3621 53.2896L15.997 53.1703C11.6547 52.7909 9.39675 51.3811 7.73482 48.0111C7.2986 47.1269 6.89407 46.228 6.83553 46.0132C6.70877 45.5474 6.94082 45.5257 9.12019 45.7995ZM83.2116 46.0132C83.1531 46.228 82.7486 47.1269 82.3123 48.0111C80.6504 51.3811 78.3924 52.7909 74.0501 53.1703L72.685 53.2896L72.8052 52.7956C73.0191 51.9168 74.0955 49.8988 74.8931 48.8815C76.5144 46.8141 79.0413 45.7487 82.5702 45.6449C83.2658 45.6245 83.3105 45.6501 83.2116 46.0132ZM31.4185 67.9183C32.4629 68.1908 34.7337 69.3012 35.4991 69.9137C35.9887 70.3054 36.0966 70.1803 34.3124 71.2898C31.0574 73.3143 27.7926 73.2889 24.4388 71.2137C22.8212 70.2128 22.9113 70.3229 23.3863 69.9257C24.0743 69.3506 26.3816 68.1969 27.3836 67.9268C28.6122 67.5958 30.1698 67.5925 31.4185 67.9183ZM62.5894 67.9183C63.6338 68.1908 65.9046 69.3012 66.6701 69.9137C67.1596 70.3054 67.2675 70.1803 65.4833 71.2898C62.2779 73.2834 58.9402 73.2834 55.7348 71.2898C53.9506 70.1803 54.0585 70.3054 54.548 69.9137C55.278 69.3296 57.5737 68.1911 58.5545 67.9268C59.7832 67.5958 61.3407 67.5925 62.5894 67.9183Z"/>
</mask>
<path fill-rule="evenodd" clip-rule="evenodd" d="M26.8405 23.4186V46.8372H32.2691H37.6977L38.0224 47.5585C38.201 47.9552 38.5736 48.5929 38.8505 48.9757L39.3538 49.6719L38.4311 51.545C37.9237 52.5753 37.5434 53.4508 37.5862 53.4907C37.7367 53.631 41.903 55.6842 42.0376 55.6842C42.1126 55.6842 42.5808 54.8646 43.0782 53.8628L43.9825 52.0413H44.9831H45.9836L46.8879 53.8628C47.3853 54.8646 47.8719 55.6842 47.9691 55.6842C48.1313 55.6842 52.2829 53.6567 52.461 53.4907C52.5037 53.4508 52.1233 52.5749 51.6157 51.5443L50.6927 49.6707L51.2891 48.8023C51.6169 48.3247 51.9873 47.6872 52.112 47.3855L52.3389 46.8372H57.7727H63.2066V23.4186V0H45.0236H26.8405V23.4186ZM58.0115 23.4186V41.6331L55.1974 41.6324L52.3834 41.6318L51.8017 40.505C51.1449 39.2324 49.7931 37.8876 48.5788 37.2989C46.2171 36.1536 43.8164 36.1604 41.4452 37.3194C40.3216 37.8686 38.6188 39.5975 38.0938 40.7223L37.6686 41.6331H34.8522H32.0357V23.4186V5.20413H45.0236H58.0115V23.4186ZM37.2308 13.0103V15.6124H45.0236H52.8163V13.0103V10.4083H45.0236H37.2308V13.0103ZM3.02281 11.5785C2.43957 12.9767 1.56193 15.7701 1.26494 17.1736C0.804303 19.3504 0.843094 22.7306 1.3491 24.5099C1.75952 25.953 2.62936 27.8036 3.36413 28.7962C4.79176 30.7252 7.47506 32.8932 9.99956 34.1573C10.9906 34.6536 11.0822 34.7464 11.0853 35.2604C11.0885 35.7951 11.4371 38.5994 11.7025 40.2272C11.8246 40.9753 11.8186 40.9879 11.3969 40.8818C10.0432 40.5414 7.48787 40.4071 5.74299 40.5844C3.98391 40.7633 0.946997 41.3194 0.771747 41.495C0.605328 41.6617 1.43257 45.9338 1.94083 47.5311C3.87152 53.6003 7.68131 57.0897 13.5063 58.1243C14.1254 58.2342 15.7347 58.3201 17.0823 58.3153L19.5328 58.3064L20.9494 59.9304C21.7285 60.8236 22.8345 61.9628 23.4076 62.4619L24.4492 63.3695L22.9173 64.1682C22.0748 64.6074 21.09 65.171 20.7288 65.4206C19.5633 66.2259 17.4276 68.1315 16.479 69.2129L15.5553 70.2657L16.9107 71.6609C24.0005 78.959 31.3797 79.9643 38.712 74.6311L40.1067 73.6166L42.5614 74.9666L45.0163 76.3165L47.1413 75.1673C48.31 74.5351 49.4166 73.9268 49.6005 73.8152C49.8881 73.6406 50.1292 73.753 51.3322 74.6222C53.0922 75.8939 55.4409 77.0678 57.2322 77.5709C59.0202 78.0731 62.0059 78.108 63.8127 77.6477C65.4393 77.2335 68.2146 75.858 69.6936 74.7332C71.0245 73.721 74.0442 70.8884 74.2972 70.415C74.4276 70.1708 74.1383 69.7902 72.7623 68.3962C70.8163 66.425 69.3199 65.3002 67.1357 64.1673L65.598 63.3695L66.6396 62.4619C67.2126 61.9628 68.3187 60.8236 69.0978 59.9304L70.5143 58.3064L72.9649 58.3153C74.3125 58.3201 75.9218 58.2342 76.5409 58.1243C83.5836 56.8735 87.5252 52.2713 89.0203 43.553C89.2816 42.0294 89.3121 41.5399 89.1516 41.4405C89.0366 41.3694 88.0419 41.1373 86.941 40.9248C84.6682 40.4859 81.1294 40.3973 79.4122 40.736C78.8484 40.8472 78.3548 40.906 78.3155 40.8667C78.2762 40.8271 78.364 40.0272 78.5109 39.0889C78.6575 38.1506 78.8311 36.7734 78.8962 36.0286L79.0148 34.6741L80.0724 34.1447C83.2819 32.538 86.278 29.806 87.5802 27.2986C89.3677 23.8571 89.6183 20.2517 88.3893 15.6578C87.943 13.9901 86.9871 11.3023 86.7448 11.0341C86.5497 10.8184 83.2488 11.9882 81.3292 12.9538C78.328 14.4632 76.1672 16.2683 74.7203 18.4747C72.4088 21.9998 71.9577 26.844 73.4605 32.0054C74.0534 34.0416 73.7213 37.6644 72.524 42.2187C72.059 43.9872 71.8841 44.3925 71.2877 45.081C69.5755 47.0577 68.2232 49.7121 67.441 52.6311C67.2136 53.4803 66.8107 54.4951 66.5457 54.8862C65.7408 56.0747 61.8451 59.8642 59.947 61.3054C58.5892 62.3363 57.923 62.7233 57.1763 62.9154C55.7921 63.2713 52.9507 64.6738 51.5175 65.7088C50.8508 66.1901 49.7148 67.1224 48.9928 67.7805C48.2319 68.4741 47.1222 69.2639 46.352 69.6597L45.0236 70.3425L43.6898 69.657C42.9019 69.2519 41.8209 68.4801 41.0489 67.7713C40.3301 67.1115 39.1963 66.1806 38.5296 65.7029C37.0509 64.6435 34.1773 63.2245 32.9495 62.9474C32.2631 62.7925 31.595 62.4076 30.1788 61.3508C28.2467 59.9093 24.3455 56.1323 23.5014 54.8862C23.2365 54.4951 22.8335 53.4803 22.6061 52.6311C21.8326 49.744 20.3902 46.9017 18.8086 45.1483C18.0697 44.3288 17.9513 44.0327 17.3065 41.3899C16.3267 37.3745 16.0356 33.8452 16.5468 32.1789C17.3703 29.4948 17.6712 26.3067 17.3259 23.9262C16.6346 19.158 13.8033 15.5116 8.84935 13.0093C7.35141 12.2528 3.97837 10.9287 3.5489 10.9287C3.40864 10.9287 3.17191 11.2212 3.02281 11.5785ZM8.24082 18.6606C10.4164 20.2007 11.6966 22.0421 12.1292 24.254C12.3535 25.4003 12.2738 28.2031 11.9959 28.9397C11.8444 29.3414 11.8373 29.3392 10.5255 28.4604C8.03388 26.7909 6.64175 24.8045 6.22372 22.3223C6.02838 21.1617 6.07514 19.3826 6.33524 18.0894C6.4672 17.4332 6.5356 17.4536 8.24082 18.6606ZM83.914 19.9492C84.1748 23.566 82.7733 26.2817 79.5217 28.4604C78.2099 29.3392 78.2028 29.3414 78.0513 28.9397C77.7733 28.2031 77.6937 25.4003 77.9179 24.254C78.3744 21.9205 79.7664 20.0199 82.2256 18.3721L83.5441 17.4888L83.6759 17.9818C83.7485 18.2528 83.8556 19.1382 83.914 19.9492ZM37.2308 23.4186V26.0207H45.0236H52.8163V23.4186V20.8165H45.0236H37.2308V23.4186ZM46.2008 41.9621C46.952 42.346 47.6212 43.4167 47.6212 44.2351C47.6212 45.0334 46.9958 46.0415 46.2351 46.4698C45.8761 46.6719 45.331 46.8372 45.0236 46.8372C43.7478 46.8372 42.4173 45.4886 42.4333 44.2115C42.4437 43.3738 42.9599 42.5186 43.7409 42.0451C44.5597 41.5488 45.3401 41.5224 46.2008 41.9621ZM9.12019 45.7995C11.8624 46.144 13.7595 47.1106 15.157 48.8757C15.9529 49.8807 17.0165 51.8816 17.2409 52.7956L17.3621 53.2896L15.997 53.1703C11.6547 52.7909 9.39675 51.3811 7.73482 48.0111C7.2986 47.1269 6.89407 46.228 6.83553 46.0132C6.70877 45.5474 6.94082 45.5257 9.12019 45.7995ZM83.2116 46.0132C83.1531 46.228 82.7486 47.1269 82.3123 48.0111C80.6504 51.3811 78.3924 52.7909 74.0501 53.1703L72.685 53.2896L72.8052 52.7956C73.0191 51.9168 74.0955 49.8988 74.8931 48.8815C76.5144 46.8141 79.0413 45.7487 82.5702 45.6449C83.2658 45.6245 83.3105 45.6501 83.2116 46.0132ZM31.4185 67.9183C32.4629 68.1908 34.7337 69.3012 35.4991 69.9137C35.9887 70.3054 36.0966 70.1803 34.3124 71.2898C31.0574 73.3143 27.7926 73.2889 24.4388 71.2137C22.8212 70.2128 22.9113 70.3229 23.3863 69.9257C24.0743 69.3506 26.3816 68.1969 27.3836 67.9268C28.6122 67.5958 30.1698 67.5925 31.4185 67.9183ZM62.5894 67.9183C63.6338 68.1908 65.9046 69.3012 66.6701 69.9137C67.1596 70.3054 67.2675 70.1803 65.4833 71.2898C62.2779 73.2834 58.9402 73.2834 55.7348 71.2898C53.9506 70.1803 54.0585 70.3054 54.548 69.9137C55.278 69.3296 57.5737 68.1911 58.5545 67.9268C59.7832 67.5958 61.3407 67.5925 62.5894 67.9183Z" fill="white" stroke="#0D0D0D" stroke-width="2" mask="url(#path-1-inside-1_900_126)"/>
</svg>
