<svg width="90" height="76" viewBox="0 0 90 76" fill="none" xmlns="http://www.w3.org/2000/svg">
<path fill-rule="evenodd" clip-rule="evenodd" d="M48.7314 0.810666C40.6073 2.30435 34.0719 8.75148 32.413 16.9084C32.0016 18.9315 31.9754 23.1233 32.3626 24.9955C32.5159 25.736 32.6128 26.3418 32.5782 26.3418C32.5437 26.3418 32.0575 26.0475 31.4981 25.688C30.9385 25.3285 29.7154 24.7818 28.7799 24.4733C27.3433 23.9996 26.6828 23.9108 24.5278 23.9029C20.6851 23.8887 17.7509 24.5323 12.3839 26.5671C9.30253 27.7353 7.08929 28.1804 3.37333 28.3787C1.10757 28.4996 0.893266 28.5491 0.44998 29.0532C-0.146384 29.7311 -0.148723 30.0062 0.435522 30.7586L0.899432 31.3562L3.9967 31.2384C7.54512 31.1033 9.6106 30.7171 12.4989 29.6484C18.788 27.3211 20.605 26.8965 24.3152 26.887C26.4436 26.8814 27.1033 26.9633 28.2954 27.3805C30.2535 28.066 31.901 29.3572 33.0482 31.1057C33.5674 31.8967 34.1427 32.6026 34.3267 32.6741C34.5108 32.7456 36.8399 32.8042 39.5024 32.8042C44.4833 32.8042 45.246 32.9065 46.3447 33.7221C47.071 34.2613 47.7824 35.5622 47.8561 36.4859L47.9146 37.2202L33.9437 37.334L30.1081 35.7924C25.9289 34.1131 25.4437 34.0594 24.8971 35.2151C24.6118 35.8183 24.8556 36.7592 25.3538 36.977C25.4841 37.0341 27.2604 37.7665 29.3012 38.6045L33.0115 40.1283H64.7929L65.1137 40.5925C65.453 41.0832 65.2904 41.7043 64.7697 41.9066C64.6202 41.9645 58.8182 42.9179 51.8763 44.0249L39.2547 46.038L17.4233 41.6196L9.49473 43.7925C5.13394 44.9874 1.31125 46.0658 0.999782 46.1888C0.6881 46.3118 0.315399 46.701 0.171039 47.0537C-0.0573019 47.6122 -0.0362537 47.7701 0.333258 48.274C0.566701 48.5922 0.990853 48.8812 1.27553 48.9164C1.56043 48.9512 5.32996 47.9989 9.65248 46.7997L17.5117 44.6195L39.2751 49.0172L52.4181 46.9242C67.0846 44.5887 66.9292 44.6298 67.773 42.8636C68.7429 40.8336 68.0502 38.6799 66.113 37.7017L65.064 37.1722L66.3377 35.9036C72.6585 29.6088 74.3745 20.327 70.6787 12.4221C69.5138 9.93045 68.7523 8.80599 66.8688 6.79703C62.3173 1.94224 55.2551 -0.388546 48.7314 0.810666ZM57.2693 4.14873C69.2185 7.99581 73.5566 22.287 65.7858 32.2058C64.5418 33.7936 62.3864 35.5891 60.552 36.5658L59.1031 37.3374L50.8911 37.2202L50.7599 36.1313C50.494 33.9235 49.125 31.8564 47.2404 30.817C45.8555 30.0534 44.0892 29.7921 40.3001 29.7901L37.1503 29.7884L36.4476 28.2267C35.3567 25.8022 34.9526 23.818 34.9664 20.9564C34.9806 18.027 35.3657 16.2738 36.5746 13.6328C38.8403 8.68255 43.2793 5.04356 48.5524 3.81354C50.5358 3.35105 55.3684 3.53695 57.2693 4.14873ZM63.6476 50.3919C60.0764 50.9746 57.0297 52.6855 55.2068 55.1319L54.3741 56.2495L44.7149 56.3921L43.2961 57.1002C41.0025 58.2449 39.304 60.6967 39.304 62.8627V63.6085L32.5537 63.6136C25.5889 63.6192 24.3773 63.7351 23.3217 64.4966C22.099 65.3788 21.5347 67.4179 22.0958 68.926C22.4096 69.7691 23.5196 70.883 24.2999 71.1376C24.6592 71.2548 30.7863 72.2843 37.9161 73.4253L50.8792 75.5L72.6064 71.1008L80.5567 73.3041C89.0988 75.6713 89.3118 75.6999 89.8542 74.5533C90.1829 73.8583 89.8821 73.0253 89.1902 72.7143C88.94 72.6018 85.1175 71.512 80.6959 70.2924L72.6564 68.0749L50.8025 72.4997L38.0932 70.4774C24.4245 68.3026 24.2214 68.2522 24.91 67.2009L25.2173 66.732L57.4819 66.5166L60.99 65.0474C62.9194 64.2392 64.6774 63.4006 64.8966 63.1835C65.7014 62.3867 65.1307 60.8081 64.0381 60.8081C63.763 60.8081 61.9869 61.4382 60.0911 62.2083L56.6443 63.6085H42.0341L42.1833 62.9084C42.4476 61.6672 43.1178 60.6075 44.0224 60.0005L44.9056 59.4079L50.3432 59.3002C53.334 59.241 55.9021 59.1132 56.0498 59.0163C56.1978 58.9193 56.5188 58.4426 56.7635 57.9569C57.338 56.8158 58.9294 55.2541 60.2601 54.5253C62.0641 53.5374 63.7675 53.2065 66.4115 53.3306C69.5219 53.4765 72.312 54.1294 76.2977 55.6437C80.2035 57.1279 82.2029 57.5519 86.1232 57.7272C89.2521 57.8675 89.5398 57.7953 89.9218 56.777C90.1842 56.0778 89.7641 55.275 88.9931 55.0027C88.6411 54.8782 87.4709 54.7765 86.3927 54.7765C83.9057 54.7765 81.1581 54.2929 78.849 53.4485C74.1778 51.7402 72.846 51.3193 70.7699 50.8947C68.5775 50.4462 64.9043 50.1871 63.6476 50.3919Z" fill="white"/>
<path d="M44.8939 15.6983C45.7951 11.4475 49.1731 8.32849 53.3538 7.88708C53.6025 7.8608 53.9269 7.83589 54.0746 7.83171L54.3432 7.82409V9.76205L53.9615 9.79727C51.8147 9.99547 50.1885 10.7559 48.8091 12.2065C47.7528 13.3174 47.1112 14.5466 46.7822 16.09C46.6409 16.7524 46.6434 18.4842 46.7865 19.1496C47.1253 20.7255 47.8099 22.0031 48.912 23.1164C49.8582 24.0722 50.9167 24.719 52.1472 25.0931C52.7307 25.2705 53.5224 25.4044 53.9898 25.4047L54.3432 25.405V27.3819L53.6742 27.3414C52.0208 27.2412 50.4438 26.6932 48.9723 25.7074C48.0947 25.1195 46.9619 23.9772 46.3811 23.0942C45.658 21.9951 45.1755 20.8318 44.893 19.5065C44.7816 18.9844 44.7645 18.7354 44.7625 17.6167C44.7606 16.473 44.7753 16.2574 44.8939 15.6983Z" fill="white"/>
<path d="M50.4186 13.3258C51.4117 12.3847 52.6504 11.8512 54.0605 11.757C54.2004 11.7477 54.4039 11.747 54.5128 11.7556C55.3022 11.8173 55.5276 11.8522 55.9652 11.9807C58.2678 12.6565 59.9235 14.7196 60.1333 17.1742L60.1713 17.6194L58.2159 17.5881L58.1797 17.178C58.102 16.2966 57.7448 15.559 57.0597 14.8651C56.2743 14.0695 55.4497 13.7226 54.3444 13.7226C51.7412 13.7226 49.9023 16.273 50.6905 18.7907C51.1539 20.2709 52.4599 21.35 53.9588 21.4911L54.3432 21.5273V23.4749L53.871 23.4412C52.559 23.3474 51.2395 22.7251 50.2698 21.7428C47.9533 19.3964 48.0205 15.5981 50.4186 13.3258Z" fill="white"/>
<path d="M43.8296 26.1801C41.9993 23.8265 41.0509 21.2706 40.8588 18.1737L40.8241 17.6139L42.7816 17.6453L42.8188 18.3898C42.8885 19.7848 43.2939 21.3433 43.9404 22.7012C45.2859 25.5274 47.6952 27.6892 50.6189 28.6936C51.724 29.0732 52.3539 29.1935 53.9615 29.3325L54.3432 29.3655V31.3181L53.7071 31.2787C50.286 31.0666 47.2298 29.6991 44.868 27.3239C44.492 26.9457 44.0246 26.4309 43.8296 26.1801Z" fill="white"/>
<path d="M57.4532 18.9757C57.4478 18.7859 57.4999 18.5929 57.5688 18.5469C57.7306 18.4388 65.0202 18.4623 65.0202 18.5709C65.0202 18.616 64.3535 19.284 63.5387 20.0554L62.0571 21.4579H56.1721L56.1131 24.1828L55.3225 24.1933V20.603H61.6637L62.2879 20.0526C62.6312 19.75 62.912 19.4629 62.912 19.4147C62.912 19.3665 62.7105 19.3323 62.464 19.3386C62.2176 19.3449 60.9915 19.3434 59.7394 19.3354L57.4628 19.3206L57.4532 18.9757Z" fill="white"/>
<path d="M57.5361 24.2556V22.4196H58.3794V23.4017L60.2836 23.3595C61.3309 23.3363 62.2079 23.3503 62.2324 23.3906C62.2571 23.431 61.611 24.0946 60.7969 24.8653L59.3165 26.2666H56.1658V30.1302L57.5293 28.8848L57.5361 27.2284H58.3794V29.2299L57.0354 30.5011C56.2963 31.2002 55.6085 31.8378 55.507 31.9178C55.3322 32.0558 55.3225 31.8892 55.3225 28.7375V25.4118H58.9231L59.5482 24.8606C59.8919 24.5575 60.1451 24.2809 60.1107 24.2461C60.0764 24.2114 59.483 24.1992 58.7922 24.2193L57.5361 24.2556Z" fill="white"/>
</svg>
