<svg width="50" height="50" viewBox="0 0 50 50" fill="none" xmlns="http://www.w3.org/2000/svg">
<path fill-rule="evenodd" clip-rule="evenodd" d="M12.9895 0.0951197C8.10505 0.640437 3.76282 3.70136 1.5192 8.18072C0.799942 9.61653 0.292182 11.3828 0.105678 13.0971C-0.0352259 14.393 -0.0352259 35.5925 0.105678 36.8884C0.854136 43.769 6.22917 49.1456 13.1078 49.8943C14.4033 50.0352 35.5967 50.0352 36.8922 49.8943C40.2441 49.5295 43.1733 48.1405 45.5915 45.7694C48.0445 43.3642 49.5215 40.3156 49.8943 36.8884C50.0352 35.5925 50.0352 14.393 49.8943 13.0971C49.5296 9.74419 48.1411 6.81415 45.7706 4.39524C43.3661 1.94156 40.3184 0.464134 36.8922 0.0912127C35.7522 -0.0328339 14.1041 -0.02922 12.9895 0.0951197ZM37.7898 2.175C39.7742 2.6495 41.3804 3.36595 42.8783 4.44476C44.8681 5.87784 46.6528 8.34891 47.3928 10.6956C48.029 12.713 47.9957 11.9244 47.9957 24.9928C47.9957 36.0675 47.9839 36.9148 47.8193 37.6782C47.5585 38.8883 47.1915 39.9853 46.753 40.8649C44.9239 44.5341 41.797 46.9311 37.6818 47.8187C36.9186 47.9833 36.0715 47.9951 25 47.9951C13.9285 47.9951 13.0814 47.9833 12.3182 47.8187C9.59543 47.2315 7.32476 46.0006 5.53715 44.1428C3.83381 42.3727 2.73734 40.2608 2.18066 37.6782C2.01613 36.9148 2.00431 36.0675 2.00431 24.9928C2.00431 13.918 2.01613 13.0707 2.18066 12.3073C2.73734 9.72466 3.83381 7.61284 5.53715 5.84268C7.50355 3.79904 10.238 2.41919 13.0515 2.05066C13.4231 2.00202 18.9234 1.97125 25.3906 1.98161C36.2224 1.99899 37.1117 2.01286 37.7898 2.175ZM12.9717 4.43207C10.9153 4.77822 9.07517 5.70135 7.54583 7.15425C5.86856 8.74762 4.81574 10.7406 4.44303 13.0276C4.22996 14.335 4.22996 35.6505 4.44303 36.9579C5.06113 40.7507 7.70666 43.9028 11.292 45.1183C12.7944 45.6276 13.5448 45.699 17.4064 45.6994L20.8957 45.6998L21.2124 45.4167C21.6397 45.0349 21.6601 44.4634 21.2608 44.0637L20.9924 43.7951L17.113 43.7403L13.2336 43.6856L12.3548 43.4172C9.51282 42.5491 7.46899 40.5067 6.57503 37.6416L6.30075 36.7625V24.9928V13.223L6.57503 12.3439C7.46811 9.48155 9.49329 7.45578 12.3548 6.56244L13.2336 6.28808H25H36.7664L37.6452 6.56244C40.5067 7.45578 42.5319 9.48155 43.425 12.3439L43.6993 13.223V24.9928V36.7625L43.425 37.6416C42.5311 40.5064 40.489 42.5472 37.6452 43.4177L36.7664 43.6867L33.1046 43.7181C31.0907 43.7355 29.3403 43.7726 29.2149 43.8008C29.0894 43.8288 28.8808 43.9663 28.7511 44.1063C28.3311 44.5596 28.4889 45.2932 29.0703 45.5907C29.4111 45.765 35.8532 45.7364 36.9617 45.5557C41.404 44.8313 44.8328 41.4015 45.557 36.9579C45.77 35.6505 45.77 14.335 45.557 13.0276C44.8328 8.58401 41.404 5.15417 36.9617 4.42982C35.7457 4.23154 14.1509 4.23359 12.9717 4.43207ZM36.6492 8.66284C34.052 9.58489 33.2872 12.8451 35.2156 14.7741C37.0357 16.5946 40.0754 16.0298 41.1985 13.6625C41.4177 13.2006 41.4534 12.9953 41.4534 12.1974C41.4534 11.362 41.4233 11.2062 41.1512 10.6346C40.5336 9.33689 39.3566 8.55852 37.9381 8.50959C37.3714 8.49005 37.0175 8.53215 36.6492 8.66284ZM38.5027 10.5737C40.0606 11.2405 39.7921 13.5585 38.1172 13.9038C37.0455 14.1246 35.865 12.9437 36.0858 11.8717C36.1835 11.3974 36.5798 10.8558 36.9859 10.6413C37.417 10.4137 38.0616 10.3849 38.5027 10.5737ZM23.8282 11.5823C21.9068 11.7335 18.7751 12.7762 18.457 13.3708C18.2358 13.7843 18.3114 14.2648 18.6448 14.5627C19.0374 14.9136 19.2731 14.9052 20.2453 14.5061C22.1629 13.719 23.0744 13.5305 25 13.5236C26.425 13.5185 27.4295 13.6607 28.5041 14.0197C32.5075 15.357 35.4111 18.6102 36.2929 22.7462C36.5348 23.8809 36.5358 26.0996 36.2951 27.2281C35.3085 31.8527 31.8611 35.3045 27.2459 36.2889C26.1061 36.5319 23.8939 36.5319 22.7541 36.2889C18.6193 35.4069 15.367 32.5025 14.0301 28.4979C13.6696 27.4179 13.5283 26.4189 13.5344 24.9928C13.543 22.9834 13.8145 21.8213 14.7748 19.685C15.0608 19.0488 15.1042 18.8676 15.0316 18.6141C14.9083 18.1843 14.6418 17.9536 14.2 17.8946C13.6689 17.8238 13.4111 18.0581 12.913 19.0635C10.3725 24.1918 11.4249 30.438 15.5152 34.5084C20.8009 39.7685 29.1991 39.7685 34.4848 34.5084C39.7765 29.2424 39.7765 20.7431 34.4848 15.4771C31.6355 12.6416 27.8676 11.2645 23.8282 11.5823ZM15.9485 15.0492C15.8304 15.1062 15.6626 15.3031 15.5755 15.4867C15.2023 16.2735 15.9106 17.0648 16.7424 16.7902C17.7272 16.4652 17.5381 14.9198 16.5159 14.9389C16.3218 14.9425 16.0664 14.9921 15.9485 15.0492ZM23.4117 16.35C20.7093 16.8626 18.3435 18.666 17.1349 21.1346C16.4544 22.5245 16.2783 23.3177 16.2783 24.9928C16.2783 26.1447 16.3181 26.5549 16.4914 27.1904C17.1588 29.6376 18.9004 31.7603 21.143 32.8598C22.5317 33.5406 23.3251 33.7169 25 33.7169C26.6749 33.7169 27.4683 33.5406 28.857 32.8598C31.0996 31.7603 32.8412 29.6376 33.5086 27.1904C33.6819 26.5549 33.7217 26.1447 33.7217 24.9928C33.7217 23.318 33.5456 22.5249 32.8653 21.1346C31.7671 18.8902 29.6062 17.12 27.197 16.4909C26.1632 16.2209 24.432 16.1565 23.4117 16.35ZM26.3467 18.3079C26.7749 18.3946 27.4994 18.6525 28.027 18.906C28.8161 19.285 29.0809 19.4789 29.7999 20.2042C30.5043 20.9148 30.7187 21.2096 31.0878 21.9748C32.0746 24.0208 32.0746 25.9647 31.0878 28.0107C30.7187 28.7759 30.5043 29.0707 29.7999 29.7813C29.0809 30.5066 28.8161 30.7005 28.027 31.0795C25.9645 32.0703 24.0354 32.0703 21.973 31.0795C21.1839 30.7005 20.9191 30.5066 20.2001 29.7813C19.4957 29.0707 19.2812 28.7759 18.9122 28.0107C18.4303 27.0114 18.1648 25.9395 18.1648 24.9928C18.1648 24.046 18.4303 22.9741 18.9122 21.9748C19.2812 21.2096 19.4957 20.9148 20.2001 20.2042C20.9185 19.4795 21.1845 19.2847 21.973 18.9054C23.4683 18.186 24.8278 18.0003 26.3467 18.3079ZM24.6582 43.835C24.0359 44.1014 23.8714 44.9083 24.3431 45.3801C24.5443 45.5814 24.7049 45.6465 25 45.6465C26.1355 45.6465 26.2672 43.9863 25.1465 43.8C24.9854 43.7731 24.7656 43.7888 24.6582 43.835Z" fill="white"/>
</svg>
