<svg width="50" height="50" viewBox="0 0 50 50" fill="none" xmlns="http://www.w3.org/2000/svg">
<path fill-rule="evenodd" clip-rule="evenodd" d="M1.97651 0.185712C0.994862 0.524546 0.297244 1.29986 0.0851718 2.28775C0.0085169 2.64504 -0.01358 9.2186 0.00763694 25.2954L0.037458 47.8029L0.24337 48.2473C0.544319 48.897 1.00356 49.3701 1.63294 49.6787L2.18849 49.9512L19.8367 49.977C33.0081 49.9962 37.5543 49.9741 37.7584 49.8899C38.0513 49.7692 38.316 49.358 38.316 49.0235C38.316 48.7007 38.0612 48.2913 37.781 48.1638C37.5852 48.0747 33.4058 48.0471 20.1205 48.0471C1.19168 48.0471 2.3199 48.0805 2.06089 47.5127C1.89135 47.1411 1.89135 2.86386 2.06089 2.49222C2.25967 2.05652 2.59718 1.9579 3.89005 1.9579C5.18419 1.9579 5.50068 1.8708 5.71569 1.45551C5.97743 0.949991 5.79596 0.338236 5.31999 0.121656C4.89937 -0.0697313 2.58848 -0.0254974 1.97651 0.185712ZM8.31012 0.141283C7.46252 0.610474 7.81714 1.9579 8.78824 1.9579C9.28366 1.9579 9.76598 1.4809 9.76598 0.990905C9.76598 0.257775 8.95475 -0.215615 8.31012 0.141283ZM12.2211 0.140697C11.5658 0.505016 11.5873 1.53675 12.2565 1.84121C12.4522 1.93027 16.6295 1.9579 29.9074 1.9579C43.1853 1.9579 47.3626 1.98553 47.5584 2.07459C48.13 2.33462 48.0934 0.768076 48.0934 25.0025C48.0934 49.2369 48.13 47.6703 47.5584 47.9304C47.4051 48.0002 46.8301 48.0471 46.1284 48.0471C44.8356 48.0471 44.4981 48.1457 44.2993 48.5814C44.145 48.9194 44.1518 49.1695 44.3245 49.5029C44.5542 49.9464 44.8895 50.0225 46.4495 49.9849C47.7472 49.9536 47.8894 49.9314 48.4045 49.6787C49.0339 49.3701 49.4931 48.897 49.7941 48.2473L50 47.8029V25.0025V2.20202L49.7272 1.64719C49.4181 1.01864 48.9444 0.559991 48.2939 0.259435L47.849 0.0537916L30.1519 0.0322117C15.5741 0.0145376 12.4136 0.0335787 12.2211 0.140697ZM10.9637 7.07985C9.10111 7.50247 7.6302 8.8909 7.08648 10.7394C6.88399 11.4281 6.88399 12.7981 7.08648 13.4868C7.9158 16.3067 10.9213 17.9255 13.6109 17.0013C14.5058 16.6938 14.978 16.3997 15.6437 15.7349C17.2767 14.1042 17.6421 11.8111 16.5979 9.74541C16.2365 9.03034 15.1972 7.94754 14.5616 7.62374C13.3907 7.02732 12.0732 6.82812 10.9637 7.07985ZM13.4528 9.28549C14.116 9.61007 14.6232 10.1282 14.9709 10.8363C15.2824 11.4708 15.2779 12.7473 14.962 13.3958C14.6088 14.1206 14.1199 14.6143 13.4086 14.9639C12.1566 15.5795 10.7743 15.3414 9.78055 14.339C9.1807 13.7341 8.94477 13.1832 8.90175 12.287C8.85902 11.3969 9.0226 10.8235 9.49553 10.2055C10.4538 8.9532 12.0269 8.58751 13.4528 9.28549ZM31.8629 17.9215C30.4751 18.2318 29.4322 18.6642 28.4175 19.3503C28.1089 19.5589 27.8339 19.7296 27.8064 19.7296C27.7789 19.7296 27.7564 19.5935 27.7564 19.427C27.7564 19.003 27.4986 18.5076 27.2094 18.3761C26.8867 18.2292 19.7133 18.2195 19.4402 18.3654C18.9375 18.6341 18.9567 18.1432 18.9567 30.7085V42.3804L19.2419 42.6994L19.5271 43.0183L23.396 43.0459C27.5756 43.0758 27.6811 43.0645 27.9735 42.5535C28.0707 42.3835 28.1095 40.7361 28.1475 35.1577L28.1964 27.9807L28.4852 27.46C28.829 26.8403 29.1854 26.5206 29.8969 26.194C31.2844 25.557 32.955 26.167 33.7038 27.584L33.9651 28.0783L34.0139 35.2776L34.0628 42.4769L34.3339 42.7476L34.6049 43.0183L38.4633 43.0459C42.6319 43.0758 42.7384 43.0644 43.0307 42.5535C43.1295 42.3806 43.1558 40.6441 43.1558 34.2789C43.1558 26.8431 43.142 26.1593 42.9771 25.3946C42.214 21.8573 39.6953 19.1472 36.2107 18.114C35.1067 17.7867 32.9026 17.689 31.8629 17.9215ZM7.78762 18.5498L7.46829 18.8347V30.5847C7.46829 39.9509 7.49371 42.3791 7.59344 42.5535C7.88578 43.0645 7.99128 43.0758 12.1709 43.0459L16.0397 43.0183L16.325 42.6994L16.6102 42.3804V30.7085C16.6102 18.1432 16.6294 18.6341 16.1267 18.3654C16.0067 18.3013 14.5215 18.2649 12.0228 18.2649H8.10695L7.78762 18.5498ZM35.9205 20.0649C37.9638 20.7582 39.4653 22.0441 40.3745 23.8795C41.1709 25.4872 41.1514 25.2425 41.1514 33.6598V41.1142H38.5604H35.9694L35.968 34.7427C35.9664 27.7479 35.9601 27.6614 35.3769 26.5686C34.8087 25.5039 33.6859 24.5691 32.5473 24.2128C31.6778 23.9407 30.3667 23.9426 29.573 24.2172C27.9948 24.7633 26.8888 25.8734 26.3654 27.4366C26.1542 28.0674 26.15 28.1895 26.1161 34.5963L26.0818 41.1142H23.497H20.9122V30.666V20.2178H23.3566H25.8009V21.3456C25.8009 22.6649 25.9093 22.9735 26.4332 23.1461C26.6215 23.2082 26.8717 23.2285 26.9893 23.1912C27.1068 23.154 27.6465 22.6777 28.1886 22.1328C29.1967 21.1195 29.8339 20.6755 30.8937 20.248C31.9124 19.8371 32.585 19.7299 33.9162 19.7661C34.9314 19.7938 35.2708 19.8444 35.9205 20.0649ZM14.6547 30.666V41.1142H12.0637H9.47265V30.666V20.2178H12.0637H14.6547V30.666ZM40.7711 48.1834C39.9235 48.6526 40.2781 50 41.2492 50C41.7446 50 42.227 49.523 42.227 49.033C42.227 48.2999 41.4157 47.8265 40.7711 48.1834Z" fill="white"/>
</svg>
