<svg width="52" height="48" viewBox="0 0 52 48" fill="none" xmlns="http://www.w3.org/2000/svg">
<path fill-rule="evenodd" clip-rule="evenodd" d="M48.7363 0.181788C46.9931 0.789801 1.13939 19.5295 0.901218 19.7312C-0.431442 20.8599 -0.255966 23.0985 1.22805 23.9003C1.43762 24.0135 4.07057 25.0737 7.079 26.2563C10.0874 27.4388 12.5616 28.4197 12.5772 28.436C12.5926 28.4525 13.5719 31.7426 14.7533 35.7475C15.9346 39.7524 16.9838 43.2006 17.0849 43.4101C17.6741 44.6317 19.063 45.1322 20.1913 44.5295C20.4682 44.3816 22.1602 43.0007 23.9511 41.4608C25.7421 39.9209 27.3177 38.617 27.4522 38.563C27.6312 38.4913 27.7957 38.5169 28.0637 38.6583C28.2654 38.7646 30.9266 40.7612 33.9776 43.0953C37.0286 45.4293 39.7146 47.47 39.9463 47.6302C40.4438 47.9737 41.2585 48.0961 41.8771 47.9199C42.4188 47.7657 43.1724 47.0629 43.3787 46.5198C43.4678 46.2849 45.468 36.3315 47.8236 24.4011C52.5629 0.397111 52.2903 2.06073 51.6454 1.07483C50.9949 0.0803453 49.9481 -0.240926 48.7363 0.181788ZM49.9348 2.49577C49.9713 2.91334 41.5607 45.5159 41.402 45.7173C41.3355 45.8017 41.2475 45.8708 41.2065 45.8708C41.1654 45.8708 38.4183 43.7958 35.1018 41.2596C28.5628 36.2593 28.5274 36.2366 27.4133 36.3578C27.1255 36.3891 26.6869 36.5173 26.4387 36.6426C26.1906 36.768 24.476 38.1714 22.6287 39.7615C20.7813 41.3517 19.2469 42.6522 19.2189 42.6515C19.0001 42.647 18.6591 41.6072 16.6869 34.9281C15.46 30.7728 14.4023 27.2498 14.3365 27.0992C14.2708 26.9485 14.1329 26.77 14.0301 26.7024C13.9274 26.6348 11.2397 25.5584 8.05756 24.3105C4.87548 23.0625 2.21413 21.9644 2.14359 21.8704C2.03906 21.731 2.04435 21.669 2.1722 21.5343C2.35836 21.3381 49.5322 2.12432 49.7541 2.15434C49.8439 2.16646 49.9183 2.30726 49.9348 2.49577ZM39.2664 9.60266C38.2332 10.1636 17.5809 23.6512 17.2508 23.9807C16.6866 24.5439 16.3483 25.3052 16.2912 26.14C16.2471 26.7836 16.3397 27.1947 17.4977 31.4964C18.8389 36.4782 18.9087 36.6574 19.6273 36.971C20.0354 37.1491 20.7556 37.054 21.1309 36.7724C21.6211 36.4046 21.7519 35.9395 22.0768 33.4081C22.4746 30.3092 22.5475 30.0472 23.2161 29.3165C23.5088 28.9966 27.6555 24.914 32.431 20.2442C37.2064 15.5744 41.1569 11.6337 41.2099 11.4871C41.6881 10.1616 40.4495 8.96055 39.2664 9.60266ZM34.1283 15.6186C33.9614 15.7886 31.1454 18.5423 27.8705 21.7378C24.5956 24.9334 21.7142 27.7981 21.4674 28.1038C20.7745 28.9625 20.4689 29.7824 20.2624 31.3378C20.1643 32.0765 20.0587 32.681 20.0279 32.681C19.9969 32.6811 19.5929 31.2799 19.1299 29.5673C18.23 26.2378 18.2083 26.0499 18.67 25.593C18.8866 25.3785 34.2436 15.3341 34.3828 15.3157C34.4097 15.3122 34.2952 15.4485 34.1283 15.6186ZM42.6621 23.8216C42.3296 24.1165 42.1203 24.7434 42.1203 25.445C42.1203 26.3159 43.2186 26.8155 43.796 26.2072C44.286 25.691 44.4168 24.4164 44.0286 23.9409C43.681 23.5151 43.0682 23.4616 42.6621 23.8216ZM41.5715 28.9547C41.2546 29.2946 41.2171 29.4467 40.0549 35.0938C39.3994 38.2787 38.8632 41.0691 38.8632 41.2948C38.8632 42.2017 39.9245 42.686 40.5252 42.0532C40.6708 41.8997 40.8116 41.6947 40.8381 41.5974C40.8646 41.5002 41.4225 38.8114 42.0779 35.6225C43.3896 29.24 43.3941 29.1964 42.8019 28.816C42.3179 28.5051 41.9523 28.5463 41.5715 28.9547Z" fill="white"/>
</svg>
