<svg width="54" height="48" viewBox="0 0 54 48" fill="none" xmlns="http://www.w3.org/2000/svg">
<path fill-rule="evenodd" clip-rule="evenodd" d="M35.5623 0.107484C33.0598 0.417739 30.4543 1.83513 28.6185 3.88471C27.6537 4.96196 27.1591 5.72826 26.5194 7.1374C25.7114 8.91716 25.4122 10.2484 25.3405 12.3833L25.2836 14.0789L24.6905 14.0036C24.083 13.9264 21.85 13.4861 20.7161 13.2201C19.6972 12.9808 19.1958 13.3103 19.1636 14.2403C19.1397 14.9272 19.5431 15.2349 20.9431 15.5978C22.5941 16.0256 24.7439 16.3608 26.0207 16.3894C27.1223 16.414 27.1255 16.4133 27.3924 16.0786C27.6357 15.7732 27.6541 15.68 27.5948 15.0478C27.4337 13.3267 27.4082 11.8992 27.5242 11.0892C27.7974 9.18321 28.6891 7.17669 29.9027 5.73765C31.9766 3.27852 35.1527 1.96878 38.0558 2.3757C40.2249 2.67977 41.7995 3.45271 43.4344 5.01601C43.8412 5.40495 44.281 5.77911 44.4118 5.84748C44.7453 6.02168 45.7799 5.79308 47.6066 5.14154C48.4211 4.85109 49.0876 4.64552 49.0876 4.68491C49.0876 4.86495 47.7797 6.27616 47.1849 6.73805C46.0879 7.58979 45.9282 7.76112 45.859 8.16117C45.7836 8.59671 46.0141 9.18149 46.3344 9.36725C46.6491 9.54981 47.3411 9.50583 48.6391 9.22089L49.8285 8.95977L49.3788 9.46346C49.1314 9.74038 48.4662 10.3759 47.9005 10.8756C47.3348 11.3753 46.8236 11.8819 46.7646 12.0015C46.7055 12.1211 46.6565 12.8536 46.6555 13.6293C46.6386 27.934 38.3872 40.3854 26.291 44.36C22.0422 45.756 17.3945 46.1107 12.8777 45.3838C10.7765 45.0457 7.67224 44.0904 6.03652 43.2786L5.39449 42.9599L6.02849 42.8791C9.55226 42.4304 13.1089 41.0322 15.9583 38.9757C17.6195 37.7766 17.8103 37.5704 17.8103 36.9743C17.8103 36.6022 17.744 36.4242 17.5118 36.1725C17.2619 35.9018 17.0942 35.8372 16.4815 35.7758C14.6361 35.5912 12.7169 34.8568 11.4233 33.8404C10.5907 33.1863 9.59378 32.0636 9.01864 31.1325L8.48714 30.2719L9.58248 30.2005C11.8677 30.0514 12.6615 29.6712 12.6615 28.7258C12.6615 28.0349 12.3783 27.8026 10.9264 27.3025C9.26611 26.7305 8.20628 26.021 6.97949 24.6604C5.99764 23.5714 5.37833 22.5713 4.88698 21.2815C4.62535 20.5946 4.25319 19.2158 4.31236 19.1527C4.32642 19.1378 4.76578 19.2512 5.28883 19.4049C5.81188 19.5585 6.70011 19.7161 7.26268 19.7552L8.28553 19.8264L8.60992 19.4748C8.86944 19.1935 8.93432 19.0265 8.93432 18.6402C8.93432 18.117 8.91361 18.0907 7.66632 17.0186C6.33672 15.8757 5.07549 13.7262 4.57833 11.7556C4.37576 10.9525 4.33815 10.5224 4.33952 9.02711C4.34111 7.5118 4.37777 7.1129 4.59016 6.30216L4.8389 5.35238L6.01486 6.59397C7.37468 8.0298 8.71612 9.25662 9.98834 10.2279C11.0911 11.0698 11.5184 11.1359 12.0094 10.5401C12.6153 9.80521 12.3927 9.27346 11.0366 8.21671C9.33955 6.89449 7.62332 5.19502 5.86904 3.09974C5.12684 2.2133 5.05118 2.15455 4.65483 2.15741C4.41645 2.15924 4.13294 2.24686 4.00466 2.35841C3.74789 2.58173 3.09012 3.95503 2.78527 4.90412C1.97492 7.42704 1.96678 10.76 2.76499 13.1686C3.09614 14.1677 3.66537 15.4243 4.09268 16.0992C4.26217 16.3668 4.37291 16.5859 4.33868 16.5859C4.30454 16.5859 4.09015 16.4828 3.86233 16.3569C3.25211 16.0195 2.75083 16.0551 2.37486 16.4626C2.09316 16.7679 2.066 16.8668 2.066 17.5877C2.066 19.3493 2.62149 21.6456 3.45837 23.343C4.08624 24.6166 4.8203 25.6282 5.95273 26.7801C6.866 27.709 6.9367 27.8096 6.67676 27.8096C6.3382 27.8096 5.90877 28.232 5.80892 28.6634C5.6705 29.2612 6.68003 31.6456 7.65364 33.0206C9.05119 34.9942 11.1872 36.6819 13.161 37.3718C13.4806 37.4835 13.7821 37.5997 13.8309 37.6301C14.1228 37.8114 10.8568 39.365 9.06165 39.8989C6.91429 40.5375 5.81853 40.6798 2.99365 40.6873C0.530035 40.6938 0.482907 40.6984 0.24632 40.9548C-0.0343297 41.2589 -0.088114 42.0826 0.152277 42.3965C0.233006 42.502 0.803605 42.9163 1.42027 43.3173C5.1448 45.7393 9.34916 47.2518 14.0591 47.8639C15.4429 48.0438 19.5851 48.0458 20.9275 47.8671C26.318 47.1501 30.5905 45.5264 34.5776 42.6796C43.0469 36.6323 48.338 26.2512 48.738 14.8965L48.8036 13.0355L49.1658 12.7361C50.3962 11.7188 52.2081 9.65414 53.3753 7.9391C53.9094 7.15436 53.999 6.95164 54 6.52617C54.0008 6.12326 53.9452 5.97747 53.7045 5.75311C53.2915 5.36807 52.8335 5.39876 51.7071 5.88722C51.1866 6.11296 50.7443 6.27994 50.7244 6.25829C50.7045 6.23665 50.8817 5.91024 51.1183 5.53288C51.7647 4.5019 52.4968 2.76292 52.5535 2.12374C52.5968 1.63459 52.5678 1.53037 52.3047 1.23272C51.8646 0.73498 51.4067 0.774491 50.3281 1.40336C49.0167 2.16795 47.9059 2.66648 46.4685 3.13559L45.1707 3.55911L44.6724 3.10535C42.8338 1.43108 40.6012 0.383151 38.2743 0.101872C37.1389 -0.0353317 36.7064 -0.0344155 35.5623 0.107484ZM15.1986 11.2864C14.8428 11.3566 14.429 11.9583 14.429 12.4057C14.429 12.6809 14.5206 12.8882 14.7541 13.1413C15.7139 14.1815 17.1814 12.7438 16.2517 11.6741C15.9535 11.3311 15.6112 11.205 15.1986 11.2864ZM38.5128 28.0298C38.2871 28.2745 38.2039 28.4744 38.2039 28.7724C38.2039 29.7429 39.3267 30.2679 39.9522 29.5899C40.5609 28.9303 40.0756 27.6951 39.2077 27.6951C38.9219 27.6951 38.7414 27.782 38.5128 28.0298ZM36.4604 31.2271C36.2861 31.3425 35.9703 31.6645 35.7589 31.9424C34.5922 33.476 32.556 35.3867 30.6891 36.6998C29.3274 37.6576 29.2223 37.7762 29.2223 38.3549C29.2223 38.9728 29.6687 39.4914 30.2005 39.4914C31.0107 39.4914 33.9389 37.2089 36.0526 34.9298C38.1695 32.6471 38.4273 32.0751 37.6742 31.3313C37.3008 30.9627 36.9105 30.9291 36.4604 31.2271Z" fill="white"/>
</svg>
