<svg width="73" height="90" viewBox="0 0 73 90" fill="none" xmlns="http://www.w3.org/2000/svg">
<path d="M32.7394 15.4269C33.7127 10.7922 37.361 7.39152 41.8761 6.91024C42.1448 6.88158 42.4951 6.85442 42.6546 6.84986L42.9446 6.84155V8.95455L42.5325 8.99295C40.2139 9.20906 38.4576 10.0381 36.9679 11.6198C35.827 12.831 35.1341 14.1713 34.7788 15.8541C34.6262 16.5762 34.6289 18.4645 34.7834 19.19C35.1494 20.9083 35.8887 22.3013 37.079 23.5151C38.1009 24.5573 39.244 25.2624 40.573 25.6703C41.2032 25.8638 42.0582 26.0098 42.563 26.0101L42.9446 26.0103V28.1659L42.2221 28.1217C40.4365 28.0124 38.7334 27.4149 37.1441 26.3401C36.1963 25.6991 34.9729 24.4536 34.3456 23.4909C33.5647 22.2925 33.0435 21.0241 32.7384 19.5791C32.6182 19.0099 32.5996 18.7384 32.5976 17.5186C32.5954 16.2717 32.6114 16.0366 32.7394 15.4269Z" fill="white"/>
<path d="M38.7061 12.8402C39.7787 11.8141 41.1165 11.2324 42.6393 11.1297C42.7905 11.1196 43.0103 11.1188 43.1278 11.1281C43.9804 11.1954 44.2239 11.2335 44.6964 11.3736C47.1832 12.1105 48.9714 14.3599 49.198 17.0362L49.239 17.5216L47.1272 17.4874L47.0881 17.0403C47.0041 16.0793 46.6183 15.2751 45.8784 14.5185C45.0303 13.6511 44.1397 13.2728 42.946 13.2728C40.1345 13.2728 38.1485 16.0536 38.9998 18.7986C39.5003 20.4126 40.9107 21.5891 42.5295 21.7429L42.9446 21.7824V23.906L42.4347 23.8692C41.0177 23.7669 39.5927 23.0884 38.5454 22.0174C36.0436 19.4591 36.1161 15.3177 38.7061 12.8402Z" fill="white"/>
<path d="M31.59 26.8555C29.6133 24.2893 28.589 21.5026 28.3815 18.1259L28.344 17.5156L30.4581 17.5499L30.4983 18.3616C30.5736 19.8826 31.0114 21.5818 31.7096 23.0624C33.1628 26.1439 35.7648 28.5009 38.9224 29.596C40.1159 30.0099 40.7962 30.1411 42.5325 30.2926L42.9446 30.3286V32.4576L42.2577 32.4147C38.5629 32.1833 35.2622 30.6923 32.7115 28.1026C32.3053 27.6902 31.8006 27.129 31.59 26.8555Z" fill="white"/>
<path d="M46.3034 19.0004C46.2976 18.7934 46.3538 18.583 46.4283 18.5328C46.603 18.415 54.4758 18.4406 54.4758 18.559C54.4758 18.6082 53.7557 19.3365 52.8757 20.1776L51.2757 21.7067H44.9199L44.8561 24.6778L44.0023 24.6893V20.7746H50.8508L51.5249 20.1746C51.8957 19.8446 52.1989 19.5316 52.1989 19.479C52.1989 19.4265 51.9813 19.3892 51.7151 19.396C51.4489 19.4029 50.1249 19.4013 48.7725 19.3926L46.3138 19.3765L46.3034 19.0004Z" fill="white"/>
<path d="M46.393 24.7572V22.7554H47.3037V23.8261L49.3603 23.7801C50.4913 23.7548 51.4385 23.7701 51.465 23.814C51.4916 23.8581 50.7939 24.5816 49.9146 25.4219L48.3158 26.9499H44.9131V31.1624L46.3856 29.8044L46.393 27.9985H47.3037V30.1808L45.8523 31.5668C45.054 32.329 44.3112 33.0242 44.2016 33.1114C44.0128 33.2619 44.0023 33.0802 44.0023 29.6439V26.0177H47.8909L48.566 25.4168C48.9373 25.0863 49.2107 24.7848 49.1736 24.7468C49.1365 24.709 48.4957 24.6957 47.7495 24.7176L46.393 24.7572Z" fill="white"/>
<path d="M60.9569 19.9943C60.9569 31.0369 52.2054 39.9886 41.4099 39.9886C30.6144 39.9886 21.8629 31.0369 21.8629 19.9943C21.8629 8.95176 30.6144 0 41.4099 0C52.2054 0 60.9569 8.95176 60.9569 19.9943ZM23.8176 19.9943C23.8176 29.9326 31.694 37.9892 41.4099 37.9892C51.1258 37.9892 59.0022 29.9326 59.0022 19.9943C59.0022 10.056 51.1258 1.99943 41.4099 1.99943C31.694 1.99943 23.8176 10.056 23.8176 19.9943Z" fill="white"/>
<path fill-rule="evenodd" clip-rule="evenodd" d="M64.1924 29.6437C61.8508 30.5305 60.5359 33.3934 61.3598 35.8111L61.5775 36.4499L48.6532 49.3988L47.9264 49.1366C46.3928 48.5832 44.4852 49.0031 43.3086 50.1531L42.7988 50.6516L31.9314 46.2102L31.7205 45.0498C30.8771 40.4107 24.9932 39.4383 22.9153 43.5944C22.3871 44.651 22.2029 46.1746 22.4914 47.1038C22.595 47.4377 21.7199 48.2075 16.3086 52.5445L10.0053 57.5963L8.84727 57.1953C6.12311 56.2521 3.45101 57.6221 2.67265 60.3612C1.60489 64.1183 5.05442 67.4566 8.71831 66.2119C10.7771 65.5124 11.9807 63.5652 11.8154 61.2019L11.7232 59.8829L17.8405 54.9946C21.205 52.3059 24.062 50.0426 24.1893 49.9649C24.3164 49.8872 24.7831 49.9921 25.2261 50.1977C26.7645 50.9118 28.732 50.6173 30.0332 49.4779L30.7893 48.8159L41.6245 53.244L41.8386 54.423C42.6463 58.865 48.1783 59.9947 50.4795 56.1874C50.9218 55.4559 51.0498 55.002 51.1072 53.963C51.1521 53.15 51.087 52.4302 50.9347 52.0542L50.6903 51.4506L63.6093 38.4886L64.3445 38.7539C65.9175 39.3217 67.5656 38.9821 68.8499 37.8257C70.0568 36.7389 70.4761 35.8012 70.4769 34.1865C70.4778 32.2545 69.5903 30.7657 67.9102 29.8806C66.9608 29.3803 65.1866 29.2673 64.1924 29.6437ZM66.7042 32.4827C67.3757 32.8381 67.6269 33.3001 67.6269 34.1806C67.6269 35.0816 67.1883 35.7284 66.3965 35.9957C64.6832 36.5741 63.2123 34.4964 64.3175 33.0592C64.9793 32.1986 65.7947 32.0017 66.7042 32.4827ZM28.394 44.4818C28.7811 44.8491 28.9036 45.1421 28.9036 45.7004C28.9036 46.6328 28.6623 47.0905 27.9809 47.451C27.1095 47.9119 26.529 47.8099 25.8042 47.0685C25.2167 46.4676 25.1607 46.3222 25.2511 45.6323C25.3712 44.7175 25.7951 44.1861 26.5726 43.9767C27.3285 43.7728 27.7785 43.8977 28.394 44.4818ZM59.0783 47.91L58.6409 48.2722V89.2755L59.0783 89.6376C59.4898 89.9786 59.8885 90 65.803 90H72.0905L73 89.0696V68.8079C73 48.5968 72.9991 48.5451 72.6159 48.047L72.232 47.5476H65.8738C59.8896 47.5476 59.49 47.5688 59.0783 47.91ZM70.2208 87.1572H61.5127V50.3904H70.2208V87.1572ZM47.8484 52.4776C48.5141 53.2251 48.5294 54.1327 47.8897 54.9105C47.3025 55.6242 46.559 55.8042 45.7054 55.4394C44.925 55.1058 44.6508 54.644 44.6564 53.6721C44.6666 51.8823 46.6552 51.1383 47.8484 52.4776ZM21.0021 59.429C20.7835 59.4728 20.45 59.6833 20.261 59.8967C19.934 60.2665 19.9149 60.9605 19.8653 74.3372C19.8365 82.0658 19.8595 88.5832 19.9162 88.8202C19.9731 89.0575 20.1841 89.4199 20.3853 89.6257C20.7355 89.9839 21.0257 90 27.1112 90H33.4709L34.2766 89.1227V74.7664C34.2766 65.7642 34.209 60.2807 34.0953 60.0633C33.739 59.3824 32.9273 59.2969 27.0695 59.3236C23.951 59.3378 21.2208 59.3852 21.0021 59.429ZM8.44873 60.3212C9.14909 61.0376 9.24487 61.6411 8.79891 62.5235C8.44558 63.2222 7.99887 63.4673 7.07804 63.4673C5.2875 63.4673 4.63217 61.0071 6.16757 60.0495C7.06136 59.4921 7.7141 59.5698 8.44873 60.3212ZM31.4975 87.1572H22.7893V62.3301H31.4975V87.1572ZM40.0787 67.4485C39.8561 67.5402 39.5851 67.7851 39.4765 67.9926C39.344 68.246 39.2792 71.6913 39.2792 78.4886V88.6072L39.7079 89.0194C40.1309 89.4258 40.2232 89.4314 46.4502 89.4314C52.3895 89.4314 52.7894 89.41 53.2009 89.0693L53.6383 88.7071L53.7404 68.3753L52.6478 67.2577L46.5657 67.2696C43.2204 67.2762 40.3014 67.3568 40.0787 67.4485ZM50.7665 86.5886H42.0584V70.29H50.7665V86.5886ZM0 76.1478V89.0696L0.909536 90H7.19699C13.1102 90 13.5104 89.9784 13.9217 89.6378L14.3591 89.2758L14.4129 82.9673C14.4699 76.2481 14.4232 75.8167 13.5967 75.4316C13.2851 75.2863 11.1729 75.2175 7.02338 75.2175H0.909536L0 76.1478ZM11.4873 87.1572H2.77919V78.0603H11.4873V87.1572Z" fill="white"/>
</svg>
